<svg xmlns="http://www.w3.org/2000/svg" viewBox="0 0 187.49 40"><defs><style>.cls-1{fill:#999;}</style></defs><g id="레이어_2" data-name="레이어 2"><g id="AUFC_810_12_colum_grid_system" data-name="AUFC / 810 / 12 colum grid system"><g id="footer"><path class="cls-1" d="M8.29,5.91H4.72V9h-1v-3H.19V5.07h8.1ZM1.05,2.32c0-1.21,1.29-2,3.18-2s3.16.77,3.16,2-1.28,2-3.16,2S1.05,3.53,1.05,2.32Zm1.05,0c0,.73.84,1.16,2.13,1.16s2.11-.43,2.11-1.16S5.5,1.16,4.23,1.16,2.1,1.59,2.1,2.32Z"/><path class="cls-1" d="M9,9.84a9.27,9.27,0,0,0,1.25-4.75A9.27,9.27,0,0,0,9,.34L9.72,0A9.25,9.25,0,0,1,11.2,5.09a9.23,9.23,0,0,1-1.48,5.06Z"/><path class="cls-1" d="M14.65,7.24h1.6V2.38H14.94V1.65a4.23,4.23,0,0,0,1.58-.55h.87V7.24h1.42v.94H14.65Z"/><path class="cls-1" d="M19.71,4.88C19.71,2.09,21,1,22.47,1a2.47,2.47,0,0,1,1.82.78l-.63.69a1.56,1.56,0,0,0-1.15-.53c-.92,0-1.69.69-1.74,2.77a2.23,2.23,0,0,1,1.59-.85A1.94,1.94,0,0,1,24.41,6a2.18,2.18,0,0,1-2.18,2.3C20.84,8.31,19.71,7.22,19.71,4.88Zm1.09.63c.12,1.32.65,1.93,1.42,1.93S23.36,6.91,23.36,6s-.44-1.36-1.21-1.36A1.71,1.71,0,0,0,20.8,5.51Z"/><path class="cls-1" d="M28,6.3H24.79V5.54l2.9-4.44H29V5.42h.92V6.3H29V8.18H28Zm0-.88V3.63c0-.39,0-1,.05-1.42h0c-.18.35-.38.69-.58,1.06L25.94,5.42Z"/><path class="cls-1" d="M30.54,7.54l.62-.7a1.52,1.52,0,0,0,1.14.54c.93,0,1.71-.71,1.76-2.79a2.14,2.14,0,0,1-1.59.86,1.93,1.93,0,0,1-2-2.18A2.18,2.18,0,0,1,32.58,1c1.4,0,2.53,1.1,2.53,3.44,0,2.8-1.32,3.91-2.75,3.91A2.38,2.38,0,0,1,30.54,7.54Zm2.12-2.91A1.71,1.71,0,0,0,34,3.75c-.13-1.31-.66-1.91-1.44-1.91-.62,0-1.11.53-1.11,1.43S31.89,4.63,32.66,4.63Z"/><path class="cls-1" d="M35.93,7.54l.63-.7a1.49,1.49,0,0,0,1.13.54c.93,0,1.72-.71,1.77-2.79a2.14,2.14,0,0,1-1.6.86,1.93,1.93,0,0,1-2-2.18A2.18,2.18,0,0,1,38,1c1.4,0,2.52,1.1,2.52,3.44,0,2.8-1.31,3.91-2.75,3.91A2.4,2.4,0,0,1,35.93,7.54Zm2.13-2.91a1.71,1.71,0,0,0,1.37-.88C39.3,2.44,38.76,1.84,38,1.84s-1.12.53-1.12,1.43S37.29,4.63,38.06,4.63Z"/><path class="cls-1" d="M51.54,2.38a5.38,5.38,0,0,1-3.81,3l-.4-.81c2.1-.58,3.26-1.68,3.43-3.07h-3V.65h4.06a4.91,4.91,0,0,1-.08.89h1.84V0h1V5.27h-1v-1H51.45V3.41h2.16v-1Zm3.15,4.76c0,1.09-1.18,1.77-3,1.77s-3-.68-3-1.77,1.17-1.77,3-1.77S54.69,6.05,54.69,7.14Zm-1,0c0-.62-.76-1-2-1s-2,.34-2,1,.77,1,2,1S53.68,7.76,53.68,7.14Z"/><path class="cls-1" d="M60.83,1a6.6,6.6,0,0,1-4.13,6.4l-.55-.81c2.35-1.13,3.46-2.7,3.63-4.76H56.6V1ZM63.47,0V9h-1V0Z"/><path class="cls-1" d="M73.05,7v.84H65V7h3.53V4.93H65.94V.68h6.12V1.5H67V4.11h5.18v.82H69.5V7Z"/><path class="cls-1" d="M84.42,5.8H80.86V9h-1V5.8H76.34V5h8.08Zm-.75-1.67a4.52,4.52,0,0,1-3.28-2,4.49,4.49,0,0,1-3.3,2l-.39-.82C78.52,3.05,79.85,2,79.85.77V.3h1.07V.77c0,1.16,1.35,2.28,3.15,2.54Z"/><path class="cls-1" d="M87.65,4.85c-.85,0-1.65.05-2.37.05l-.13-.83a50.2,50.2,0,0,0,5.73-.27l.08.73a22,22,0,0,1-2.29.26V6.51h-1ZM85.84,1.92c0-.95.9-1.57,2.21-1.57s2.21.62,2.21,1.57-.9,1.57-2.21,1.57S85.84,2.87,85.84,1.92Zm7,6v.83H86.36V6.14h1V8Zm-6-6c0,.51.5.82,1.24.82s1.24-.31,1.24-.82-.5-.82-1.24-.82S86.81,1.42,86.81,1.92Zm4.78,3.34V0h1V6.8h-1V6H89.84V5.26Z"/><path class="cls-1" d="M97.36,2.22a4.34,4.34,0,0,0,2.32,3.92l-.6.81a4.46,4.46,0,0,1-2.21-2.68,4.69,4.69,0,0,1-2.28,2.88L94,6.3a4.51,4.51,0,0,0,2.35-4.08V.75h1ZM101.42,0V9h-1V0Z"/><path class="cls-1" d="M109.68,4.1a2.39,2.39,0,0,1-1.77.72,2.18,2.18,0,0,1-2.34-2.15A2.18,2.18,0,0,1,107.91.52a2.38,2.38,0,0,1,1.77.72h2.16V0h1V5.28h-1V4.1ZM107.91,4a1.26,1.26,0,0,0,1.34-1.29,1.26,1.26,0,0,0-1.34-1.29,1.27,1.27,0,0,0-1.37,1.29A1.28,1.28,0,0,0,107.91,4Zm5,3.25c0,1.09-1.16,1.74-3,1.74s-3-.65-3-1.74,1.15-1.74,3-1.74S112.9,6.12,112.9,7.21Zm-1,0c0-.6-.74-.93-2-.93s-2,.33-2,.93.74.94,2,.94S111.89,7.82,111.89,7.21Zm-1.75-5.14a2.35,2.35,0,0,1,.08.6,2,2,0,0,1-.09.61h1.71V2.07Z"/><path class="cls-1" d="M122.38,4.68V5.5H114.3V4.68h3.53V4h-2.49V.26h6.08V1h-5.07v.67h4.85v.77h-4.85v.69h5.13V4h-2.62v.73Zm-1,2.81c0,.95-1.13,1.46-3.08,1.46s-3.07-.51-3.07-1.46,1.13-1.43,3.07-1.43S121.41,6.55,121.41,7.49Zm-1,0c0-.45-.7-.68-2.06-.68s-2,.23-2,.68.7.69,2,.69S120.39,8,120.39,7.49Z"/><path class="cls-1" d="M131.26,5.22H127.7V9h-1V5.22h-3.49V4.37H129a13.89,13.89,0,0,0,.25-3h-5.09V.56h6.09v.78a16.13,16.13,0,0,1-.22,3h1.24Z"/><path class="cls-1" d="M136.85,4c-.77,0-1.51,0-2.19,0l-.11-.73a57.38,57.38,0,0,0,5.77-.21l.06.64c-.82.12-1.67.19-2.5.23V5.26h-1ZM135.19,1.5c0-.82.89-1.33,2.23-1.33s2.21.51,2.21,1.33-.89,1.34-2.21,1.34S135.19,2.33,135.19,1.5Zm7,6.65v.72h-6.35v-2H141v-.6h-5.1v-.7H142v2h-5.08v.66ZM136.15,1.5c0,.42.49.66,1.27.66s1.25-.24,1.25-.66-.49-.65-1.25-.65S136.15,1.09,136.15,1.5ZM141,4.21V0h1V5.23h-1V4.84h-1.68V4.21Z"/><path class="cls-1" d="M151.53,7V7.8h-8.1V7Zm-.92-1.91h-6.19V.79h6.12v.83h-5.1V4.23h5.17Z"/><path class="cls-1" d="M156.93.45c0,2.35-1.24,4-4.06,4.81l-.39-.82a5.2,5.2,0,0,0,2.78-1.62l-2.65.2-.15-.82,3.2-.13a3.64,3.64,0,0,0,.19-.79H152.9V.45Zm1.75,4.89h1v3.5h-5.8V5.34h1v1h3.78Zm0,1.75H154.9V8h3.78Zm1-7.08V4.94h-1V3.11h-1.78V2.27h1.78V0Z"/><path class="cls-1" d="M169.25,7.06V7.9h-8.1V7.06h3.53V5.53h-2.55V2.65h5.15V1.46h-5.17V.63h6.18V3.46h-5.16V4.71h5.36v.82h-2.8V7.06Z"/><path class="cls-1" d="M171.93,7.52c2-2,3.25-3.25,3.25-4.36a1.16,1.16,0,0,0-1.24-1.29,2,2,0,0,0-1.43.81l-.64-.63A2.85,2.85,0,0,1,174.08,1a2,2,0,0,1,2.2,2.14c0,1.29-1.18,2.6-2.69,4.18a11.85,11.85,0,0,1,1.19-.06h1.85v1h-4.7Z"/><path class="cls-1" d="M177.35,4.61c0-2.38.91-3.65,2.36-3.65s2.35,1.28,2.35,3.65-.9,3.7-2.35,3.7S177.35,7,177.35,4.61Zm3.62,0c0-2-.52-2.75-1.26-2.75s-1.27.71-1.27,2.75.52,2.8,1.27,2.8S181,6.65,181,4.61Z"/><path class="cls-1" d="M182.8,4.88c0-2.79,1.3-3.92,2.75-3.92a2.47,2.47,0,0,1,1.82.78l-.62.69a1.6,1.6,0,0,0-1.15-.53c-.92,0-1.69.69-1.74,2.77a2.21,2.21,0,0,1,1.58-.85A1.93,1.93,0,0,1,187.49,6a2.18,2.18,0,0,1-2.18,2.3C183.93,8.31,182.8,7.22,182.8,4.88Zm1.09.63c.12,1.32.64,1.93,1.41,1.93s1.14-.53,1.14-1.43-.44-1.36-1.21-1.36A1.7,1.7,0,0,0,183.89,5.51Z"/><path class="cls-1" d="M4.87,19.66c0,1.93-1,3.15-2.3,3.15S.28,21.59.28,19.66s1-3.15,2.29-3.15S4.87,17.73,4.87,19.66Zm-1,0c0-1.39-.55-2.23-1.32-2.23s-1.31.84-1.31,2.23.53,2.24,1.31,2.24S3.89,21.06,3.89,19.66Zm4.62.53H7.12V24.8h-1v-9h1v3.5H8.51Z"/><path class="cls-1" d="M17.14,21.7H13.58v3.1h-1V21.7H9.06v-.82h8.09ZM9.51,19.43c1.7-.23,3-1.21,3-2.25H9.8v-.82h6.58v.82h-2.7c.06,1,1.32,2,3,2.25l-.37.8a4.34,4.34,0,0,1-3.23-1.94,4.34,4.34,0,0,1-3.23,1.94Z"/><path class="cls-1" d="M19.22,21.82A13.56,13.56,0,0,0,22,21.57l.09.84a16,16,0,0,1-3.26.25h-.59V16.91h3.3v.83h-2.3Zm6.32-6v8.94h-1V20.21H23.51v4.13h-1V16h1v3.35h1.06V15.84Z"/><path class="cls-1" d="M32.07,17.54H26.79v-.82h2.13V15.8h1v.92h2.13Zm-2.64,3.64c-1.29,0-2.17-.65-2.17-1.63s.88-1.63,2.17-1.63,2.16.66,2.16,1.63S30.71,21.18,29.43,21.18Zm-1.55.7h5.88v2.91h-1V22.7H27.88Zm1.55-1.48c.71,0,1.19-.32,1.19-.85s-.48-.85-1.19-.85-1.19.32-1.19.85S28.71,20.4,29.43,20.4ZM35,19.09H33.76v2.36h-1v-5.6h1v2.4H35Z"/><path class="cls-1" d="M43.72,22.78v.84H35.65v-.84h1.86V19.89h1v2.89h1.19V19.89h1v2.89Zm-1.86-5.26H36.45v-.84h6.43v.95a20,20,0,0,1-.32,4l-1-.12a19.22,19.22,0,0,0,.31-3.92Z"/><path class="cls-1" d="M53,20.29v.76H54.1v2.14H49v.74h5.35v.78H48V22.46h5.1v-.64H48v-.77h1.16v-.76H47v-.82h8.1v.82Zm-5.08-2.8c0-1,1.17-1.55,3.18-1.55s3.19.55,3.19,1.55S53.07,19,51.07,19,47.89,18.49,47.89,17.49Zm1,0c0,.51.75.78,2.13.78s2.13-.27,2.13-.78-.74-.79-2.13-.79S48.94,17,48.94,17.49Zm3,2.8H50.16v.76H52Z"/><path class="cls-1" d="M64,20v.83H55.91V20h3.16V18.29h1V20Zm-7.21,1.73h6.17v3h-1V22.57H56.76Zm5-2.37A10.52,10.52,0,0,0,62,17.14H56.84v-.82H63V17a10.46,10.46,0,0,1-.23,2.49Z"/><path class="cls-1" d="M70.29,20.87a33.13,33.13,0,0,1-5.52.38l-.11-.83c.53,0,1.15,0,1.78,0V18.57h1v1.8a24.81,24.81,0,0,0,2.77-.24Zm-1.81-1.3a12.55,12.55,0,0,0,.22-2.21H65.2v-.83h4.5V17a13.12,13.12,0,0,1-.22,2.64ZM67,23.79h5v.83H66V22h1ZM73,18.68v.85H71.8v3h-1V15.85h1v2.83Z"/><path class="cls-1" d="M75.53,23.37c2-2,3.26-3.26,3.26-4.37a1.16,1.16,0,0,0-1.24-1.29,2,2,0,0,0-1.43.82l-.65-.64a2.89,2.89,0,0,1,2.22-1.09,2,2,0,0,1,2.2,2.14c0,1.3-1.18,2.6-2.7,4.19.37,0,.84-.07,1.19-.07h1.85v1h-4.7Z"/><path class="cls-1" d="M81,20.46c0-2.39.91-3.66,2.35-3.66s2.36,1.28,2.36,3.66-.9,3.7-2.36,3.7S81,22.84,81,20.46Zm3.62,0c0-2-.52-2.76-1.27-2.76s-1.26.72-1.26,2.76.52,2.8,1.26,2.8S84.58,22.49,84.58,20.46Z"/><path class="cls-1" d="M86.4,20.72c0-2.79,1.31-3.92,2.76-3.92a2.44,2.44,0,0,1,1.82.79l-.63.69a1.54,1.54,0,0,0-1.15-.54c-.92,0-1.69.7-1.74,2.78a2.21,2.21,0,0,1,1.59-.86,1.94,1.94,0,0,1,2,2.19,2.18,2.18,0,0,1-2.18,2.31C87.53,24.16,86.4,23.06,86.4,20.72Zm1.09.64c.12,1.31.65,1.93,1.42,1.93s1.14-.54,1.14-1.44-.44-1.35-1.21-1.35A1.69,1.69,0,0,0,87.49,21.36Z"/><path class="cls-1" d="M99.89,23v.84H91.78V23h3.53V21.83c-1.53-.11-2.47-.72-2.47-1.71s1.15-1.71,3-1.71,3,.63,3,1.71-.92,1.59-2.46,1.71V23Zm-.42-5.09H92.16v-.82h3.15V16h1v1.1h3.14Zm-3.66,3.16c1.23,0,1.94-.34,1.94-.93s-.71-.92-1.94-.92-1.93.33-1.93.92S94.59,21.05,95.81,21.05Z"/><path class="cls-1" d="M111.25,22.78v.84h-8.07v-.84H105V19.89h1v2.89h1.2V19.89h1v2.89Zm-1.86-5.26H104v-.84h6.43v.95a20.67,20.67,0,0,1-.31,4l-1-.12a19.22,19.22,0,0,0,.31-3.92Z"/><path class="cls-1" d="M120.12,21.64h-3.56V24.8h-1V21.64H112v-.83h8.08ZM119.37,20a4.52,4.52,0,0,1-3.28-2,4.51,4.51,0,0,1-3.3,2l-.39-.82c1.82-.26,3.14-1.36,3.14-2.53v-.48h1.08v.48c0,1.15,1.35,2.27,3.15,2.53Z"/><path class="cls-1" d="M124.35,22.29c.8-.05,1.61-.1,2.37-.21l.07.74a34.44,34.44,0,0,1-5.71.37l-.13-.85c.71,0,1.54,0,2.38,0v-.87a1.74,1.74,0,0,1-1.68-1.64c0-1,.9-1.66,2.19-1.66s2.18.66,2.18,1.66-.66,1.48-1.67,1.64Zm2.18-4.58h-5.4v-.82h2.2v-1h1v1h2.18Zm-2.69,3c.71,0,1.21-.33,1.21-.89s-.5-.88-1.21-.88-1.22.34-1.22.88S123.12,20.7,123.84,20.7Zm4.42-4.86v9h-1V15.84Z"/><path class="cls-1" d="M2.14,33.55H0v-1H5.43v1H3.29v6.32H2.14Z"/><path class="cls-1" d="M6.44,32.58h4.31v1H7.59v2h2.67v1H7.59V38.9h3.27v1H6.44Z"/><path class="cls-1" d="M12.14,32.58h1.15V38.9h3.08v1H12.14Z"/><path class="cls-1" d="M17.17,39.21a.76.76,0,1,1,1.52,0,.76.76,0,1,1-1.52,0Z"/><path class="cls-1" d="M21.61,36.3c0-2.39.91-3.65,2.35-3.65s2.36,1.27,2.36,3.65S25.42,40,24,40,21.61,38.68,21.61,36.3Zm3.62,0c0-2-.53-2.75-1.27-2.75s-1.27.71-1.27,2.75.53,2.8,1.27,2.8S25.23,38.34,25.23,36.3Z"/><path class="cls-1" d="M26.81,39l.56-.73a2.36,2.36,0,0,0,1.72.8c.82,0,1.39-.45,1.39-1.16s-.52-1.28-2.16-1.28v-.85c1.43,0,1.91-.52,1.91-1.2a1,1,0,0,0-1.12-1,2.06,2.06,0,0,0-1.46.69l-.59-.71a3,3,0,0,1,2.09-.89c1.31,0,2.23.67,2.23,1.84a1.71,1.71,0,0,1-1.26,1.65v0A1.82,1.82,0,0,1,31.62,38a2.16,2.16,0,0,1-2.43,2A3.05,3.05,0,0,1,26.81,39Z"/><path class="cls-1" d="M32.78,38.93h1.6V34.06H33.07v-.72a4.22,4.22,0,0,0,1.58-.56h.87v6.15h1.42v.94H32.78Z"/><path class="cls-1" d="M37.79,36.65h2.62v.85H37.79Z"/><path class="cls-1" d="M41.05,39.21c2-2,3.26-3.26,3.26-4.37a1.15,1.15,0,0,0-1.24-1.28,2,2,0,0,0-1.43.81L41,33.74a2.85,2.85,0,0,1,2.22-1.09,2,2,0,0,1,2.2,2.13c0,1.3-1.18,2.61-2.7,4.19.37,0,.84-.07,1.19-.07h1.85v1h-4.7Z"/><path class="cls-1" d="M46.86,38.93h1.6V34.06H47.15v-.72a4.22,4.22,0,0,0,1.58-.56h.86v6.15H51v.94H46.86Z"/><path class="cls-1" d="M52,39.23l.63-.71a1.5,1.5,0,0,0,1.13.55c.93,0,1.72-.71,1.77-2.79a2.17,2.17,0,0,1-1.6.86A1.93,1.93,0,0,1,51.83,35,2.18,2.18,0,0,1,54,32.65c1.4,0,2.52,1.1,2.52,3.44,0,2.79-1.31,3.91-2.75,3.91A2.43,2.43,0,0,1,52,39.23Zm2.13-2.91a1.71,1.71,0,0,0,1.37-.88c-.13-1.31-.67-1.91-1.44-1.91-.62,0-1.12.52-1.12,1.42S53.31,36.32,54.08,36.32Z"/><path class="cls-1" d="M57.27,36.65h2.61v.85H57.27Z"/><path class="cls-1" d="M60.53,39.21c2-2,3.25-3.26,3.25-4.37a1.14,1.14,0,0,0-1.23-1.28,2,2,0,0,0-1.44.81l-.64-.63a2.82,2.82,0,0,1,2.21-1.09,2,2,0,0,1,2.2,2.13c0,1.3-1.18,2.61-2.69,4.19.37,0,.83-.07,1.19-.07h1.85v1h-4.7Z"/><path class="cls-1" d="M65.92,39.21c2-2,3.26-3.26,3.26-4.37a1.15,1.15,0,0,0-1.24-1.28,2,2,0,0,0-1.43.81l-.65-.63a2.85,2.85,0,0,1,2.22-1.09,2,2,0,0,1,2.2,2.13c0,1.3-1.18,2.61-2.69,4.19.36,0,.83-.07,1.18-.07h1.85v1h-4.7Z"/><path class="cls-1" d="M74.24,38H71.08v-.76L74,32.78h1.33v4.33h.92V38h-.92v1.88H74.24Zm0-.88V35.32c0-.4,0-1,.05-1.43h0c-.18.36-.38.7-.58,1.06l-1.44,2.16Z"/><path class="cls-1" d="M76.75,36.3c0-2.39.91-3.65,2.35-3.65s2.36,1.27,2.36,3.65S80.56,40,79.1,40,76.75,38.68,76.75,36.3Zm3.62,0c0-2-.53-2.75-1.27-2.75s-1.27.71-1.27,2.75.53,2.8,1.27,2.8S80.37,38.34,80.37,36.3Z"/></g></g></g></svg>