<svg xmlns="http://www.w3.org/2000/svg" viewBox="0 0 118.12 25"><defs><style>.cls-1{fill:#999;}.cls-2{fill:#878787;}.cls-3{fill:#d9d8d6;}</style></defs><g id="레이어_2" data-name="레이어 2"><g id="AUFC_810_12_colum_grid_system" data-name="AUFC / 810 / 12 colum grid system"><g id="footer"><polygon class="cls-1" points="45.57 6.27 43.11 6.27 43.11 19.83 45.57 19.83 45.57 10.48 48.28 10.48 48.28 8.54 45.57 8.54 45.57 6.27"/><path class="cls-1" d="M79.39,8.54H77.71V6.27H75.26v6.91H69.41l-.09-.12V8.18h4.59V6.24H67v7.45h0a1.41,1.41,0,0,0,1.42,1.42h6.84V19.8h2.45V10.48h1.68V19.8h2.46V6.27H79.39Z"/><polygon class="cls-1" points="99.03 6.23 96.78 6.23 96.78 12.68 99.03 12.68 99.03 10.32 101.61 10.32 101.61 8.61 99.03 8.61 99.03 6.23"/><polygon class="cls-1" points="49.08 15.2 55.82 15.2 55.82 19.8 58.28 19.8 58.28 15.2 65.02 15.2 65.02 13.26 49.08 13.26 49.08 15.2"/><path class="cls-1" d="M57.05,9.82a4.42,4.42,0,0,0,3.63,2h3.64V10.17H61.53a2.85,2.85,0,0,1-2.79-2h5.58V6.24H49.78V8.18h5.59a2.87,2.87,0,0,1-2.8,2H49.78v1.69h3.64A4.42,4.42,0,0,0,57.05,9.82Z"/><path class="cls-1" d="M116.27,16.91V7.69h0v0A1.42,1.42,0,0,0,115,6.25H103.3V8.18H114v8.73h-2.35V10.32h-2.24v6.59h-2V10.32h-2.25v6.59H102.1v1.94h16V16.91Z"/><path class="cls-1" d="M39.44,6.57a9.91,9.91,0,0,0-6.79,0,4.38,4.38,0,0,0,0,7.86A9,9,0,0,0,36,15a9.1,9.1,0,0,0,3.4-.6,4.38,4.38,0,0,0,0-7.86ZM38,12.65a6,6,0,0,1-3.94,0,2.33,2.33,0,0,1,0-4.3,6,6,0,0,1,3.94,0,2.33,2.33,0,0,1,0,4.3Z"/><path class="cls-1" d="M99,15.17a1.42,1.42,0,0,0-1.4-1.42H84.9v1.79H96.78v4.29H99V15.18h0Z"/><path class="cls-1" d="M84.94,9.62a3.63,3.63,0,0,0,.42,1.68,3.33,3.33,0,0,0,1.82,1.33,9.41,9.41,0,0,0,2.64.24,9.41,9.41,0,0,0,2.64-.24,3.33,3.33,0,0,0,1.82-1.33,3.63,3.63,0,0,0,.42-1.68,4,4,0,0,0-.29-1.44h1.2V6.24H90.94V5.17H88.7V6.24H84V8.18h1.2A4,4,0,0,0,84.94,9.62Zm7.45.78a1.56,1.56,0,0,1-.84.62,9.46,9.46,0,0,1-1.73.11A8.54,8.54,0,0,1,88.17,11a1.56,1.56,0,0,1-.85-.62,1.62,1.62,0,0,1,0-1.56,1.51,1.51,0,0,1,.85-.62,7.81,7.81,0,0,1,1.65-.11,8.64,8.64,0,0,1,1.73.11,1.51,1.51,0,0,1,.84.62,1.62,1.62,0,0,1,0,1.56Z"/><polygon class="cls-2" points="9.05 2.99 6.36 4.37 6.53 4.7 7.67 4.12 8.07 4.89 8.48 4.68 8.08 3.9 9.22 3.32 9.05 2.99"/><path class="cls-2" d="M7.41,3.1a.82.82,0,0,0,.79,0l.61-.31-.14-.29-.47.24a.53.53,0,0,1-.64-.09L8.5,2.2l-.17-.33L5.88,3.12,6,3.45,7,3a.56.56,0,0,1-.3.58l-.48.24.15.28L7,3.76A.84.84,0,0,0,7.41,3.1Z"/><polygon class="cls-2" points="4.47 4.88 4.16 5.28 3.82 5.02 3.53 5.39 5.57 6.96 5.86 6.59 4.45 5.51 4.76 5.1 4.47 4.88"/><path class="cls-2" d="M3.15,6a1.76,1.76,0,0,0-.48.44,1.71,1.71,0,0,0-.3.58.83.83,0,0,0,1.18.9A1.61,1.61,0,0,0,4,7.46a1.66,1.66,0,0,0,.31-.58A.83.83,0,0,0,3.15,6Zm.75.91a.94.94,0,0,1-.18.34.94.94,0,0,1-.27.25.45.45,0,0,1-.49,0A.45.45,0,0,1,2.8,7,1.14,1.14,0,0,1,3,6.65a1,1,0,0,1,.28-.25.44.44,0,0,1,.48,0A.45.45,0,0,1,3.9,6.89Z"/><path class="cls-2" d="M13.29,1.22v.43H13V1.22h-.47V2.53H11.4V1.58h.87V1.21H11V2.62h0a.26.26,0,0,0,.26.26h1.3v.89H13V2h.31V3.78h.47V1.22Z"/><path class="cls-2" d="M21,8.07,22.38,7h0a.28.28,0,0,0,.06-.36h0L21.07,4.89l-.28.22,1.26,1.6-1.3,1-.28-.35,1-.78-.26-.33-1,.77L20,6.75,21,6l-.27-.34-1,.78L19.35,6l-.29.23,1.88,2.38.29-.22Z"/><polygon class="cls-2" points="18.99 3.47 18.55 3.26 18.75 2.85 18.37 2.67 17.83 3.76 18.21 3.95 18.41 3.55 18.84 3.77 18.99 3.47"/><path class="cls-2" d="M18,4.37A.26.26,0,0,0,17.88,4h0L15.71,3l-.14.3,2,1L17.23,5l.38.19L18,4.38h0Z"/><path class="cls-2" d="M16.07,2.25a.67.67,0,0,0-.07.32.59.59,0,0,0,.2.38,1.71,1.71,0,0,0,.43.26,1.64,1.64,0,0,0,.46.18.66.66,0,0,0,.43-.07.8.8,0,0,0,.21-.25.71.71,0,0,0,.07-.27l.2.1.17-.33-.8-.39L17.46,2l-.38-.19L17,2,16.2,1.6,16,1.93l.21.1A.76.76,0,0,0,16.07,2.25Zm1.2.76a.31.31,0,0,1-.2,0,2.65,2.65,0,0,1-.3-.12,1.92,1.92,0,0,1-.27-.16.26.26,0,0,1-.09-.18.34.34,0,0,1,0-.15.28.28,0,0,1,.1-.11.26.26,0,0,1,.19,0,2.65,2.65,0,0,1,.3.12,2.13,2.13,0,0,1,.28.16.36.36,0,0,1,.09.18.3.3,0,0,1,0,.15A.36.36,0,0,1,17.27,3Z"/><path class="cls-2" d="M2.15,14.16l-.08-.74-.76-.18,0-.26L3,13.45c.11,0,.24.07.27-.07h0l0,.46-1.44.79c-.16.09-.32.16-.39.34l-.05-.45Zm.92-.48-.78-.21.07.58Z"/><path class="cls-2" d="M3.22,15.2c.13,0,.34-.09.35-.25h0l.17.54h0c-.09-.12-.29,0-.42,0l-1.6.5c-.3.1-.53,0-.67-.39H1a.75.75,0,0,0,.75.06Z"/><path class="cls-2" d="M4,18.44a1.05,1.05,0,0,1-1.38-.61,1,1,0,0,1,.53-1.39,1.06,1.06,0,0,1,1.37.64A1,1,0,0,1,4,18.44Zm-.69-1.7a.81.81,0,0,0-.49,1,.72.72,0,0,0,1,.38.78.78,0,0,0,.5-1A.73.73,0,0,0,3.27,16.74Z"/><path class="cls-2" d="M4.91,20.69l.14-.14a.8.8,0,0,1-.82-.76.79.79,0,0,1,.31-.52l.55-.56c.1-.09.26-.23.21-.38l.31.3-.3.3-.56.56c-.28.27-.29.52-.07.74a.52.52,0,0,0,.45.15.35.35,0,0,0,.23-.14L6,19.61c.1-.1.26-.24.2-.39l.31.31-.3.29L5.12,20.91Z"/><path class="cls-2" d="M8.7,23l.07-.18a.77.77,0,0,1-.63,0,.78.78,0,0,1-.42-.4.75.75,0,0,1,.09-.6l.3-.73c.05-.12.15-.31,0-.43l.4.16-.16.39-.31.73c-.15.36-.06.59.22.71a.51.51,0,0,0,.48,0,.42.42,0,0,0,.16-.23l.34-.82c.05-.13.15-.32,0-.44l.4.17-.16.38L9,23.09Z"/><path class="cls-2" d="M12.14,22.06,12,23.71a.8.8,0,0,1-.39-.38l-.86-1.4-.18,1.52-.21,0,.18-1.55c0-.16,0-.28-.11-.38v0l.43.05h0a.2.2,0,0,0,0,.08l0,.06.92,1.48L11.93,22c0-.17,0-.29-.11-.4l.37,0Z"/><path class="cls-2" d="M13.12,23.62l-.07-1.53c0-.14,0-.35-.15-.4l.43,0,0,.4.07,1.53Z"/><path class="cls-2" d="M22,18.34l-1.32-.78c-.11-.07-.29-.19-.42-.09l.22-.37.35.2,1.33.78Z"/><path class="cls-2" d="M15.28,21.84c0-.22.07-.48-.13-.51h0l.43-.1-.29,2.16c-.24-.08-.31-.09-.44-.3L14.13,22a.86.86,0,0,0-.32-.36h0l.42-.1v0a1.48,1.48,0,0,0,.14.25L15.13,23Z"/><path class="cls-2" d="M16.83,22.37l-.49-1c-.06-.12-.14-.32-.3-.3h0l.85-.42a.27.27,0,0,0,.12-.07h0l.15.31h0a.41.41,0,0,0-.37.05,1.35,1.35,0,0,0-.26.15l.24.49.32-.15a.2.2,0,0,0,.1-.08h0l.14.28h0c-.08-.06-.19,0-.27,0l-.2.09.31.63.36-.13a.76.76,0,0,0,.41-.4h0l.05.41-1,.48Z"/><path class="cls-2" d="M19,21.57,18,20.37c-.08-.11-.2-.29-.35-.24h0l.56-.43c.31-.25.61-.22.77,0a.56.56,0,0,1-.05.7l.67.16a2.21,2.21,0,0,0,.63,0l-.21.16a.39.39,0,0,1-.36.1l-.56-.13-.47-.16c.16-.18.31-.43.14-.65a.33.33,0,0,0-.5,0,1,1,0,0,0-.15.14l1.07,1.37Z"/><path class="cls-2" d="M20.21,18.24a.67.67,0,0,0-.44.24c-.1.13-.19.33,0,.46.31.26,1-.53,1.38-.18a.73.73,0,0,1,0,1,1.53,1.53,0,0,1-.41.35l-.34-.17a.94.94,0,0,0,.6-.34c.11-.13.19-.39,0-.52-.35-.3-.93.54-1.42.15-.29-.24-.16-.63.07-.91A2.35,2.35,0,0,1,20,18Z"/><path class="cls-2" d="M23.51,14.36l-.84-.12-.85.38a.67.67,0,0,0-.34.23l.06-.44.92-.39L22,13.58c-.07-.06-.2-.15-.3,0h0l.07-.51,1,.87.84.12Z"/><path class="cls-2" d="M20.8,16.61l.27.21h0a.48.48,0,0,1,0-.37l.09-.24,1.62.63.11-.28-1.62-.63.1-.25c0-.09.09-.2.2-.2h0l-.28-.21Z"/><path class="cls-2" d="M12.49,0A12.5,12.5,0,1,0,25,12.49,12.5,12.5,0,0,0,12.49,0Zm0,24.63A12.13,12.13,0,1,1,24.63,12.49,12.13,12.13,0,0,1,12.49,24.63Z"/><path class="cls-2" d="M20.62,12.49A8.12,8.12,0,1,1,12.5,4.38,8.12,8.12,0,0,1,20.62,12.49Z"/><path class="cls-2" d="M3,10.44a.34.34,0,1,1-.34-.34A.34.34,0,0,1,3,10.44Z"/><path class="cls-2" d="M22.71,10.44a.34.34,0,0,1-.67,0,.34.34,0,1,1,.67,0Z"/><path class="cls-3" d="M11.05,5.56l-3.41,5a2.25,2.25,0,0,0-.14,2.38l1.78,2.74a1.12,1.12,0,0,0,.93.54h1.33A.81.81,0,0,1,11.2,16l-2-3a2,2,0,0,1-.3-1.05,2.09,2.09,0,0,1,.29-.9l1.86-2.78,2.2,3.4a.58.58,0,0,1,0,.68s-.16.16-.56,0l.77,1.19a.49.49,0,0,0,.36.19.46.46,0,0,0,.32-.19l.57-.92a1.35,1.35,0,0,0,0-1.4Z"/><path class="cls-3" d="M15.54,15.76l1.69-2.54a2.25,2.25,0,0,0,.14-2.38L14.31,6.12a1.12,1.12,0,0,0-.93-.54H12.05a.81.81,0,0,1,.34.27l3.2,4.87A2.24,2.24,0,0,1,16,11.93a2,2,0,0,1-.3.89l-1.1,1.73a.52.52,0,0,1-.38.24h-.67a.62.62,0,0,1-.38-.28L11.61,12.2a.58.58,0,0,1,0-.67s.16-.17.56,0l-.76-1.18a.5.5,0,0,0-.37-.19.44.44,0,0,0-.31.18l-.57.92a1.34,1.34,0,0,0,0,1.41l2.05,3.15a1,1,0,0,0,.69.44h1.85A.94.94,0,0,0,15.54,15.76Z"/><path class="cls-3" d="M10.43,19.19h-.27V17.44l-.31.2v-.26a2.14,2.14,0,0,0,.34-.24h.24Z"/><path class="cls-3" d="M12.22,18.17c0,.54,0,1.07-.56,1.07a.48.48,0,0,1-.5-.54h.27c0,.15.06.31.23.31s.28-.29.28-.82h0a.36.36,0,0,1-.35.19c-.17,0-.48-.08-.48-.65s.28-.63.55-.63C12.23,17.1,12.22,17.62,12.22,18.17Zm-.83-.44c0,.2,0,.43.27.43s.28-.23.28-.43,0-.43-.28-.43S11.39,17.54,11.39,17.73Z"/><path class="cls-3" d="M12.53,17.14H13.6v.23l-.55,1.82h-.31l.58-1.82h-.79Z"/><path class="cls-3" d="M14.38,18c.24,0,.42-.08.42-.34s-.08-.33-.28-.33-.27.17-.26.34H14a.47.47,0,0,1,.53-.57.49.49,0,0,1,.55.54.44.44,0,0,1-.4.47h0c.32.05.42.22.42.53a.53.53,0,0,1-.61.59.51.51,0,0,1-.53-.61h.27c0,.2,0,.38.29.38s.31-.15.31-.37-.12-.4-.44-.4Z"/></g></g></g></svg>