<svg xmlns="http://www.w3.org/2000/svg" viewBox="0 0 161.36 24.83"><defs><style>.cls-1{fill:#999;}</style></defs><g id="레이어_2" data-name="레이어 2"><g id="AUFC_810_12_colum_grid_system" data-name="AUFC / 810 / 12 colum grid system"><g id="footer"><path class="cls-1" d="M3.05,24.2a3,3,0,0,1-3-3V3A3.05,3.05,0,0,1,3.05,0h24.2A3.05,3.05,0,0,1,30.3,3V21.16a3,3,0,0,1-3.05,3Zm-.74-2.39.74.08H27.9l.08-.73V4.32L15.14,13.53,2.31,4.05ZM15.16,10.67,26.81,2.31h-23Z"/><path class="cls-1" d="M39.73,5c0-2.65,1.6-4.23,3.65-4.23a3.13,3.13,0,0,1,2.3,1l-.7.82a2.13,2.13,0,0,0-1.58-.73C42,1.88,41,3.05,41,5s.9,3.1,2.33,3.1a2.34,2.34,0,0,0,1.79-.85l.68.8a3.19,3.19,0,0,1-2.52,1.17C41.29,9.17,39.73,7.65,39.73,5Z"/><path class="cls-1" d="M46.45,4.94C46.45,2.33,47.89.77,50,.77S53.5,2.33,53.5,4.94,52.05,9.17,50,9.17,46.45,7.55,46.45,4.94Zm5.74,0c0-1.9-.88-3.06-2.22-3.06S47.76,3,47.76,4.94,48.62,8.05,50,8.05,52.19,6.83,52.19,4.94Z"/><path class="cls-1" d="M55.18.91h1.31l2.68,4.77L60,7.39h.06c-.07-.83-.17-1.81-.17-2.69V.91h1.21V9H59.81L57.13,4.25l-.85-1.7h-.05c.06.84.16,1.77.16,2.65V9H55.18Z"/><path class="cls-1" d="M64.9,2H62.53V.91h6V2H66.18V9H64.9Z"/><path class="cls-1" d="M71.09.91h1.47L75.25,9H73.89l-.68-2.31H70.39L69.7,9H68.4Zm-.4,4.8H72.9l-.32-1.09c-.27-.88-.51-1.78-.76-2.69h0c-.23.92-.49,1.81-.75,2.69Z"/><path class="cls-1" d="M75.75,5c0-2.65,1.61-4.23,3.65-4.23a3.09,3.09,0,0,1,2.3,1L81,2.61a2.15,2.15,0,0,0-1.58-.73C78,1.88,77.06,3.05,77.06,5s.9,3.1,2.33,3.1a2.38,2.38,0,0,0,1.8-.85l.68.8a3.2,3.2,0,0,1-2.52,1.17C77.31,9.17,75.75,7.65,75.75,5Z"/><path class="cls-1" d="M84.75,2H82.37V.91h6V2H86V9H84.75Z"/><path class="cls-1" d="M92.24,5.55V.91h1.28V5.63c0,1.83.72,2.42,1.73,2.42S97,7.46,97,5.63V.91h1.23V5.55c0,2.64-1.21,3.62-3,3.62S92.24,8.19,92.24,5.55Z"/><path class="cls-1" d="M99.65,8l.75-.88a3.15,3.15,0,0,0,2.16,1c1,0,1.53-.46,1.53-1.14s-.55-1-1.3-1.3l-1.12-.48A2.34,2.34,0,0,1,100,3,2.41,2.41,0,0,1,102.68.77a3.47,3.47,0,0,1,2.45,1l-.67.82a2.58,2.58,0,0,0-1.78-.73c-.83,0-1.37.4-1.37,1s.65,1,1.31,1.23l1.12.47a2.27,2.27,0,0,1,1.65,2.19c0,1.3-1.08,2.36-2.85,2.36A4.08,4.08,0,0,1,99.65,8Z"/><path class="cls-1" d="M39.7,20.62c0-1.3,1.1-2,3.62-2.25,0-.7-.26-1.32-1.15-1.32a3.34,3.34,0,0,0-1.75.62L40,16.81A4.56,4.56,0,0,1,42.39,16c1.51,0,2.2.95,2.2,2.56v3.64h-1l-.09-.69h-.05a3,3,0,0,1-1.92.83A1.67,1.67,0,0,1,39.7,20.62Zm3.62,0V19.17c-1.79.21-2.4.67-2.4,1.36s.41.83.95.83A2.11,2.11,0,0,0,43.32,20.66Z"/><path class="cls-1" d="M44.9,24.66l.23-.94a2.24,2.24,0,0,0,.55.1c.56,0,.71-.41.71-1.13V16.17h1.27v6.5c0,1.27-.49,2.16-1.83,2.16A2.41,2.41,0,0,1,44.9,24.66Zm1.33-10.38a.73.73,0,0,1,.78-.75.76.76,0,1,1-.78.75Z"/><path class="cls-1" d="M49.13,19.2a2.87,2.87,0,1,1,5.7,0,2.87,2.87,0,1,1-5.7,0Zm4.4,0c0-1.28-.59-2.14-1.55-2.14s-1.54.86-1.54,2.14S51,21.33,52,21.33,53.53,20.48,53.53,19.2Z"/><path class="cls-1" d="M56.24,20V16.17H57.5v3.65c0,1,.3,1.46,1,1.46s1-.27,1.46-.91v-4.2h1.26v6h-1l-.1-.91h0a2.5,2.5,0,0,1-2,1.05C56.8,22.36,56.24,21.52,56.24,20Z"/><path class="cls-1" d="M63.34,17.18h-.82v-.94l.82-.07v-.76c0-1.24.56-2.1,1.92-2.1a2.94,2.94,0,0,1,1.06.2l-.25,1a1.8,1.8,0,0,0-.66-.15c-.54,0-.8.35-.8,1.09v.77h1.22v1H64.61v5H63.34Z"/><path class="cls-1" d="M66.33,20.62c0-1.3,1.1-2,3.62-2.25,0-.7-.26-1.32-1.15-1.32a3.34,3.34,0,0,0-1.75.62l-.47-.86A4.56,4.56,0,0,1,69,16c1.51,0,2.2.95,2.2,2.56v3.64h-1l-.1-.69h0a3,3,0,0,1-1.92.83A1.67,1.67,0,0,1,66.33,20.62Zm3.62,0V19.17c-1.79.21-2.39.67-2.39,1.36s.4.83.94.83A2.11,2.11,0,0,0,70,20.66Z"/><path class="cls-1" d="M72.58,19.2a3,3,0,0,1,3-3.18,2.57,2.57,0,0,1,1.77.69l-.63.83a1.57,1.57,0,0,0-1.08-.48c-1,0-1.75.86-1.75,2.14s.71,2.13,1.71,2.13a2.09,2.09,0,0,0,1.32-.55l.53.84a3,3,0,0,1-2,.74A2.86,2.86,0,0,1,72.58,19.2Z"/><path class="cls-1" d="M78.62,20V16.17h1.27v3.65c0,1,.29,1.46,1,1.46.56,0,.95-.27,1.45-.91v-4.2h1.27v6h-1l-.1-.91h0a2.51,2.51,0,0,1-2,1.05C79.18,22.36,78.62,21.52,78.62,20Z"/><path class="cls-1" d="M85.52,20.8V13.45h1.26v7.42c0,.34.15.46.3.46l.21,0,.17,1a2.25,2.25,0,0,1-.69.09C85.86,22.36,85.52,21.78,85.52,20.8Z"/><path class="cls-1" d="M89,20.24V17.18h-.88v-.94l1-.07.14-1.67h1.06v1.67h1.57v1H90.26v3.07c0,.73.25,1.1.88,1.1a1.76,1.76,0,0,0,.65-.14l.23.93a3.88,3.88,0,0,1-1.19.22C89.47,22.36,89,21.52,89,20.24Z"/><path class="cls-1" d="M92.67,24.63l.24-1a1.8,1.8,0,0,0,.44.09c.66,0,1.05-.49,1.27-1.13l.12-.42-2.4-6h1.3l1.12,3.11c.17.54.36,1.15.55,1.71h0c.16-.55.32-1.16.48-1.71l1-3.11H98l-2.23,6.42c-.47,1.29-1.11,2.16-2.38,2.16A2.09,2.09,0,0,1,92.67,24.63Z"/><path class="cls-1" d="M98.8,19.7a5.3,5.3,0,0,1,5.29-5.56,3.94,3.94,0,0,1,4.17,4.2c0,2.19-1.41,3.31-2.59,3.31a1.2,1.2,0,0,1-1.32-.94h0a2.09,2.09,0,0,1-1.5.84,1.57,1.57,0,0,1-1.54-1.78c0-1.38,1-2.92,2.42-2.92a1,1,0,0,1,1,.61h0l.16-.51h.81l-.52,2.54c-.22.92,0,1.33.64,1.33s1.62-.92,1.62-2.44A3.17,3.17,0,0,0,104,15a4.48,4.48,0,0,0-4.29,4.71,3.46,3.46,0,0,0,3.66,3.73,4,4,0,0,0,2-.53l.32.73a4.77,4.77,0,0,1-2.38.61A4.21,4.21,0,0,1,98.8,19.7Zm5.32.34.33-1.88a.78.78,0,0,0-.73-.46c-.89,0-1.45,1.12-1.45,2,0,.72.34,1,.8,1S103.72,20.53,104.12,20Z"/><path class="cls-1" d="M109.48,20.62c0-1.3,1.1-2,3.62-2.25,0-.7-.27-1.32-1.16-1.32a3.34,3.34,0,0,0-1.75.62l-.47-.86a4.59,4.59,0,0,1,2.44-.79c1.51,0,2.2.95,2.2,2.56v3.64h-1l-.1-.69h0a3,3,0,0,1-1.92.83A1.66,1.66,0,0,1,109.48,20.62Zm3.62,0V19.17c-1.8.21-2.4.67-2.4,1.36s.4.83.94.83A2.15,2.15,0,0,0,113.1,20.66Z"/><path class="cls-1" d="M114.67,24.66l.23-.94a2.24,2.24,0,0,0,.55.1c.56,0,.71-.41.71-1.13V16.17h1.27v6.5c0,1.27-.48,2.16-1.83,2.16A2.45,2.45,0,0,1,114.67,24.66ZM116,14.28a.73.73,0,0,1,.78-.75.76.76,0,1,1-.78.75Z"/><path class="cls-1" d="M118.9,19.2a2.87,2.87,0,1,1,5.7,0,2.87,2.87,0,1,1-5.7,0Zm4.4,0c0-1.28-.59-2.14-1.55-2.14s-1.54.86-1.54,2.14.6,2.13,1.54,2.13S123.3,20.48,123.3,19.2Z"/><path class="cls-1" d="M126,20V16.17h1.26v3.65c0,1,.3,1.46,1,1.46.56,0,.94-.27,1.45-.91v-4.2H131v6h-1l-.1-.91h0a2.53,2.53,0,0,1-2,1.05C126.57,22.36,126,21.52,126,20Z"/><path class="cls-1" d="M132.74,21.48a.85.85,0,1,1,1.7,0,.85.85,0,1,1-1.7,0Z"/><path class="cls-1" d="M135.83,20.62c0-1.3,1.1-2,3.62-2.25,0-.7-.26-1.32-1.15-1.32a3.31,3.31,0,0,0-1.75.62l-.48-.86a4.63,4.63,0,0,1,2.45-.79c1.5,0,2.2.95,2.2,2.56v3.64h-1l-.1-.69h0a3,3,0,0,1-1.93.83A1.67,1.67,0,0,1,135.83,20.62Zm3.62,0V19.17c-1.79.21-2.4.67-2.4,1.36s.41.83.95.83A2.11,2.11,0,0,0,139.45,20.66Z"/><path class="cls-1" d="M142.08,19.2a3,3,0,0,1,3-3.18,2.57,2.57,0,0,1,1.77.69l-.62.83a1.57,1.57,0,0,0-1.08-.48c-1,0-1.75.86-1.75,2.14s.7,2.13,1.7,2.13a2,2,0,0,0,1.32-.55l.53.84a3,3,0,0,1-2,.74A2.86,2.86,0,0,1,142.08,19.2Z"/><path class="cls-1" d="M148,21.48a.85.85,0,1,1,1.7,0,.85.85,0,1,1-1.7,0Z"/><path class="cls-1" d="M151.47,13.45h1.25V19.1h0l2.34-2.93h1.41l-2,2.46,2.27,3.59h-1.37l-1.64-2.74-1,1.17v1.57h-1.25Z"/><path class="cls-1" d="M157.8,16.17h1l.1,1.09h0A2.07,2.07,0,0,1,160.68,16a1.44,1.44,0,0,1,.68.13l-.23,1.1a1.68,1.68,0,0,0-.6-.1c-.5,0-1.09.34-1.47,1.3v3.77H157.8Z"/></g></g></g></svg>