<svg xmlns="http://www.w3.org/2000/svg" viewBox="0 0 228.55 10"><defs><style>.cls-1{fill:#999;}</style></defs><g id="레이어_2" data-name="레이어 2"><g id="AUFC_810_12_colum_grid_system" data-name="AUFC / 810 / 12 colum grid system"><g id="footer"><path class="cls-1" d="M0,4.31C0,2.09,1.35.75,3.08.75A2.66,2.66,0,0,1,5,1.61l-.59.69A1.81,1.81,0,0,0,3.1,1.69c-1.18,0-2,1-2,2.59s.76,2.61,2,2.61a2,2,0,0,0,1.51-.72l.58.68A2.71,2.71,0,0,1,3,7.83C1.32,7.83,0,6.55,0,4.31Z"/><path class="cls-1" d="M5.68,5.16a2.46,2.46,0,0,1,2.4-2.68,2.46,2.46,0,0,1,2.4,2.68,2.46,2.46,0,0,1-2.4,2.67A2.46,2.46,0,0,1,5.68,5.16Zm3.71,0c0-1.08-.5-1.8-1.31-1.8s-1.3.72-1.3,1.8S7.28,7,8.08,7,9.39,6.24,9.39,5.16Z"/><path class="cls-1" d="M11.51,2.61h.87l.08.55h0a2.59,2.59,0,0,1,1.58-.68c1.29,0,2,1,2,2.59,0,1.76-1,2.76-2.2,2.76a2.05,2.05,0,0,1-1.34-.58l0,.88V9.78H11.51ZM15,5.09c0-1.06-.35-1.72-1.2-1.72a1.72,1.72,0,0,0-1.2.62V6.48a1.65,1.65,0,0,0,1.1.47C14.42,7,15,6.29,15,5.09Z"/><path class="cls-1" d="M16.66,9.74l.2-.83a2,2,0,0,0,.37.07c.56,0,.89-.41,1.07-1l.1-.35-2-5.06h1.1l.94,2.62c.15.46.31,1,.47,1.44h0l.4-1.44.82-2.62h1L19.31,8c-.4,1.09-.93,1.82-2,1.82A1.72,1.72,0,0,1,16.66,9.74Z"/><path class="cls-1" d="M21.88,2.61h.88l.08.91h0a1.77,1.77,0,0,1,1.45-1,1.18,1.18,0,0,1,.57.11l-.19.93a1.44,1.44,0,0,0-.51-.09c-.42,0-.92.29-1.24,1.1V7.71H21.88Z"/><path class="cls-1" d="M25.32,1A.61.61,0,0,1,26,.38a.62.62,0,0,1,.67.63.62.62,0,0,1-.67.64A.61.61,0,0,1,25.32,1Zm.13,1.6h1.07v5.1H25.45Z"/><path class="cls-1" d="M27.51,8.65a1.36,1.36,0,0,1,.74-1.11v0a.94.94,0,0,1-.46-.85,1.27,1.27,0,0,1,.57-1v0a1.73,1.73,0,0,1-.67-1.37,1.83,1.83,0,0,1,2-1.82,2,2,0,0,1,.74.13h1.81V3.4h-1a1.42,1.42,0,0,1,.33.94,1.74,1.74,0,0,1-1.91,1.75A1.78,1.78,0,0,1,29,5.94a.65.65,0,0,0-.28.54c0,.3.2.5.85.5h.94c1.2,0,1.84.37,1.84,1.24S31.26,10,29.62,10C28.4,10,27.51,9.55,27.51,8.65Zm3.76-.26c0-.43-.34-.56-1-.56h-.77a3.1,3.1,0,0,1-.69-.08,1,1,0,0,0-.43.75c0,.5.52.79,1.36.79S31.27,8.86,31.27,8.39ZM30.63,4.3a1,1,0,0,0-1-1.07,1,1,0,0,0-1,1.07,1,1,0,1,0,1.93,0Z"/><path class="cls-1" d="M33,.32h1.07v2l0,1a2.41,2.41,0,0,1,1.65-.8c1.09,0,1.57.72,1.57,2V7.71H36.19V4.63c0-.88-.26-1.23-.87-1.23a1.71,1.71,0,0,0-1.24.69V7.71H33Z"/><path class="cls-1" d="M38.71,6V3.46H38v-.8l.8-.05.12-1.41h.89V2.61H41.1v.85H39.78V6.05c0,.61.21.93.74.93a1.43,1.43,0,0,0,.55-.13l.19.79a3.07,3.07,0,0,1-1,.19C39.11,7.83,38.71,7.11,38.71,6Z"/><path class="cls-1" d="M43.56,5.58A4.47,4.47,0,0,1,48,.89a3.33,3.33,0,0,1,3.51,3.54c0,1.85-1.18,2.8-2.18,2.8a1,1,0,0,1-1.11-.79h0a1.73,1.73,0,0,1-1.26.7,1.32,1.32,0,0,1-1.3-1.5,2.36,2.36,0,0,1,2-2.46.89.89,0,0,1,.83.51h0l.13-.42h.68l-.43,2.14c-.19.77,0,1.12.54,1.12s1.36-.78,1.36-2.06a2.67,2.67,0,0,0-2.89-2.89,3.78,3.78,0,0,0-3.61,4,2.92,2.92,0,0,0,3.09,3.14,3.43,3.43,0,0,0,1.65-.44l.27.61a4,4,0,0,1-2,.52A3.55,3.55,0,0,1,43.56,5.58Zm4.49.29.27-1.58a.65.65,0,0,0-.61-.39c-.75,0-1.22.94-1.22,1.68s.29.86.67.86S47.71,6.28,48.05,5.87Z"/><path class="cls-1" d="M54.09,7.09c1.9-1.87,3-3,3-4.09A1.08,1.08,0,0,0,56,1.79a1.83,1.83,0,0,0-1.34.76L54,2a2.69,2.69,0,0,1,2.08-1,1.91,1.91,0,0,1,2.06,2c0,1.22-1.1,2.44-2.52,3.92.34,0,.78-.06,1.11-.06H58.5v.91H54.09Z"/><path class="cls-1" d="M59.18,4.36c0-2.24.85-3.42,2.2-3.42s2.21,1.19,2.21,3.42-.84,3.47-2.21,3.47S59.18,6.6,59.18,4.36Zm3.39,0c0-1.91-.49-2.58-1.19-2.58s-1.18.67-1.18,2.58S60.69,7,61.38,7,62.57,6.27,62.57,4.36Z"/><path class="cls-1" d="M64.6,6.83h1.49V2.26H64.86V1.59a4.24,4.24,0,0,0,1.49-.52h.81V6.83h1.33v.88H64.6Z"/><path class="cls-1" d="M69.28,6a2,2,0,0,1,1.23-1.74v0a1.88,1.88,0,0,1-.92-1.55,1.95,1.95,0,0,1,3.88,0,2.1,2.1,0,0,1-.9,1.56v0A2,2,0,0,1,73.72,6c0,1-.89,1.79-2.21,1.79A2,2,0,0,1,69.28,6Zm3.43,0C72.71,5.22,72,5,71,4.57a1.65,1.65,0,0,0-.8,1.34,1.2,1.2,0,0,0,1.3,1.15A1.06,1.06,0,0,0,72.71,6Zm-.14-3.23a1,1,0,0,0-1-1.07.93.93,0,0,0-1,1c0,.72.65,1,1.41,1.33A1.68,1.68,0,0,0,72.57,2.78Z"/><path class="cls-1" d="M80.62,3.62c0,1.81-.9,3-2.15,3s-2.15-1.14-2.15-2.95.9-3,2.15-3S80.62,1.81,80.62,3.62Zm-.92,0c0-1.31-.51-2.1-1.23-2.1s-1.23.79-1.23,2.1.5,2.09,1.23,2.09S79.7,4.93,79.7,3.62ZM84,4.11H82.73V8.43h-1V.05h1V3.32H84Z"/><path class="cls-1" d="M92.12,5.53H88.79v2.9h-1V5.53H84.55V4.76h7.58ZM85,3.4c1.59-.22,2.77-1.14,2.83-2.11H85.25V.52h6.17v.77H88.88c.06,1,1.24,1.89,2.83,2.11l-.34.75a4.09,4.09,0,0,1-3-1.82,4.09,4.09,0,0,1-3,1.82Z"/><path class="cls-1" d="M94.07,5.64a13.35,13.35,0,0,0,2.59-.23l.08.79a15.43,15.43,0,0,1-3,.23h-.55V1h3.09v.78H94.07ZM100,0V8.41h-.91V4.13h-1V8h-.9V.21h.9V3.35h1V0Z"/><path class="cls-1" d="M106.12,1.62h-5V.86h2V0h1V.86h2ZM103.64,5c-1.21,0-2-.62-2-1.52s.82-1.53,2-1.53,2,.61,2,1.53S104.85,5,103.64,5Zm-1.45.66h5.51V8.42h-1V6.47h-4.56Zm1.45-1.4c.67,0,1.12-.29,1.12-.78s-.45-.8-1.12-.8-1.11.29-1.11.8S103,4.3,103.64,4.3Zm5.25-1.22H107.7V5.29h-1V.05h1V2.29h1.19Z"/><path class="cls-1" d="M117,6.54v.79h-7.57V6.54h1.74V3.83h1V6.54h1.12V3.83h1V6.54ZM115.3,1.61h-5.08V.83h6v.88A19.39,19.39,0,0,1,116,5.5l-1-.11a17.49,17.49,0,0,0,.3-3.68Z"/><path class="cls-1" d="M127.71,6.54v.79h-7.57V6.54h1.75V3.83h.94V6.54H124V3.83h.94V6.54ZM126,1.61H120.9V.83h6v.88a18.75,18.75,0,0,1-.3,3.79l-1-.11a17.49,17.49,0,0,0,.3-3.68Z"/><path class="cls-1" d="M136,5.47h-3.33v3h-1v-3h-3.28V4.69H136Zm-.7-1.56A4.26,4.26,0,0,1,132.24,2a4.19,4.19,0,0,1-3.08,1.9l-.38-.77c1.71-.25,2.95-1.28,2.95-2.38V.32h1V.76c0,1.09,1.27,2.13,3,2.38Z"/><path class="cls-1" d="M140,6.08c.75,0,1.51-.1,2.22-.2l.07.7a33.24,33.24,0,0,1-5.36.34l-.12-.79c.67,0,1.44,0,2.23,0V5.29a1.62,1.62,0,0,1-1.57-1.53c0-.94.84-1.56,2-1.56s2,.62,2,1.56-.62,1.38-1.56,1.53Zm2-4.29H137V1H139V.07h1V1h2Zm-2.53,2.8c.67,0,1.13-.31,1.13-.83s-.46-.83-1.13-.83-1.14.32-1.14.83S138.83,4.59,139.51,4.59ZM143.65,0V8.42h-1V0Z"/><path class="cls-1" d="M148.71.87H150l2.27,6.84h-1.14l-.58-1.95h-2.37l-.59,2h-1.09Zm-.33,4.05h1.86L150,4c-.23-.74-.43-1.5-.64-2.27h0c-.2.78-.41,1.53-.63,2.27Z"/><path class="cls-1" d="M152.79,6.51V.32h1.07V6.57c0,.28.12.39.25.39l.18,0,.14.81a1.9,1.9,0,0,1-.58.08C153.08,7.83,152.79,7.34,152.79,6.51Z"/><path class="cls-1" d="M155.33,6.51V.32h1.07V6.57c0,.28.12.39.25.39l.17,0,.14.81a1.83,1.83,0,0,1-.57.08C155.62,7.83,155.33,7.34,155.33,6.51Z"/><path class="cls-1" d="M159.81.87h2.24c1.41,0,2.47.51,2.47,2a1.89,1.89,0,0,1-1.43,1.95l1.67,2.9h-1.22L162,5h-1.1V7.71h-1.08Zm2.11,3.22c1,0,1.53-.41,1.53-1.23s-.54-1.12-1.53-1.12h-1V4.09Z"/><path class="cls-1" d="M165.44,1a.61.61,0,0,1,.66-.63.62.62,0,0,1,.67.63.62.62,0,0,1-.67.64A.61.61,0,0,1,165.44,1Zm.13,1.6h1.07v5.1h-1.07Z"/><path class="cls-1" d="M167.64,8.65a1.34,1.34,0,0,1,.74-1.11v0a1,1,0,0,1-.47-.85,1.26,1.26,0,0,1,.58-1v0a1.74,1.74,0,0,1-.68-1.37,1.83,1.83,0,0,1,2-1.82,2,2,0,0,1,.74.13h1.81V3.4h-1a1.38,1.38,0,0,1,.34.94,1.75,1.75,0,0,1-1.91,1.75,1.86,1.86,0,0,1-.72-.15.68.68,0,0,0-.28.54c0,.3.21.5.86.5h.94c1.2,0,1.83.37,1.83,1.24s-1,1.78-2.67,1.78C168.53,10,167.64,9.55,167.64,8.65Zm3.75-.26c0-.43-.33-.56-.95-.56h-.77a3,3,0,0,1-.69-.08.93.93,0,0,0-.44.75c0,.5.52.79,1.37.79S171.39,8.86,171.39,8.39Zm-.64-4.09a1,1,0,1,0-1.93,0,1,1,0,1,0,1.93,0Z"/><path class="cls-1" d="M173.14.32h1.07v2l-.05,1a2.39,2.39,0,0,1,1.65-.8c1.09,0,1.57.72,1.57,2V7.71h-1.07V4.63c0-.88-.26-1.23-.86-1.23a1.71,1.71,0,0,0-1.24.69V7.71h-1.07Z"/><path class="cls-1" d="M178.84,6V3.46h-.74v-.8l.79-.05L179,1.2h.89V2.61h1.33v.85H179.9V6.05c0,.61.22.93.75.93a1.43,1.43,0,0,0,.54-.13l.2.79a3.07,3.07,0,0,1-1,.19C179.24,7.83,178.84,7.11,178.84,6Z"/><path class="cls-1" d="M181.47,7.12l.5-.68a2.33,2.33,0,0,0,1.45.58c.61,0,.9-.29.9-.68s-.57-.67-1.12-.89-1.44-.62-1.44-1.48.69-1.49,1.82-1.49a2.68,2.68,0,0,1,1.65.6l-.5.66a1.89,1.89,0,0,0-1.13-.45c-.57,0-.83.28-.83.63s.5.61,1.06.81,1.5.59,1.5,1.55-.67,1.55-1.94,1.55A3.16,3.16,0,0,1,181.47,7.12Z"/><path class="cls-1" d="M188.18.87h2.24c1.41,0,2.47.51,2.47,2a1.89,1.89,0,0,1-1.43,1.95l1.67,2.9h-1.22L190.36,5h-1.1V7.71h-1.08Zm2.11,3.22c1,0,1.53-.41,1.53-1.23s-.54-1.12-1.53-1.12h-1V4.09Z"/><path class="cls-1" d="M193.48,5.16a2.48,2.48,0,0,1,2.33-2.68c1.36,0,2.09,1,2.09,2.41a2.63,2.63,0,0,1-.06.55h-3.31A1.54,1.54,0,0,0,196.11,7a2.17,2.17,0,0,0,1.21-.38l.38.68a3.09,3.09,0,0,1-1.73.54A2.46,2.46,0,0,1,193.48,5.16ZM197,4.69c0-.87-.4-1.38-1.14-1.38a1.38,1.38,0,0,0-1.31,1.38Z"/><path class="cls-1" d="M198.32,7.12l.5-.68a2.31,2.31,0,0,0,1.45.58c.61,0,.9-.29.9-.68s-.58-.67-1.13-.89-1.43-.62-1.43-1.48.68-1.49,1.81-1.49a2.71,2.71,0,0,1,1.66.6l-.51.66a1.89,1.89,0,0,0-1.13-.45c-.56,0-.82.28-.82.63s.5.61,1,.81c.72.27,1.51.59,1.51,1.55s-.68,1.55-1.94,1.55A3.14,3.14,0,0,1,198.32,7.12Z"/><path class="cls-1" d="M202.72,5.16a2.48,2.48,0,0,1,2.33-2.68c1.35,0,2.08,1,2.08,2.41a2.72,2.72,0,0,1,0,.55h-3.31A1.53,1.53,0,0,0,205.34,7a2.17,2.17,0,0,0,1.22-.38l.37.68a3.06,3.06,0,0,1-1.73.54A2.45,2.45,0,0,1,202.72,5.16Zm3.49-.47c0-.87-.4-1.38-1.14-1.38a1.38,1.38,0,0,0-1.31,1.38Z"/><path class="cls-1" d="M208.09,2.61H209l.09.91h0a1.79,1.79,0,0,1,1.45-1,1.23,1.23,0,0,1,.58.11l-.2.93a1.36,1.36,0,0,0-.51-.09c-.41,0-.92.29-1.23,1.1V7.71h-1.07Z"/><path class="cls-1" d="M211.17,2.61h1.1l.87,2.74.45,1.52h0c.15-.5.31-1,.45-1.52l.87-2.74h1l-1.76,5.1H213Z"/><path class="cls-1" d="M216.27,5.16a2.48,2.48,0,0,1,2.33-2.68c1.35,0,2.08,1,2.08,2.41a2.72,2.72,0,0,1-.05.55h-3.31A1.53,1.53,0,0,0,218.89,7a2.17,2.17,0,0,0,1.22-.38l.37.68a3.06,3.06,0,0,1-1.72.54A2.45,2.45,0,0,1,216.27,5.16Zm3.49-.47c0-.87-.4-1.38-1.14-1.38a1.38,1.38,0,0,0-1.31,1.38Z"/><path class="cls-1" d="M221.3,5.16a2.41,2.41,0,0,1,2.19-2.68,2,2,0,0,1,1.37.57l0-.84V.32h1.06V7.71H225l-.08-.58h0a2.14,2.14,0,0,1-1.49.7C222.12,7.83,221.3,6.85,221.3,5.16Zm3.52,1.17V3.83a1.64,1.64,0,0,0-1.13-.46c-.71,0-1.29.67-1.29,1.78s.46,1.8,1.25,1.8A1.55,1.55,0,0,0,224.82,6.33Z"/><path class="cls-1" d="M227.12,7.09a.71.71,0,0,1,.71-.76.75.75,0,0,1,0,1.5A.71.71,0,0,1,227.12,7.09Z"/></g></g></g></svg>