<svg xmlns="http://www.w3.org/2000/svg" viewBox="0 0 810 200"><defs><style>.cls-1{fill:#d9d8d6;}.cls-2{fill:#999;}.cls-3{fill:#878787;}</style></defs><g id="레이어_2" data-name="레이어 2"><g id="AUFC_810_12_colum_grid_system" data-name="AUFC / 810 / 12 colum grid system"><g id="footer"><rect class="cls-1" width="810" height="200"/><polygon class="cls-2" points="720.45 151.27 717.99 151.27 717.99 164.83 720.45 164.83 720.45 155.48 723.16 155.48 723.16 153.53 720.45 153.53 720.45 151.27"/><path class="cls-2" d="M754.27,153.54h-1.68v-2.27h-2.45v6.91h-5.85l-.09-.12v-4.88h4.59v-1.94h-6.91v7.45h0a1.41,1.41,0,0,0,1.41,1.42h6.85v4.68h2.45v-9.32h1.68v9.32h2.46V151.27h-2.46Z"/><polygon class="cls-2" points="773.91 151.23 771.66 151.23 771.66 157.68 773.91 157.68 773.91 155.32 776.49 155.32 776.49 153.61 773.91 153.61 773.91 151.23"/><polygon class="cls-2" points="723.95 160.2 730.7 160.2 730.7 164.8 733.15 164.8 733.15 160.2 739.9 160.2 739.9 158.26 723.95 158.26 723.95 160.2"/><path class="cls-2" d="M731.93,154.82a4.42,4.42,0,0,0,3.63,2h3.63v-1.69h-2.78a2.87,2.87,0,0,1-2.8-2h5.58v-1.94H724.66v1.94h5.58a2.85,2.85,0,0,1-2.79,2h-2.79v1.69h3.64A4.42,4.42,0,0,0,731.93,154.82Z"/><path class="cls-2" d="M791.15,161.91v-9.22h0v0a1.42,1.42,0,0,0-1.29-1.41H778.18v1.94H788.9v8.73h-2.35v-6.59H784.3v6.59h-2v-6.59H780v6.59H777v1.94h16v-1.94Z"/><path class="cls-2" d="M714.32,151.57a9.91,9.91,0,0,0-6.79,0,4.37,4.37,0,0,0,0,7.86,9.91,9.91,0,0,0,6.79,0,4.38,4.38,0,0,0,0-7.86Zm-1.43,6.08a6,6,0,0,1-3.94,0,2.33,2.33,0,0,1,0-4.3,6,6,0,0,1,3.94,0,2.33,2.33,0,0,1,0,4.3Z"/><path class="cls-2" d="M773.91,160.17a1.42,1.42,0,0,0-1.41-1.42H759.77v1.79h11.89v4.29h2.25v-4.65h0Z"/><path class="cls-2" d="M759.81,154.62a3.56,3.56,0,0,0,.43,1.68,3.33,3.33,0,0,0,1.82,1.33,14.64,14.64,0,0,0,5.28,0,3.33,3.33,0,0,0,1.82-1.33,3.63,3.63,0,0,0,.42-1.68,4,4,0,0,0-.29-1.44h1.2v-1.94h-4.67v-1.07h-2.25v1.07h-4.66v1.94h1.2A4.13,4.13,0,0,0,759.81,154.62Zm7.46.78a1.56,1.56,0,0,1-.85.62,9.28,9.28,0,0,1-1.72.11,8.48,8.48,0,0,1-1.65-.11,1.56,1.56,0,0,1-.85-.62,1.62,1.62,0,0,1,0-1.56,1.51,1.51,0,0,1,.85-.62,7.76,7.76,0,0,1,1.65-.11,8.48,8.48,0,0,1,1.72.11,1.51,1.51,0,0,1,.85.62,1.62,1.62,0,0,1,0,1.56Z"/><polygon class="cls-3" points="683.93 147.99 681.24 149.37 681.41 149.7 682.55 149.12 682.94 149.89 683.36 149.68 682.96 148.9 684.1 148.32 683.93 147.99"/><path class="cls-3" d="M682.29,148.1a.83.83,0,0,0,.79,0l.61-.31-.14-.29-.48.24a.53.53,0,0,1-.64-.09l.94-.48-.16-.33-2.46,1.25.17.33.94-.48a.54.54,0,0,1-.3.58l-.47.24.15.28.61-.31A.84.84,0,0,0,682.29,148.1Z"/><polygon class="cls-3" points="679.35 149.88 679.04 150.28 678.7 150.02 678.41 150.39 680.45 151.96 680.73 151.59 679.33 150.51 679.64 150.1 679.35 149.88"/><path class="cls-3" d="M678,151a1.61,1.61,0,0,0-.48.44,1.54,1.54,0,0,0-.3.58.82.82,0,0,0,.3.82.83.83,0,0,0,.88.08,1.61,1.61,0,0,0,.48-.44,1.54,1.54,0,0,0,.3-.58.82.82,0,0,0-.3-.82A.83.83,0,0,0,678,151Zm.75.91a1.14,1.14,0,0,1-.18.34,1,1,0,0,1-.28.25.44.44,0,0,1-.48,0,.45.45,0,0,1-.16-.46.94.94,0,0,1,.18-.34.9.9,0,0,1,.28-.25.44.44,0,0,1,.48,0A.45.45,0,0,1,678.78,151.89Z"/><path class="cls-3" d="M688.17,146.22v.43h-.32v-.43h-.46v1.31h-1.11l0,0v-.93h.87v-.37h-1.31v1.41h0a.26.26,0,0,0,.27.26h1.3v.89h.46V147h.32v1.76h.47v-2.56Z"/><path class="cls-3" d="M695.89,153.07l1.37-1.08h0a.27.27,0,0,0,.05-.36h0L696,149.89l-.29.22,1.26,1.6-1.29,1-.28-.35,1-.78-.26-.33-1,.77-.24-.3,1-.77-.27-.34-1,.78-.36-.46-.28.23,1.88,2.38.29-.22Z"/><polygon class="cls-3" points="693.87 148.47 693.43 148.26 693.63 147.85 693.24 147.66 692.7 148.76 693.09 148.95 693.28 148.55 693.72 148.77 693.87 148.47"/><path class="cls-3" d="M692.88,149.37a.26.26,0,0,0-.12-.35h0L690.59,148l-.15.3,2,1-.35.73.38.19.39-.79h0Z"/><path class="cls-3" d="M691,147.25a.67.67,0,0,0-.07.32.61.61,0,0,0,.19.38,2.19,2.19,0,0,0,.43.26,1.8,1.8,0,0,0,.47.18.64.64,0,0,0,.42-.07.75.75,0,0,0,.22-.25,1,1,0,0,0,.07-.27l.2.1.16-.33-.79-.39.09-.18-.38-.19-.09.18-.8-.39-.16.33.2.1A.65.65,0,0,0,691,147.25Zm1.2.76a.31.31,0,0,1-.2,0,2.07,2.07,0,0,1-.3-.12,1.92,1.92,0,0,1-.27-.16.26.26,0,0,1-.09-.18.34.34,0,0,1,0-.15.28.28,0,0,1,.1-.11.26.26,0,0,1,.19,0,2,2,0,0,1,.29.12c.09,0,.24.12.29.16a.36.36,0,0,1,.09.18.3.3,0,0,1,0,.15A.36.36,0,0,1,692.15,148Z"/><path class="cls-3" d="M677,159.16l-.09-.74-.75-.18,0-.26,1.72.47c.12,0,.24.07.27-.07h0l.06.46-1.44.79c-.16.09-.32.16-.39.34l0-.45Zm.91-.48-.77-.21.07.58Z"/><path class="cls-3" d="M678.09,160.2c.13,0,.35-.09.35-.25h0l.16.54h0c-.09-.12-.29,0-.42,0l-1.61.5c-.3.1-.53,0-.67-.39h0a.75.75,0,0,0,.75.06Z"/><path class="cls-3" d="M678.83,163.44a1,1,0,0,1-1.37-.61,1,1,0,0,1,.53-1.39,1.07,1.07,0,0,1,1.37.64A1,1,0,0,1,678.83,163.44Zm-.69-1.7a.81.81,0,0,0-.48,1,.71.71,0,0,0,1,.38.78.78,0,0,0,.5-1A.73.73,0,0,0,678.14,161.74Z"/><path class="cls-3" d="M679.78,165.69l.14-.14a.75.75,0,0,1-.58-.23.72.72,0,0,1-.23-.53.78.78,0,0,1,.3-.52l.56-.56c.1-.09.26-.23.21-.38l.31.3-.31.3-.55.56c-.28.27-.29.52-.08.74a.55.55,0,0,0,.46.15c.1,0,.15-.07.23-.14l.63-.63c.09-.1.26-.24.2-.39l.31.31-.3.29L680,165.91Z"/><path class="cls-3" d="M683.57,168l.07-.18a.79.79,0,0,1-1-.39.79.79,0,0,1,.08-.6l.3-.73c.06-.12.16-.31,0-.43l.4.16-.17.39-.3.73c-.15.36-.06.59.22.71a.51.51,0,0,0,.48,0,.48.48,0,0,0,.16-.23l.33-.82c.06-.13.15-.32.05-.44l.4.17-.17.38-.58,1.41Z"/><path class="cls-3" d="M687,167.06l-.19,1.65a.8.8,0,0,1-.39-.38l-.86-1.4-.18,1.52-.21,0,.18-1.55c0-.16,0-.28-.11-.38v0l.43.05h0s0,.05,0,.08l0,.06.92,1.48.13-1.11c0-.17,0-.29-.11-.4l.37,0Z"/><path class="cls-3" d="M688,168.62l-.08-1.53c0-.14,0-.35-.15-.4l.43,0,0,.4.07,1.53Z"/><path class="cls-3" d="M696.89,163.34l-1.32-.78c-.12-.07-.29-.19-.42-.09l.22-.37.35.2,1.32.78Z"/><path class="cls-3" d="M690.15,166.84c0-.22.07-.48-.12-.51h0l.43-.1-.3,2.16c-.23-.08-.3-.09-.44-.3L689,167a.86.86,0,0,0-.32-.36h0l.42-.1v0a1,1,0,0,0,.14.25L690,168Z"/><path class="cls-3" d="M691.7,167.37l-.49-1c-.06-.12-.13-.32-.29-.3h0l.85-.42a.27.27,0,0,0,.12-.07h0l.15.31h0a.39.39,0,0,0-.36,0,1.1,1.1,0,0,0-.26.15l.24.49.31-.15a.19.19,0,0,0,.11-.08h0l.14.28h0c-.08-.06-.19,0-.27,0l-.2.09.31.63.35-.13a.75.75,0,0,0,.42-.4h0l0,.41-1,.48Z"/><path class="cls-3" d="M693.86,166.57l-.94-1.2c-.08-.11-.2-.29-.35-.24h0l.56-.43c.31-.25.61-.22.77,0a.57.57,0,0,1,0,.7l.67.16a2.21,2.21,0,0,0,.63,0l-.21.16a.41.41,0,0,1-.37.1l-.56-.13-.47-.16c.17-.18.32-.43.15-.65a.35.35,0,0,0-.51,0L693,165l1.07,1.37Z"/><path class="cls-3" d="M695.09,163.24a.67.67,0,0,0-.44.24c-.11.13-.19.33,0,.46s1-.53,1.37-.18a.71.71,0,0,1,0,1,1.53,1.53,0,0,1-.41.35l-.34-.17a1,1,0,0,0,.6-.34c.11-.13.19-.39,0-.52-.35-.3-.94.54-1.42.15-.29-.24-.16-.63.07-.91a2.35,2.35,0,0,1,.33-.3Z"/><path class="cls-3" d="M698.39,159.36l-.84-.12-.85.38a.74.74,0,0,0-.35.23l.07-.44.92-.39-.49-.44c-.07-.06-.2-.15-.3,0h0l.07-.51,1,.87.84.12Z"/><path class="cls-3" d="M695.68,161.61l.27.21h0a.59.59,0,0,1,0-.37l.1-.24,1.62.63.11-.28-1.62-.63.1-.25c0-.09.09-.2.2-.2h0l-.27-.21Z"/><path class="cls-3" d="M687.37,145a12.5,12.5,0,1,0,12.51,12.49A12.49,12.49,0,0,0,687.37,145Zm0,24.63a12.13,12.13,0,1,1,12.14-12.14A12.13,12.13,0,0,1,687.37,169.63Z"/><path class="cls-3" d="M695.5,157.49a8.12,8.12,0,1,1-8.13-8.11A8.13,8.13,0,0,1,695.5,157.49Z"/><path class="cls-3" d="M677.89,155.44a.34.34,0,0,1-.34.33.34.34,0,1,1,0-.67A.34.34,0,0,1,677.89,155.44Z"/><path class="cls-3" d="M697.59,155.44a.34.34,0,1,1-.34-.34A.34.34,0,0,1,697.59,155.44Z"/><path class="cls-1" d="M685.93,150.56l-3.41,5a2.25,2.25,0,0,0-.14,2.38l1.77,2.74a1.14,1.14,0,0,0,.93.54h1.34a.87.87,0,0,1-.35-.27l-2-3a2.16,2.16,0,0,1-.3-1.05,2.19,2.19,0,0,1,.3-.9l1.85-2.78,2.2,3.4a.59.59,0,0,1,0,.68s-.16.16-.56,0l.76,1.19a.5.5,0,0,0,.37.19.44.44,0,0,0,.31-.19l.57-.92a1.33,1.33,0,0,0,0-1.4Z"/><path class="cls-1" d="M690.42,160.76l1.69-2.54a2.25,2.25,0,0,0,.14-2.38l-3.06-4.72a1.12,1.12,0,0,0-.93-.54h-1.33a.81.81,0,0,1,.34.27l3.2,4.87a2.17,2.17,0,0,1,.36,1.21,2,2,0,0,1-.29.89l-1.1,1.73a.54.54,0,0,1-.38.24h-.67a.62.62,0,0,1-.38-.28l-1.53-2.31a.58.58,0,0,1,0-.67s.16-.17.56,0l-.77-1.18a.4.4,0,0,0-.68,0l-.57.92a1.36,1.36,0,0,0,0,1.41l2,3.15a1,1,0,0,0,.69.44h1.85A.94.94,0,0,0,690.42,160.76Z"/><path class="cls-1" d="M685.31,164.19H685v-1.75l-.31.2v-.26a2.19,2.19,0,0,0,.35-.24h.24Z"/><path class="cls-1" d="M687.09,163.17c0,.54,0,1.07-.55,1.07a.49.49,0,0,1-.51-.54h.28c0,.15.06.31.23.31s.28-.29.28-.82h0a.36.36,0,0,1-.36.19c-.16,0-.47-.08-.47-.65s.28-.63.55-.63C687.1,162.1,687.09,162.62,687.09,163.17Zm-.82-.44c0,.2,0,.43.27.43s.28-.23.28-.43-.05-.43-.28-.43S686.27,162.54,686.27,162.73Z"/><path class="cls-1" d="M687.41,162.14h1.06v.23l-.54,1.82h-.31l.57-1.82h-.78Z"/><path class="cls-1" d="M689.26,163c.24,0,.42-.08.42-.34s-.09-.33-.29-.33-.26.17-.26.34h-.27a.48.48,0,0,1,.53-.57.5.5,0,0,1,.56.54.44.44,0,0,1-.41.47h0c.33,0,.43.22.43.53a.54.54,0,0,1-.61.59.51.51,0,0,1-.53-.61h.27c0,.2,0,.38.28.38s.32-.15.32-.37-.13-.4-.44-.4Z"/><path class="cls-2" d="M17.28,164.31c0-2.22,1.36-3.56,3.08-3.56a2.64,2.64,0,0,1,1.94.86l-.58.69a1.82,1.82,0,0,0-1.34-.61c-1.18,0-2,1-2,2.59s.76,2.61,2,2.61a2,2,0,0,0,1.52-.72l.57.68a2.69,2.69,0,0,1-2.12,1C18.6,167.83,17.28,166.55,17.28,164.31Z"/><path class="cls-2" d="M23,165.16a2.42,2.42,0,1,1,2.41,2.67A2.46,2.46,0,0,1,23,165.16Zm3.71,0c0-1.08-.5-1.8-1.3-1.8s-1.3.72-1.3,1.8.5,1.8,1.3,1.8S26.67,166.24,26.67,165.16Z"/><path class="cls-2" d="M28.79,162.61h.87l.09.55h0a2.57,2.57,0,0,1,1.57-.68c1.29,0,2,1,2,2.59,0,1.76-1,2.76-2.2,2.76a2.07,2.07,0,0,1-1.35-.58l0,.88v1.65H28.79Zm3.47,2.48c0-1.06-.34-1.72-1.19-1.72a1.76,1.76,0,0,0-1.21.62v2.49A1.69,1.69,0,0,0,31,167C31.7,167,32.26,166.29,32.26,165.09Z"/><path class="cls-2" d="M33.94,169.74l.21-.83a1.74,1.74,0,0,0,.37.07c.55,0,.88-.41,1.07-1l.1-.35-2-5.06h1.1l1,2.62c.14.46.3,1,.46,1.44h0c.13-.46.27-1,.39-1.44l.82-2.62h1L36.6,168c-.4,1.09-.94,1.82-2,1.82A1.72,1.72,0,0,1,33.94,169.74Z"/><path class="cls-2" d="M39.17,162.61H40l.08.91h0a1.77,1.77,0,0,1,1.45-1,1.16,1.16,0,0,1,.57.11l-.19.93a1.44,1.44,0,0,0-.51-.09c-.42,0-.92.29-1.23,1.1v3.18H39.17Z"/><path class="cls-2" d="M42.6,161a.61.61,0,0,1,.66-.63.64.64,0,1,1-.66.63Zm.13,1.6H43.8v5.1H42.73Z"/><path class="cls-2" d="M44.79,168.65a1.35,1.35,0,0,1,.75-1.11v0a1,1,0,0,1-.47-.85,1.26,1.26,0,0,1,.58-1v0A1.71,1.71,0,0,1,45,164.3a1.83,1.83,0,0,1,2-1.82,2,2,0,0,1,.74.13H49.5v.79h-1a1.38,1.38,0,0,1,.34.94A1.75,1.75,0,0,1,47,166.09a1.79,1.79,0,0,1-.72-.15.65.65,0,0,0-.28.54c0,.3.21.5.86.5h.93c1.21,0,1.84.37,1.84,1.24s-1,1.78-2.67,1.78C45.68,170,44.79,169.55,44.79,168.65Zm3.76-.26c0-.43-.33-.56-1-.56h-.77a3,3,0,0,1-.68-.08.93.93,0,0,0-.44.75c0,.5.52.79,1.37.79S48.55,168.86,48.55,168.39Zm-.64-4.09a1,1,0,1,0-1.93,0,1,1,0,1,0,1.93,0Z"/><path class="cls-2" d="M50.3,160.32h1.06v2l0,1a2.37,2.37,0,0,1,1.65-.8c1.08,0,1.57.72,1.57,2v3.21H53.47v-3.08c0-.88-.26-1.23-.86-1.23a1.72,1.72,0,0,0-1.25.69v3.62H50.3Z"/><path class="cls-2" d="M56,166v-2.58h-.74v-.8l.8,0,.12-1.41h.89v1.41h1.33v.85H57.06v2.59c0,.61.22.93.74.93a1.43,1.43,0,0,0,.55-.13l.2.79a3.13,3.13,0,0,1-1,.19C56.39,167.83,56,167.11,56,166Z"/><path class="cls-2" d="M60.84,165.58a4.47,4.47,0,0,1,4.46-4.69,3.33,3.33,0,0,1,3.52,3.54c0,1.85-1.19,2.8-2.18,2.8a1,1,0,0,1-1.12-.79h0a1.77,1.77,0,0,1-1.26.7,1.32,1.32,0,0,1-1.3-1.5,2.35,2.35,0,0,1,2-2.46.88.88,0,0,1,.82.51h0l.13-.42h.69l-.44,2.14c-.18.77,0,1.12.54,1.12s1.36-.78,1.36-2.06a2.66,2.66,0,0,0-2.88-2.89,3.78,3.78,0,0,0-3.62,4,2.92,2.92,0,0,0,3.09,3.14,3.4,3.4,0,0,0,1.65-.44l.27.61a4,4,0,0,1-2,.52A3.56,3.56,0,0,1,60.84,165.58Zm4.49.29.28-1.58a.66.66,0,0,0-.61-.39c-.76,0-1.23.94-1.23,1.68s.29.86.68.86S65,166.28,65.33,165.87Z"/><path class="cls-2" d="M71.37,167.09c1.91-1.87,3.06-3.05,3.06-4.09a1.08,1.08,0,0,0-1.16-1.21,1.85,1.85,0,0,0-1.35.76l-.6-.59a2.68,2.68,0,0,1,2.08-1,1.91,1.91,0,0,1,2.06,2c0,1.22-1.11,2.44-2.53,3.92.35,0,.78-.06,1.12-.06h1.73v.91H71.37Z"/><path class="cls-2" d="M76.46,164.36c0-2.24.85-3.42,2.21-3.42s2.21,1.19,2.21,3.42-.85,3.47-2.21,3.47S76.46,166.6,76.46,164.36Zm3.4,0c0-1.91-.5-2.58-1.19-2.58s-1.19.67-1.19,2.58S78,167,78.67,167,79.86,166.27,79.86,164.36Z"/><path class="cls-2" d="M81.88,166.83h1.49v-4.57H82.15v-.67a4.18,4.18,0,0,0,1.48-.52h.81v5.76h1.34v.88h-3.9Z"/><path class="cls-2" d="M86.57,166a2,2,0,0,1,1.22-1.74v0a1.88,1.88,0,0,1-.92-1.55,1.77,1.77,0,0,1,1.95-1.74,1.75,1.75,0,0,1,1.93,1.78,2.07,2.07,0,0,1-.9,1.56v0A2,2,0,0,1,91,166c0,1-.89,1.79-2.21,1.79A2,2,0,0,1,86.57,166ZM90,166c0-.79-.75-1.06-1.68-1.44a1.68,1.68,0,0,0-.8,1.34,1.2,1.2,0,0,0,1.3,1.15A1.05,1.05,0,0,0,90,166Zm-.14-3.23a1,1,0,0,0-1-1.07.92.92,0,0,0-1,1c0,.72.65,1,1.41,1.33A1.66,1.66,0,0,0,89.85,162.78Z"/><path class="cls-2" d="M97.91,163.62c0,1.81-.9,2.95-2.16,2.95s-2.15-1.14-2.15-2.95.9-3,2.15-3S97.91,161.81,97.91,163.62Zm-.92,0c0-1.31-.51-2.1-1.24-2.1s-1.23.79-1.23,2.1.5,2.09,1.23,2.09S97,164.93,97,163.62Zm4.33.49H100v4.32h-1v-8.38h1v3.27h1.31Z"/><path class="cls-2" d="M109.4,165.53h-3.33v2.9h-.95v-2.9h-3.29v-.77h7.58Zm-7.15-2.13c1.6-.22,2.78-1.14,2.83-2.11h-2.55v-.77h6.17v.77h-2.53c0,1,1.23,1.89,2.83,2.11l-.35.75a4.09,4.09,0,0,1-3-1.82,4.07,4.07,0,0,1-3,1.82Z"/><path class="cls-2" d="M111.36,165.64a13.32,13.32,0,0,0,2.58-.23l.09.79a15.5,15.5,0,0,1-3,.23h-.56V161h3.1v.78h-2.16Zm5.92-5.6v8.37h-.91v-4.28h-1V168h-.9v-7.8h.9v3.14h1V160Z"/><path class="cls-2" d="M123.4,161.62h-4.94v-.76h2V160h1v.86h2ZM120.93,165c-1.21,0-2-.62-2-1.52s.83-1.53,2-1.53,2,.61,2,1.53S122.13,165,120.93,165Zm-1.45.66H125v2.72h-1v-1.95h-4.55Zm1.45-1.4c.66,0,1.12-.29,1.12-.78s-.46-.8-1.12-.8-1.12.29-1.12.8S120.26,164.3,120.93,164.3Zm5.24-1.22H125v2.21h-1v-5.24h1v2.24h1.18Z"/><path class="cls-2" d="M134.32,166.54v.79h-7.57v-.79h1.75v-2.71h.94v2.71h1.13v-2.71h.94v2.71Zm-1.74-4.93h-5.07v-.78h6v.88a18.75,18.75,0,0,1-.3,3.79l-1-.11a17.49,17.49,0,0,0,.3-3.68Z"/><path class="cls-2" d="M145,166.54v.79h-7.57v-.79h1.74v-2.71h1v2.71h1.12v-2.71h.95v2.71Zm-1.75-4.93h-5.07v-.78h6v.88a18.75,18.75,0,0,1-.3,3.79l-.95-.11a18.07,18.07,0,0,0,.29-3.68Z"/><path class="cls-2" d="M153.3,165.47H150v3H149v-3h-3.29v-.78h7.57Zm-.69-1.56a4.26,4.26,0,0,1-3.08-1.9,4.23,4.23,0,0,1-3.09,1.9l-.37-.77c1.71-.25,3-1.28,3-2.38v-.44h1v.44c0,1.09,1.26,2.13,2.95,2.38Z"/><path class="cls-2" d="M157.27,166.08c.75-.05,1.51-.1,2.23-.2l.06.7a33.19,33.19,0,0,1-5.35.34l-.12-.79c.67,0,1.43,0,2.22,0v-.81a1.62,1.62,0,0,1-1.56-1.53c0-.94.83-1.56,2.05-1.56s2,.62,2,1.56-.62,1.38-1.57,1.53Zm2-4.29h-5.07V161h2.06v-1h1v1h2Zm-2.52,2.8c.66,0,1.13-.31,1.13-.83s-.47-.83-1.13-.83-1.14.32-1.14.83S156.12,164.59,156.8,164.59Zm4.13-4.55v8.38h-1V160Z"/><path class="cls-2" d="M166,160.87h1.25l2.26,6.84h-1.14l-.58-2h-2.37l-.58,2h-1.1Zm-.33,4h1.87l-.27-.92c-.24-.74-.44-1.5-.64-2.27h-.05c-.19.78-.41,1.53-.63,2.27Z"/><path class="cls-2" d="M170.08,166.51v-6.19h1.07v6.25c0,.28.12.39.25.39l.17,0,.14.81a1.83,1.83,0,0,1-.57.08C170.37,167.83,170.08,167.34,170.08,166.51Z"/><path class="cls-2" d="M172.61,166.51v-6.19h1.07v6.25c0,.28.12.39.25.39l.18,0,.14.81a1.9,1.9,0,0,1-.58.08C172.9,167.83,172.61,167.34,172.61,166.51Z"/><path class="cls-2" d="M177.1,160.87h2.23c1.41,0,2.47.51,2.47,2a1.89,1.89,0,0,1-1.43,1.95l1.67,2.9h-1.22L179.28,165h-1.11v2.76H177.1Zm2.1,3.22c1,0,1.53-.41,1.53-1.23s-.54-1.12-1.53-1.12h-1v2.35Z"/><path class="cls-2" d="M182.73,161a.61.61,0,0,1,.66-.63.64.64,0,1,1-.66.63Zm.13,1.6h1.07v5.1h-1.07Z"/><path class="cls-2" d="M184.92,168.65a1.36,1.36,0,0,1,.74-1.11v0a.94.94,0,0,1-.46-.85,1.25,1.25,0,0,1,.57-1v0a1.73,1.73,0,0,1-.67-1.37,1.83,1.83,0,0,1,2-1.82,2,2,0,0,1,.74.13h1.81v.79h-1a1.42,1.42,0,0,1,.33.94,1.74,1.74,0,0,1-1.91,1.75,1.78,1.78,0,0,1-.71-.15.65.65,0,0,0-.28.54c0,.3.2.5.85.5h.94c1.21,0,1.84.37,1.84,1.24s-1,1.78-2.68,1.78C185.81,170,184.92,169.55,184.92,168.65Zm3.76-.26c0-.43-.34-.56-1-.56H187a3.1,3.1,0,0,1-.69-.08,1,1,0,0,0-.43.75c0,.5.52.79,1.36.79S188.68,168.86,188.68,168.39ZM188,164.3a1,1,0,0,0-1-1.07,1,1,0,0,0-1,1.07,1,1,0,1,0,1.93,0Z"/><path class="cls-2" d="M190.42,160.32h1.07v2l-.05,1a2.41,2.41,0,0,1,1.65-.8c1.09,0,1.57.72,1.57,2v3.21H193.6v-3.08c0-.88-.26-1.23-.87-1.23a1.72,1.72,0,0,0-1.24.69v3.62h-1.07Z"/><path class="cls-2" d="M196.12,166v-2.58h-.74v-.8l.8,0,.12-1.41h.89v1.41h1.32v.85h-1.32v2.59c0,.61.21.93.74.93a1.43,1.43,0,0,0,.55-.13l.19.79a3.07,3.07,0,0,1-1,.19C196.52,167.83,196.12,167.11,196.12,166Z"/><path class="cls-2" d="M198.76,167.12l.5-.68a2.31,2.31,0,0,0,1.45.58c.61,0,.9-.29.9-.68s-.58-.67-1.13-.89-1.43-.62-1.43-1.48.68-1.49,1.81-1.49a2.66,2.66,0,0,1,1.65.6l-.5.66a1.89,1.89,0,0,0-1.13-.45c-.56,0-.82.28-.82.63s.5.61,1.05.81c.72.27,1.51.59,1.51,1.55s-.68,1.55-1.94,1.55A3.14,3.14,0,0,1,198.76,167.12Z"/><path class="cls-2" d="M205.47,160.87h2.23c1.41,0,2.47.51,2.47,2a1.89,1.89,0,0,1-1.43,1.95l1.67,2.9H209.2L207.65,165h-1.11v2.76h-1.07Zm2.1,3.22c1,0,1.53-.41,1.53-1.23s-.53-1.12-1.53-1.12h-1v2.35Z"/><path class="cls-2" d="M210.77,165.16a2.48,2.48,0,0,1,2.33-2.68c1.35,0,2.08,1,2.08,2.41a2.72,2.72,0,0,1-.05.55h-3.31a1.53,1.53,0,0,0,1.57,1.55,2.17,2.17,0,0,0,1.22-.38l.37.68a3.06,3.06,0,0,1-1.73.54A2.45,2.45,0,0,1,210.77,165.16Zm3.49-.47c0-.87-.4-1.38-1.15-1.38a1.37,1.37,0,0,0-1.3,1.38Z"/><path class="cls-2" d="M215.6,167.12l.5-.68a2.33,2.33,0,0,0,1.45.58c.61,0,.9-.29.9-.68s-.57-.67-1.12-.89-1.44-.62-1.44-1.48.69-1.49,1.82-1.49a2.68,2.68,0,0,1,1.65.6l-.5.66a1.92,1.92,0,0,0-1.13-.45c-.57,0-.83.28-.83.63s.5.61,1.06.81,1.5.59,1.5,1.55-.68,1.55-1.94,1.55A3.16,3.16,0,0,1,215.6,167.12Z"/><path class="cls-2" d="M220,165.16a2.48,2.48,0,0,1,2.33-2.68c1.35,0,2.09,1,2.09,2.41a2.63,2.63,0,0,1-.06.55h-3.31a1.54,1.54,0,0,0,1.58,1.55,2.17,2.17,0,0,0,1.21-.38l.37.68a3,3,0,0,1-1.72.54A2.46,2.46,0,0,1,220,165.16Zm3.49-.47c0-.87-.4-1.38-1.14-1.38a1.38,1.38,0,0,0-1.31,1.38Z"/><path class="cls-2" d="M225.38,162.61h.87l.08.91h0a1.77,1.77,0,0,1,1.45-1,1.18,1.18,0,0,1,.57.11l-.19.93a1.44,1.44,0,0,0-.51-.09c-.42,0-.92.29-1.24,1.1v3.18h-1.06Z"/><path class="cls-2" d="M228.46,162.61h1.09l.87,2.74.45,1.52h0c.14-.5.3-1,.44-1.52l.87-2.74h1l-1.76,5.1h-1.23Z"/><path class="cls-2" d="M233.55,165.16a2.48,2.48,0,0,1,2.33-2.68c1.36,0,2.09,1,2.09,2.41a2.63,2.63,0,0,1-.06.55H234.6a1.54,1.54,0,0,0,1.58,1.55,2.17,2.17,0,0,0,1.21-.38l.37.68a3,3,0,0,1-1.72.54A2.46,2.46,0,0,1,233.55,165.16Zm3.49-.47c0-.87-.4-1.38-1.14-1.38a1.38,1.38,0,0,0-1.31,1.38Z"/><path class="cls-2" d="M238.58,165.16a2.41,2.41,0,0,1,2.19-2.68,2,2,0,0,1,1.38.57l-.05-.84v-1.89h1.06v7.39h-.87l-.08-.58h0a2.14,2.14,0,0,1-1.48.7C239.41,167.83,238.58,166.85,238.58,165.16Zm3.52,1.17v-2.5a1.6,1.6,0,0,0-1.12-.46c-.72,0-1.29.67-1.29,1.78s.45,1.8,1.25,1.8A1.51,1.51,0,0,0,242.1,166.33Z"/><path class="cls-2" d="M244.4,167.09a.72.72,0,1,1,1.43,0,.72.72,0,1,1-1.43,0Z"/><path class="cls-2" d="M25.58,95.91H22v3H21v-3H17.47v-.84h8.11Zm-7.25-3.59c0-1.21,1.29-2,3.18-2s3.17.77,3.17,2-1.29,2-3.17,2S18.33,93.53,18.33,92.32Zm1.05,0c0,.73.84,1.16,2.13,1.16s2.12-.43,2.12-1.16-.84-1.16-2.12-1.16S19.38,91.59,19.38,92.32Z"/><path class="cls-2" d="M26.29,99.84a9.65,9.65,0,0,0,0-9.5L27,90a9.44,9.44,0,0,1,0,10.12Z"/><path class="cls-2" d="M31.94,97.24h1.59V92.38H32.22v-.73a4.28,4.28,0,0,0,1.59-.55h.86v6.14h1.42v.94H31.94Z"/><path class="cls-2" d="M37,94.88C37,92.09,38.3,91,39.75,91a2.47,2.47,0,0,1,1.82.78l-.62.69a1.6,1.6,0,0,0-1.15-.53c-.92,0-1.69.69-1.74,2.77a2.21,2.21,0,0,1,1.58-.85,1.93,1.93,0,0,1,2,2.19,2.18,2.18,0,0,1-2.18,2.3C38.13,98.31,37,97.22,37,94.88Zm1.09.63c.12,1.32.64,1.93,1.41,1.93s1.14-.53,1.14-1.43-.44-1.36-1.21-1.36A1.7,1.7,0,0,0,38.09,95.51Z"/><path class="cls-2" d="M45.23,96.3H42.08v-.76L45,91.1H46.3v4.32h.92v.88H46.3v1.88H45.23Zm0-.88V93.63c0-.39,0-1,.05-1.42h0c-.17.35-.37.69-.58,1.06l-1.43,2.15Z"/><path class="cls-2" d="M47.82,97.54l.62-.7a1.53,1.53,0,0,0,1.14.54c.93,0,1.71-.71,1.76-2.79a2.12,2.12,0,0,1-1.59.86,1.93,1.93,0,0,1-2-2.18A2.18,2.18,0,0,1,49.87,91c1.39,0,2.52,1.1,2.52,3.44,0,2.8-1.31,3.91-2.75,3.91A2.4,2.4,0,0,1,47.82,97.54ZM50,94.63a1.7,1.7,0,0,0,1.36-.88c-.13-1.31-.66-1.91-1.43-1.91s-1.12.53-1.12,1.43S49.18,94.63,50,94.63Z"/><path class="cls-2" d="M53.22,97.54l.62-.7a1.52,1.52,0,0,0,1.14.54c.93,0,1.71-.71,1.76-2.79a2.14,2.14,0,0,1-1.59.86,1.93,1.93,0,0,1-2-2.18A2.18,2.18,0,0,1,55.26,91c1.4,0,2.53,1.1,2.53,3.44,0,2.8-1.32,3.91-2.75,3.91A2.38,2.38,0,0,1,53.22,97.54Zm2.12-2.91a1.71,1.71,0,0,0,1.37-.88c-.13-1.31-.66-1.91-1.44-1.91-.62,0-1.11.53-1.11,1.43S54.57,94.63,55.34,94.63Z"/><path class="cls-2" d="M68.82,92.38a5.36,5.36,0,0,1-3.8,3l-.41-.81c2.1-.58,3.26-1.68,3.44-3.07h-3v-.83h4.06a4.91,4.91,0,0,1-.08.89H70.9V90h1v5.26h-1v-1H68.73v-.83H70.9v-1ZM72,97.14c0,1.09-1.18,1.77-3,1.77s-3-.68-3-1.77,1.17-1.77,3-1.77S72,96.05,72,97.14Zm-1,0c0-.62-.77-1-2-1s-2,.34-2,1,.76,1,2,1S71,97.76,71,97.14Z"/><path class="cls-2" d="M78.12,91A6.6,6.6,0,0,1,74,97.35l-.54-.81c2.34-1.13,3.45-2.7,3.63-4.76H73.88V91ZM80.75,90V99h-1V90Z"/><path class="cls-2" d="M90.33,97v.84H82.24V97h3.52V94.93H83.23V90.68h6.11v.82H84.25v2.61h5.17v.82H86.78V97Z"/><path class="cls-2" d="M101.7,95.8H98.15V99h-1V95.8h-3.5V95h8.07ZM101,94.13a4.54,4.54,0,0,1-3.29-2,4.49,4.49,0,0,1-3.29,2l-.4-.82c1.82-.26,3.15-1.36,3.15-2.54V90.3h1.08v.47c0,1.16,1.34,2.28,3.14,2.54Z"/><path class="cls-2" d="M104.93,94.85c-.85,0-1.65.05-2.36.05l-.13-.83a50.3,50.3,0,0,0,5.73-.27l.08.73a22.17,22.17,0,0,1-2.3.26v1.72h-1Zm-1.81-2.93c0-1,.9-1.57,2.22-1.57s2.2.62,2.2,1.57-.9,1.57-2.2,1.57S103.12,92.87,103.12,91.92Zm7,6v.83h-6.45V96.14h1V98Zm-6-6c0,.51.51.82,1.25.82s1.23-.31,1.23-.82-.5-.82-1.23-.82S104.09,91.42,104.09,91.92Zm4.78,3.34V90h1v6.8h-1V96h-1.75v-.71Z"/><path class="cls-2" d="M114.65,92.22A4.35,4.35,0,0,0,117,96.14l-.59.81a4.51,4.51,0,0,1-2.22-2.68,4.69,4.69,0,0,1-2.28,2.88l-.6-.85a4.5,4.5,0,0,0,2.36-4.08V90.75h1Zm4-2.22v9h-1V90Z"/><path class="cls-2" d="M127,94.1a2.38,2.38,0,0,1-1.77.72,2.16,2.16,0,1,1,0-4.3,2.36,2.36,0,0,1,1.77.72h2.16V90h1v5.28h-1V94.1ZM125.19,94a1.29,1.29,0,1,0-1.36-1.29A1.27,1.27,0,0,0,125.19,94Zm5,3.25c0,1.09-1.16,1.74-3,1.74s-3-.65-3-1.74,1.15-1.74,3-1.74S130.18,96.12,130.18,97.21Zm-1,0c0-.6-.73-.93-2-.93s-2,.33-2,.93.74.94,2,.94S129.17,97.82,129.17,97.21Zm-1.74-5.14a2.35,2.35,0,0,1,.08.6,2,2,0,0,1-.09.61h1.7V92.07Z"/><path class="cls-2" d="M139.67,94.68v.82h-8.09v-.82h3.53V94h-2.49V90.26h6.09V91h-5.07v.67h4.85v.77h-4.85v.69h5.12V94h-2.62v.73Zm-1,2.81c0,1-1.13,1.46-3.08,1.46s-3.08-.51-3.08-1.46,1.14-1.43,3.08-1.43S138.7,96.55,138.7,97.49Zm-1,0c0-.45-.71-.68-2.06-.68s-2.05.23-2.05.68.7.69,2.05.69S137.68,98,137.68,97.49Z"/><path class="cls-2" d="M148.55,95.22H145V99h-1V95.22h-3.5v-.85h5.81a13.37,13.37,0,0,0,.26-3h-5.1v-.82h6.1v.78a15.44,15.44,0,0,1-.23,3h1.25Z"/><path class="cls-2" d="M154.14,94c-.78,0-1.52,0-2.19,0l-.12-.73a57.38,57.38,0,0,0,5.77-.21l.07.64c-.82.12-1.67.19-2.51.23v1.32h-1Zm-1.67-2.48c0-.82.89-1.33,2.23-1.33s2.22.51,2.22,1.33-.89,1.34-2.22,1.34S152.47,92.33,152.47,91.5Zm7,6.65v.72h-6.34v-2h5.07v-.6h-5.09v-.7h6.1v1.95h-5.08v.66Zm-6.08-6.65c0,.42.5.66,1.27.66s1.26-.24,1.26-.66-.5-.65-1.26-.65S153.43,91.09,153.43,91.5Zm4.8,2.71V90h1v5.22h-1v-.39h-1.68v-.63Z"/><path class="cls-2" d="M168.82,97v.84h-8.11V97Zm-.92-1.91h-6.2V90.79h6.13v.83h-5.11v2.61h5.18Z"/><path class="cls-2" d="M174.22,90.45c0,2.35-1.24,4-4.06,4.81l-.4-.82a5.12,5.12,0,0,0,2.78-1.62l-2.65.2-.15-.82,3.21-.13a3.64,3.64,0,0,0,.19-.79h-2.95v-.83ZM176,95.34h1v3.5h-5.8v-3.5h1v1H176Zm0,1.75h-3.78V98H176ZM177,90v4.93h-1V93.11h-1.78v-.84H176V90Z"/><path class="cls-2" d="M186.53,97.06v.84h-8.09v-.84H182V95.53h-2.54V92.65h5.14V91.46H179.4v-.83h6.17v2.83h-5.15v1.25h5.35v.82H183v1.53Z"/><path class="cls-2" d="M189.21,97.52c2-2,3.26-3.25,3.26-4.36a1.16,1.16,0,0,0-1.24-1.29,2,2,0,0,0-1.44.81l-.64-.63A2.87,2.87,0,0,1,191.37,91a2,2,0,0,1,2.19,2.14c0,1.29-1.17,2.6-2.69,4.18.37,0,.83-.06,1.19-.06h1.85v1h-4.7Z"/><path class="cls-2" d="M194.64,94.61c0-2.38.91-3.65,2.35-3.65s2.36,1.28,2.36,3.65-.9,3.7-2.36,3.7S194.64,97,194.64,94.61Zm3.62,0c0-2-.53-2.75-1.27-2.75s-1.27.71-1.27,2.75.53,2.8,1.27,2.8S198.26,96.65,198.26,94.61Z"/><path class="cls-2" d="M200.08,94.88c0-2.79,1.31-3.92,2.75-3.92a2.46,2.46,0,0,1,1.82.78l-.62.69a1.58,1.58,0,0,0-1.15-.53c-.92,0-1.69.69-1.74,2.77a2.23,2.23,0,0,1,1.58-.85A1.93,1.93,0,0,1,204.77,96a2.18,2.18,0,0,1-2.18,2.3C201.21,98.31,200.08,97.22,200.08,94.88Zm1.09.63c.12,1.32.64,1.93,1.42,1.93.63,0,1.13-.53,1.13-1.43s-.43-1.36-1.2-1.36A1.71,1.71,0,0,0,201.17,95.51Z"/><path class="cls-2" d="M22.15,109.66c0,1.93-1,3.15-2.29,3.15s-2.3-1.22-2.3-3.15,1-3.15,2.3-3.15S22.15,107.73,22.15,109.66Zm-1,0c0-1.39-.54-2.23-1.31-2.23s-1.32.84-1.32,2.23.53,2.24,1.32,2.24S21.17,111.06,21.17,109.66Zm4.62.53H24.4v4.61h-1v-9h1v3.5h1.39Z"/><path class="cls-2" d="M34.42,111.7H30.87v3.1h-1v-3.1H26.34v-.82h8.09Zm-7.63-2.27c1.7-.23,3-1.21,3-2.25H27.09v-.82h6.58v.82H31c.05,1,1.31,2,3,2.25l-.36.8a4.37,4.37,0,0,1-3.24-1.94,4.32,4.32,0,0,1-3.22,1.94Z"/><path class="cls-2" d="M36.5,111.82a13.56,13.56,0,0,0,2.76-.25l.09.84a16,16,0,0,1-3.25.25h-.6v-5.75h3.31v.83H36.5Zm6.33-6v8.94h-1v-4.57H40.8v4.13h-1V106h1v3.35h1.06v-3.54Z"/><path class="cls-2" d="M49.35,107.54H44.08v-.82h2.13v-.92h1v.92h2.12Zm-2.64,3.64c-1.29,0-2.17-.65-2.17-1.63s.88-1.63,2.17-1.63,2.17.66,2.17,1.63S48,111.18,46.71,111.18Zm-1.54.7h5.88v2.91H50V112.7H45.17Zm1.54-1.48c.71,0,1.2-.32,1.2-.85s-.49-.85-1.2-.85-1.19.32-1.19.85S46,110.4,46.71,110.4Zm5.6-1.31H51.05v2.36H50v-5.6h1v2.4h1.26Z"/><path class="cls-2" d="M61,112.78v.84H52.93v-.84h1.86v-2.89h1v2.89H57v-2.89h1v2.89Zm-1.86-5.26H53.73v-.84h6.44v.95a20,20,0,0,1-.32,4l-1-.12a18.63,18.63,0,0,0,.32-3.92Z"/><path class="cls-2" d="M70.26,110.29v.76h1.12v2.14H66.3v.74h5.34v.78H65.29v-2.25h5.09v-.64H65.27v-.77h1.16v-.76H64.31v-.82H72.4v.82Zm-5.09-2.8c0-1,1.18-1.55,3.19-1.55s3.18.55,3.18,1.55S70.35,109,68.36,109,65.17,108.49,65.17,107.49Zm1.06,0c0,.51.74.78,2.13.78s2.12-.27,2.12-.78-.74-.79-2.12-.79S66.23,107,66.23,107.49Zm3,2.8H67.45v.76h1.79Z"/><path class="cls-2" d="M81.26,110v.83H73.19V110h3.17v-1.74h1V110ZM74,111.76h6.18v3h-1v-2.23H74Zm5-2.37a10,10,0,0,0,.22-2.25H74.12v-.82h6.14V107a10.46,10.46,0,0,1-.23,2.49Z"/><path class="cls-2" d="M87.57,110.87a33.06,33.06,0,0,1-5.52.38l-.11-.83c.54,0,1.15,0,1.79,0v-1.83h1v1.8a25.2,25.2,0,0,0,2.78-.24Zm-1.81-1.3a12.55,12.55,0,0,0,.22-2.21H82.49v-.83H87V107a13.12,13.12,0,0,1-.22,2.64Zm-1.44,4.22h5.05v.83H83.29V112h1Zm6-5.11v.85H89.08v3h-1v-6.71h1v2.83Z"/><path class="cls-2" d="M92.82,113.37c2-2,3.25-3.26,3.25-4.37a1.16,1.16,0,0,0-1.24-1.29,2,2,0,0,0-1.43.82l-.64-.64A2.85,2.85,0,0,1,95,106.8a2,2,0,0,1,2.2,2.14c0,1.3-1.18,2.6-2.69,4.19.37,0,.83-.07,1.19-.07h1.85v1h-4.7Z"/><path class="cls-2" d="M98.24,110.46c0-2.39.91-3.66,2.36-3.66s2.35,1.28,2.35,3.66-.9,3.7-2.35,3.7S98.24,112.84,98.24,110.46Zm3.62,0c0-2-.52-2.76-1.26-2.76s-1.27.72-1.27,2.76.52,2.8,1.27,2.8S101.86,112.49,101.86,110.46Z"/><path class="cls-2" d="M103.69,110.72c0-2.79,1.3-3.92,2.75-3.92a2.44,2.44,0,0,1,1.82.79l-.62.69a1.57,1.57,0,0,0-1.15-.54c-.92,0-1.69.7-1.74,2.78a2.19,2.19,0,0,1,1.58-.86,1.94,1.94,0,0,1,2,2.19,2.18,2.18,0,0,1-2.18,2.31C104.82,114.16,103.69,113.06,103.69,110.72Zm1.09.64c.12,1.31.64,1.93,1.41,1.93s1.14-.54,1.14-1.44-.44-1.35-1.21-1.35A1.67,1.67,0,0,0,104.78,111.36Z"/><path class="cls-2" d="M117.17,113v.84h-8.11V113h3.54v-1.15c-1.54-.11-2.48-.72-2.48-1.71s1.15-1.71,3-1.71,3,.63,3,1.71-.92,1.59-2.45,1.71V113Zm-.42-5.09h-7.31v-.82h3.16V106h1v1.1h3.13Zm-3.66,3.16c1.23,0,1.94-.34,1.94-.93s-.71-.92-1.94-.92-1.93.33-1.93.92S111.87,111.05,113.09,111.05Z"/><path class="cls-2" d="M128.54,112.78v.84h-8.08v-.84h1.86v-2.89h1v2.89h1.2v-2.89h1v2.89Zm-1.86-5.26h-5.42v-.84h6.44v.95a20,20,0,0,1-.32,4l-1-.12a18.63,18.63,0,0,0,.32-3.92Z"/><path class="cls-2" d="M137.4,111.64h-3.55v3.16h-1v-3.16h-3.51v-.83h8.08Zm-.74-1.67a4.52,4.52,0,0,1-3.29-2,4.49,4.49,0,0,1-3.29,2l-.4-.82c1.82-.26,3.15-1.36,3.15-2.53v-.48h1.08v.48c0,1.15,1.34,2.27,3.14,2.53Z"/><path class="cls-2" d="M141.63,112.29c.8-.05,1.61-.1,2.38-.21l.06.74a34.38,34.38,0,0,1-5.71.37l-.12-.85c.71,0,1.53,0,2.37,0v-.87a1.73,1.73,0,0,1-1.67-1.64c0-1,.89-1.66,2.19-1.66s2.17.66,2.17,1.66-.66,1.48-1.67,1.64Zm2.19-4.58h-5.41v-.82h2.2v-1h1v1h2.19Zm-2.69,3c.71,0,1.2-.33,1.2-.89s-.49-.88-1.2-.88-1.22.34-1.22.88S140.4,110.7,141.13,110.7Zm4.41-4.86v9h-1v-9Z"/><path class="cls-2" d="M19.42,123.55H17.28v-1h5.44v1H20.57v6.32H19.42Z"/><path class="cls-2" d="M23.73,122.58H28v1H24.88v2h2.67v1H24.88v2.35h3.26v1H23.73Z"/><path class="cls-2" d="M29.42,122.58h1.15v6.32h3.09v1H29.42Z"/><path class="cls-2" d="M34.45,129.21a.77.77,0,1,1,.76.79A.77.77,0,0,1,34.45,129.21Z"/><path class="cls-2" d="M38.89,126.3c0-2.39.91-3.65,2.35-3.65s2.36,1.27,2.36,3.65-.9,3.7-2.36,3.7S38.89,128.68,38.89,126.3Zm3.62,0c0-2-.52-2.75-1.27-2.75S40,124.26,40,126.3s.52,2.8,1.26,2.8S42.51,128.34,42.51,126.3Z"/><path class="cls-2" d="M44.1,129l.55-.73a2.38,2.38,0,0,0,1.72.8c.82,0,1.39-.45,1.39-1.16s-.52-1.28-2.16-1.28v-.85c1.44,0,1.91-.52,1.91-1.2a1,1,0,0,0-1.12-1,2,2,0,0,0-1.45.69l-.6-.71a3,3,0,0,1,2.09-.89c1.31,0,2.23.67,2.23,1.84a1.71,1.71,0,0,1-1.26,1.65v0A1.82,1.82,0,0,1,48.91,128a2.17,2.17,0,0,1-2.44,2A3,3,0,0,1,44.1,129Z"/><path class="cls-2" d="M50.07,128.93h1.59v-4.87H50.35v-.72a4.28,4.28,0,0,0,1.59-.56h.86v6.15h1.42v.94H50.07Z"/><path class="cls-2" d="M55.08,126.65h2.61v.85H55.08Z"/><path class="cls-2" d="M58.34,129.21c2-2,3.25-3.26,3.25-4.37a1.15,1.15,0,0,0-1.24-1.28,2,2,0,0,0-1.43.81l-.64-.63a2.82,2.82,0,0,1,2.21-1.09,2,2,0,0,1,2.2,2.13c0,1.3-1.18,2.61-2.69,4.19a11.87,11.87,0,0,1,1.19-.07H63v1h-4.7Z"/><path class="cls-2" d="M64.15,128.93h1.59v-4.87H64.43v-.72a4.28,4.28,0,0,0,1.59-.56h.86v6.15H68.3v.94H64.15Z"/><path class="cls-2" d="M69.24,129.23l.62-.71a1.52,1.52,0,0,0,1.14.55c.93,0,1.71-.71,1.76-2.79a2.17,2.17,0,0,1-1.59.86,1.93,1.93,0,0,1-2-2.19,2.17,2.17,0,0,1,2.16-2.3c1.4,0,2.53,1.1,2.53,3.44,0,2.79-1.32,3.91-2.75,3.91A2.42,2.42,0,0,1,69.24,129.23Zm2.12-2.91a1.71,1.71,0,0,0,1.37-.88c-.13-1.31-.66-1.91-1.44-1.91-.62,0-1.11.52-1.11,1.42S70.59,126.32,71.36,126.32Z"/><path class="cls-2" d="M74.55,126.65h2.62v.85H74.55Z"/><path class="cls-2" d="M77.81,129.21c2-2,3.26-3.26,3.26-4.37a1.15,1.15,0,0,0-1.24-1.28,2,2,0,0,0-1.44.81l-.64-.63A2.84,2.84,0,0,1,80,122.65a2,2,0,0,1,2.2,2.13c0,1.3-1.18,2.61-2.7,4.19.37,0,.84-.07,1.19-.07h1.85v1h-4.7Z"/><path class="cls-2" d="M83.21,129.21c2-2,3.25-3.26,3.25-4.37a1.14,1.14,0,0,0-1.23-1.28,2,2,0,0,0-1.44.81l-.64-.63a2.82,2.82,0,0,1,2.21-1.09,2,2,0,0,1,2.2,2.13c0,1.3-1.18,2.61-2.69,4.19.37,0,.83-.07,1.19-.07h1.85v1h-4.7Z"/><path class="cls-2" d="M91.52,128H88.37v-.76l2.9-4.45h1.32v4.33h.92V128h-.92v1.88H91.52Zm0-.88v-1.79c0-.4,0-1,0-1.43h0c-.18.36-.37.7-.58,1.06l-1.44,2.16Z"/><path class="cls-2" d="M94,126.3c0-2.39.91-3.65,2.35-3.65s2.36,1.27,2.36,3.65-.9,3.7-2.36,3.7S94,128.68,94,126.3Zm3.62,0c0-2-.52-2.75-1.27-2.75s-1.26.71-1.26,2.75.52,2.8,1.26,2.8S97.65,128.34,97.65,126.3Z"/><path class="cls-2" d="M284,114.2a3,3,0,0,1-3-3V93a3.05,3.05,0,0,1,3-3h24.21a3.05,3.05,0,0,1,3.05,3v18.12a3,3,0,0,1-3.05,3Zm-.73-2.39.73.08H308.9l.08-.73V94.32l-12.84,9.21-12.83-9.48Zm12.85-11.14,11.65-8.36h-23Z"/><path class="cls-2" d="M320.72,95c0-2.65,1.61-4.23,3.66-4.23a3.13,3.13,0,0,1,2.3,1l-.7.82a2.15,2.15,0,0,0-1.58-.73C323,91.88,322,93.05,322,95s.91,3.1,2.34,3.1a2.38,2.38,0,0,0,1.79-.85l.68.8a3.19,3.19,0,0,1-2.52,1.17C322.29,99.17,320.72,97.65,320.72,95Z"/><path class="cls-2" d="M327.45,94.94c0-2.61,1.44-4.17,3.52-4.17s3.53,1.56,3.53,4.17-1.45,4.23-3.53,4.23S327.45,97.55,327.45,94.94Zm5.74,0c0-1.9-.88-3.06-2.22-3.06s-2.22,1.16-2.22,3.06.87,3.11,2.22,3.11S333.19,96.83,333.19,94.94Z"/><path class="cls-2" d="M336.18,90.91h1.31l2.68,4.77.85,1.71h.06c-.07-.83-.17-1.81-.17-2.69V90.91h1.21V99h-1.31l-2.68-4.77-.85-1.7h-.06c.07.84.17,1.77.17,2.65V99h-1.21Z"/><path class="cls-2" d="M345.9,92h-2.37V90.91h6V92h-2.39v7H345.9Z"/><path class="cls-2" d="M352.09,90.91h1.47L356.24,99h-1.35l-.68-2.31h-2.82L350.7,99h-1.3Zm-.4,4.8h2.21l-.32-1.09c-.27-.88-.52-1.78-.76-2.69h-.05c-.23.92-.49,1.81-.75,2.69Z"/><path class="cls-2" d="M356.75,95c0-2.65,1.61-4.23,3.65-4.23a3.11,3.11,0,0,1,2.3,1l-.69.82a2.17,2.17,0,0,0-1.59-.73c-1.39,0-2.36,1.17-2.36,3.07s.9,3.1,2.33,3.1a2.34,2.34,0,0,0,1.79-.85l.69.8a3.2,3.2,0,0,1-2.52,1.17C358.31,99.17,356.75,97.65,356.75,95Z"/><path class="cls-2" d="M365.75,92h-2.38V90.91h6V92H367v7h-1.27Z"/><path class="cls-2" d="M373.24,95.55V90.91h1.27v4.72c0,1.83.73,2.42,1.74,2.42s1.77-.59,1.77-2.42V90.91h1.24v4.64c0,2.64-1.21,3.62-3,3.62S373.24,98.19,373.24,95.55Z"/><path class="cls-2" d="M380.65,98l.75-.88a3.15,3.15,0,0,0,2.16,1c1,0,1.53-.46,1.53-1.14s-.55-1-1.3-1.3l-1.12-.48A2.32,2.32,0,0,1,381,93a2.41,2.41,0,0,1,2.66-2.23,3.49,3.49,0,0,1,2.45,1l-.67.82a2.6,2.6,0,0,0-1.78-.73c-.83,0-1.37.4-1.37,1s.65,1,1.31,1.23l1.11.47a2.26,2.26,0,0,1,1.65,2.19c0,1.3-1.07,2.36-2.85,2.36A4.08,4.08,0,0,1,380.65,98Z"/><path class="cls-2" d="M320.7,110.62c0-1.3,1.1-2,3.62-2.25,0-.7-.26-1.32-1.15-1.32a3.31,3.31,0,0,0-1.75.62l-.48-.86a4.63,4.63,0,0,1,2.45-.79c1.5,0,2.2,1,2.2,2.56v3.64h-1l-.1-.69h0a3,3,0,0,1-1.93.83A1.67,1.67,0,0,1,320.7,110.62Zm3.62,0v-1.49c-1.79.21-2.4.67-2.4,1.36s.41.83.95.83A2.11,2.11,0,0,0,324.32,110.66Z"/><path class="cls-2" d="M325.89,114.66l.24-.94a2.24,2.24,0,0,0,.55.1c.56,0,.71-.41.71-1.13v-6.52h1.27v6.5c0,1.27-.49,2.16-1.83,2.16A2.46,2.46,0,0,1,325.89,114.66Zm1.34-10.38a.72.72,0,0,1,.78-.75.76.76,0,1,1,0,1.51A.72.72,0,0,1,327.23,104.28Z"/><path class="cls-2" d="M330.13,109.2a2.87,2.87,0,1,1,2.85,3.16A2.91,2.91,0,0,1,330.13,109.2Zm4.4,0c0-1.28-.59-2.14-1.55-2.14s-1.54.86-1.54,2.14.59,2.13,1.54,2.13S334.53,110.48,334.53,109.2Z"/><path class="cls-2" d="M337.23,110v-3.81h1.27v3.65c0,1,.3,1.46,1,1.46s.95-.27,1.45-.91v-4.2h1.27v6h-1l-.1-.91h0a2.51,2.51,0,0,1-2,1C337.8,112.36,337.23,111.52,337.23,110Z"/><path class="cls-2" d="M344.34,107.18h-.82v-.94l.82-.07v-.76c0-1.24.56-2.1,1.92-2.1a2.94,2.94,0,0,1,1.06.2l-.25.95a1.8,1.8,0,0,0-.66-.15c-.54,0-.8.35-.8,1.09v.77h1.22v1h-1.22v5h-1.27Z"/><path class="cls-2" d="M347.33,110.62c0-1.3,1.1-2,3.62-2.25,0-.7-.26-1.32-1.15-1.32a3.34,3.34,0,0,0-1.75.62l-.47-.86A4.56,4.56,0,0,1,350,106c1.5,0,2.2,1,2.2,2.56v3.64h-1l-.1-.69h0a3,3,0,0,1-1.92.83A1.67,1.67,0,0,1,347.33,110.62Zm3.62,0v-1.49c-1.79.21-2.4.67-2.4,1.36s.41.83.95.83A2.11,2.11,0,0,0,351,110.66Z"/><path class="cls-2" d="M353.58,109.2a3,3,0,0,1,3-3.18,2.62,2.62,0,0,1,1.78.69l-.63.83a1.57,1.57,0,0,0-1.08-.48c-1,0-1.75.86-1.75,2.14s.7,2.13,1.71,2.13a2.09,2.09,0,0,0,1.32-.55l.52.84a3,3,0,0,1-2,.74A2.86,2.86,0,0,1,353.58,109.2Z"/><path class="cls-2" d="M359.62,110v-3.81h1.27v3.65c0,1,.29,1.46,1,1.46.56,0,.94-.27,1.45-.91v-4.2h1.27v6h-1l-.1-.91h0a2.53,2.53,0,0,1-2,1C360.18,112.36,359.62,111.52,359.62,110Z"/><path class="cls-2" d="M366.52,110.8v-7.35h1.26v7.42c0,.34.15.46.3.46l.21,0,.16,1a2.13,2.13,0,0,1-.68.09C366.86,112.36,366.52,111.78,366.52,110.8Z"/><path class="cls-2" d="M370,110.24v-3.06h-.88v-.94l.95-.07.14-1.67h1.06v1.67h1.57v1h-1.57v3.07c0,.73.25,1.1.88,1.1a1.76,1.76,0,0,0,.65-.14l.23.93a3.88,3.88,0,0,1-1.19.22C370.47,112.36,370,111.52,370,110.24Z"/><path class="cls-2" d="M373.67,114.63l.24-1a1.7,1.7,0,0,0,.44.09c.66,0,1-.49,1.26-1.13l.13-.42-2.4-6h1.3l1.12,3.11c.17.54.36,1.15.55,1.71h.05c.16-.55.32-1.16.48-1.71l1-3.11H379l-2.23,6.42c-.47,1.29-1.11,2.16-2.38,2.16A2.09,2.09,0,0,1,373.67,114.63Z"/><path class="cls-2" d="M379.79,109.7a5.3,5.3,0,0,1,5.3-5.56,3.94,3.94,0,0,1,4.17,4.2c0,2.19-1.41,3.31-2.59,3.31a1.2,1.2,0,0,1-1.32-.94h0a2.09,2.09,0,0,1-1.5.84,1.57,1.57,0,0,1-1.54-1.78c0-1.38,1-2.92,2.42-2.92a1,1,0,0,1,1,.61h0l.16-.51h.81l-.52,2.54c-.22.92,0,1.33.64,1.33s1.62-.92,1.62-2.44A3.17,3.17,0,0,0,385,105a4.48,4.48,0,0,0-4.29,4.71,3.46,3.46,0,0,0,3.66,3.73,4.06,4.06,0,0,0,2-.53l.32.73a4.77,4.77,0,0,1-2.38.61A4.22,4.22,0,0,1,379.79,109.7Zm5.33.34.33-1.88a.78.78,0,0,0-.73-.46c-.89,0-1.45,1.12-1.45,2,0,.72.34,1,.8,1S384.72,110.53,385.12,110Z"/><path class="cls-2" d="M390.47,110.62c0-1.3,1.1-2,3.62-2.25,0-.7-.26-1.32-1.15-1.32a3.34,3.34,0,0,0-1.75.62l-.47-.86a4.56,4.56,0,0,1,2.44-.79c1.51,0,2.2,1,2.2,2.56v3.64h-1l-.1-.69h-.05a3,3,0,0,1-1.92.83A1.67,1.67,0,0,1,390.47,110.62Zm3.62,0v-1.49c-1.79.21-2.39.67-2.39,1.36s.4.83.94.83A2.11,2.11,0,0,0,394.09,110.66Z"/><path class="cls-2" d="M395.67,114.66l.23-.94a2.24,2.24,0,0,0,.55.1c.56,0,.71-.41.71-1.13v-6.52h1.27v6.5c0,1.27-.49,2.16-1.83,2.16A2.41,2.41,0,0,1,395.67,114.66ZM397,104.28a.73.73,0,0,1,.78-.75.76.76,0,1,1-.78.75Z"/><path class="cls-2" d="M399.9,109.2a2.87,2.87,0,1,1,2.85,3.16A2.91,2.91,0,0,1,399.9,109.2Zm4.4,0c0-1.28-.59-2.14-1.55-2.14s-1.54.86-1.54,2.14.59,2.13,1.54,2.13S404.3,110.48,404.3,109.2Z"/><path class="cls-2" d="M407,110v-3.81h1.26v3.65c0,1,.3,1.46,1,1.46s1-.27,1.46-.91v-4.2H412v6h-1l-.1-.91h0a2.53,2.53,0,0,1-2,1C407.57,112.36,407,111.52,407,110Z"/><path class="cls-2" d="M413.74,111.48a.85.85,0,1,1,1.69,0,.85.85,0,1,1-1.69,0Z"/><path class="cls-2" d="M416.83,110.62c0-1.3,1.1-2,3.62-2.25,0-.7-.26-1.32-1.16-1.32a3.3,3.3,0,0,0-1.74.62l-.48-.86a4.62,4.62,0,0,1,2.44-.79c1.51,0,2.2,1,2.2,2.56v3.64h-1l-.1-.69h0a3,3,0,0,1-1.93.83A1.67,1.67,0,0,1,416.83,110.62Zm3.62,0v-1.49c-1.79.21-2.4.67-2.4,1.36s.41.83.95.83A2.13,2.13,0,0,0,420.45,110.66Z"/><path class="cls-2" d="M423.08,109.2a3,3,0,0,1,3-3.18,2.57,2.57,0,0,1,1.77.69l-.63.83a1.57,1.57,0,0,0-1.07-.48c-1,0-1.75.86-1.75,2.14s.7,2.13,1.7,2.13a2,2,0,0,0,1.32-.55l.53.84a3,3,0,0,1-2,.74A2.86,2.86,0,0,1,423.08,109.2Z"/><path class="cls-2" d="M429,111.48a.85.85,0,1,1,1.69,0,.85.85,0,1,1-1.69,0Z"/><path class="cls-2" d="M432.47,103.45h1.25v5.65h0l2.34-2.93h1.41l-2.05,2.46,2.28,3.59h-1.37l-1.64-2.74-1,1.17v1.57h-1.25Z"/><path class="cls-2" d="M438.8,106.17h1l.1,1.09h0a2.09,2.09,0,0,1,1.72-1.24,1.47,1.47,0,0,1,.68.13l-.23,1.1a1.68,1.68,0,0,0-.6-.1c-.5,0-1.09.34-1.47,1.3v3.77H438.8Z"/><path class="cls-2" d="M69.48,57.77a4.89,4.89,0,0,1-2-.38,3.78,3.78,0,0,1-1.4-1,4.37,4.37,0,0,1-.81-1.61,7.56,7.56,0,0,1-.26-2V50.6a7.73,7.73,0,0,1,.26-2A4.29,4.29,0,0,1,66,47a3.91,3.91,0,0,1,1.4-1.06,5.81,5.81,0,0,1,4.08,0A3.91,3.91,0,0,1,72.92,47a4,4,0,0,1,.81,1.61,7.33,7.33,0,0,1,.26,2v2.1a7.18,7.18,0,0,1-.26,2,4.08,4.08,0,0,1-.81,1.61,3.78,3.78,0,0,1-1.4,1,4.89,4.89,0,0,1-2,.38m0-10.15a1.88,1.88,0,0,0-1.71.83,4.72,4.72,0,0,0-.51,2.44v1.52a4.74,4.74,0,0,0,.51,2.44,2.18,2.18,0,0,0,3.42,0,4.73,4.73,0,0,0,.52-2.44V50.89a4.71,4.71,0,0,0-.52-2.44,1.88,1.88,0,0,0-1.71-.83m8.93,3h2.41v2.08H78.41V61.9H76V44.36h2.4Z"/><path class="cls-2" d="M97.73,54.19v2H90.9V61.9H88.51V56.21H81.66v-2ZM83.64,45.32H95.75v2H90.92v.15a2,2,0,0,0,.34,1.14,3.07,3.07,0,0,0,1.15.88c.62.3,1.3.61,2,.92s1.47.61,2.19.89l-.92,1.87c-.7-.28-1.38-.56-2-.85l-1.91-.85a11.56,11.56,0,0,1-1.35-.71,2.15,2.15,0,0,1-.67-.59h0a2.18,2.18,0,0,1-.71.61c-.38.23-.85.47-1.4.73l-1.9.85q-1,.43-2,.84l-.93-1.9c.72-.28,1.45-.57,2.19-.89s1.42-.62,2-.92a3.07,3.07,0,0,0,1.15-.88,1.9,1.9,0,0,0,.34-1.14v-.15H83.64Z"/><path class="cls-2" d="M106.19,46v2h-4.41v7.12h.55c.76,0,1.54,0,2.32-.06a21.07,21.07,0,0,0,2.35-.25l.25,2a18.39,18.39,0,0,1-2.44.27c-.86,0-1.69.05-2.48.05H99.42V46Zm4.12,4.32h1.54v-6h2.29V61.9h-2.29V52.39h-1.54v8.66H108V44.72h2.29Z"/><path class="cls-2" d="M122.45,46h3.79v2h-10V46h3.87V44.13h2.38Zm-1.19,9.15a5.92,5.92,0,0,1-1.77-.24,3.91,3.91,0,0,1-1.31-.64,2.92,2.92,0,0,1-.81-.95,2.52,2.52,0,0,1-.28-1.17v-.61a2.52,2.52,0,0,1,.28-1.17,2.92,2.92,0,0,1,.81-1,4.11,4.11,0,0,1,1.31-.64,5.92,5.92,0,0,1,1.77-.24,6,6,0,0,1,1.76.24,4.11,4.11,0,0,1,1.31.64,3,3,0,0,1,.82,1,2.65,2.65,0,0,1,.28,1.17v.61a2.65,2.65,0,0,1-.28,1.17,3,3,0,0,1-.82.95,3.91,3.91,0,0,1-1.31.64,6,6,0,0,1-1.76.24m-2.51,1h11.19v6h-2.38v-4h-8.81Zm2.51-5.7a2.23,2.23,0,0,0-1.44.41,1.14,1.14,0,0,0-.49.84v.38a1.14,1.14,0,0,0,.49.83,2.23,2.23,0,0,0,1.44.41,2.18,2.18,0,0,0,1.43-.41,1.11,1.11,0,0,0,.49-.83v-.38a1.11,1.11,0,0,0-.49-.84,2.18,2.18,0,0,0-1.43-.41m8.68-1.68h2.3v2.08h-2.3v4.51h-2.38v-11h2.38Z"/><path class="cls-2" d="M136.5,57.7V51.87h2.32V57.7h1.69V51.87h2.31V57.7h6.32v2H133.07v-2Zm7.68-2.15c.12-.6.2-1.17.27-1.71s.11-1.09.14-1.62,0-1.06.06-1.59,0-1.08,0-1.63V47.88H135V45.83h12v2.55c0,1.4,0,2.71-.1,3.92a31.58,31.58,0,0,1-.41,3.55Z"/><path class="cls-2" d="M157.46,57.7V51.87h2.32V57.7h1.68V51.87h2.32V57.7h6.32v2H154v-2Zm7.68-2.15q.17-.9.27-1.71c.06-.55.11-1.09.14-1.62s0-1.06.06-1.59,0-1.08,0-1.63V47.88H156V45.83h12v2.55c0,1.4,0,2.71-.1,3.92a31.58,31.58,0,0,1-.41,3.55Z"/><path class="cls-2" d="M187,54.15v2h-6.83V61.9h-2.39V56.17H171v-2Zm-8-4.38a1.82,1.82,0,0,1-.68.62,14,14,0,0,1-1.47.83l-.89.45-1,.47-1,.46L173,53l-1-2c.67-.27,1.37-.58,2.11-.92s1.42-.68,2.07-1a3.24,3.24,0,0,0,1.26-1,2.57,2.57,0,0,0,.38-1.44V45h2.41v1.66a2.57,2.57,0,0,0,.38,1.44,3.24,3.24,0,0,0,1.26,1c.65.34,1.33.68,2.07,1s1.44.65,2.1.92l-1,1.93-1-.42-1-.46-1-.47-.89-.44a15.81,15.81,0,0,1-1.43-.81,2.15,2.15,0,0,1-.65-.61Z"/><path class="cls-2" d="M188.5,56.83h2.33l2,0v-1.3a5,5,0,0,1-1.41-.44,4.13,4.13,0,0,1-1-.69,2.65,2.65,0,0,1-.58-.87,2.53,2.53,0,0,1-.19-1v-.68a2.66,2.66,0,0,1,.26-1.12,3,3,0,0,1,.81-1,4.13,4.13,0,0,1,1.34-.7,6.48,6.48,0,0,1,1.93-.26,6.39,6.39,0,0,1,1.91.26,4.24,4.24,0,0,1,1.36.7,2.82,2.82,0,0,1,.8,1,2.53,2.53,0,0,1,.27,1.12v.68a2.53,2.53,0,0,1-.19,1,2.82,2.82,0,0,1-.58.87,4,4,0,0,1-1,.69,4.76,4.76,0,0,1-1.38.44v1.26c.94,0,1.77-.06,2.5-.1s1.38-.1,2-.16l.17,2c-.54.06-1.17.11-1.88.16s-1.53.08-2.45.1-2,0-3.13.06l-3.92,0Zm4.38-10.59V44.32h2.36v1.92H199v2H188.86v-2Zm1.17,4.44a3.33,3.33,0,0,0-1,.12,1.77,1.77,0,0,0-.66.33,1.36,1.36,0,0,0-.38.46,1.18,1.18,0,0,0-.12.5v.23a1.16,1.16,0,0,0,.12.51,1.43,1.43,0,0,0,.38.45,1.77,1.77,0,0,0,.66.33,3.33,3.33,0,0,0,1,.12,2.37,2.37,0,0,0,1.6-.45,1.29,1.29,0,0,0,.51-1v-.23a1.29,1.29,0,0,0-.51-1,2.37,2.37,0,0,0-1.6-.45M203,61.9h-2.35V44.36H203Z"/><polygon class="cls-2" points="24.69 70 29.51 70 29.51 65.68 48.09 65.68 48.09 70 52.91 70 52.91 61.33 24.69 61.33 24.69 70"/><path class="cls-2" d="M35,34A18,18,0,0,0,17,51.06l0,.82V70H21.8V51.69a13.18,13.18,0,0,1,26.35.3v2.15H29.43V52a5.54,5.54,0,0,1,10.92-1.36l.06.22h4.86l0-.32A10.36,10.36,0,0,0,24.61,52v6.51H53V52A18,18,0,0,0,35,34Z"/></g></g></g></svg>