<svg xmlns="http://www.w3.org/2000/svg" viewBox="0 0 810 170"><defs><style>.cls-1{fill:#006937;}.cls-2{fill:#cfddbb;}</style></defs><g id="레이어_2" data-name="레이어 2"><g id="AUFC_810_12_colum_grid_system" data-name="AUFC / 810 / 12 colum grid system"><g id="header"><path class="cls-1" d="M0,0V150H360V134.62l.06-2A45,45,0,0,1,450,135l0,15H810V0Z"/><polygon class="cls-2" points="24.5 125 29.18 125 29.18 120.8 47.25 120.8 47.25 125 51.94 125 51.94 116.57 24.5 116.57 24.5 125"/><path class="cls-2" d="M34.5,90A17.5,17.5,0,0,0,17,106.59h0V125h4.69V107.2a12.81,12.81,0,0,1,25.62.29v2.09H29.11v-2.1a5.39,5.39,0,0,1,10.62-1.32l.05.21h4.73l0-.31a10.07,10.07,0,0,0-20,1.42v6.33H52V107.5A17.52,17.52,0,0,0,34.5,90Z"/><path class="cls-2" d="M80.28,120.26h-.65l-.48-1.33H77.41l-.47,1.33H76.3L78,115.74h.6ZM77.6,118.4H79l-.38-1.06-.08-.24a1.72,1.72,0,0,1-.07-.21l-.07-.2-.08-.26-.08.26c0,.08,0,.14-.06.21s0,.13-.07.2l-.08.24Z"/><path class="cls-2" d="M82.87,119a1.89,1.89,0,0,1-.1.63,1,1,0,0,1-.28.4,1,1,0,0,1-.41.22,2.2,2.2,0,0,1-.53.06,2.13,2.13,0,0,1-.53-.08,1.28,1.28,0,0,1-.51-.29l.29-.49a1.16,1.16,0,0,0,.38.22,1.18,1.18,0,0,0,.39.07.61.61,0,0,0,.51-.2,1.06,1.06,0,0,0,.16-.67v-3.15h.63Z"/><path class="cls-2" d="M85.59,120.33a2.23,2.23,0,0,1-.75-.12,1.6,1.6,0,0,1-.58-.37,1.8,1.8,0,0,1-.38-.63,2.49,2.49,0,0,1-.13-.87v-.68a2.57,2.57,0,0,1,.13-.87,1.75,1.75,0,0,1,.38-.62,1.62,1.62,0,0,1,.58-.38,2.37,2.37,0,0,1,1.49,0,1.62,1.62,0,0,1,.58.38,1.75,1.75,0,0,1,.38.62,2.56,2.56,0,0,1,.14.87v.68a2.48,2.48,0,0,1-.14.87,1.8,1.8,0,0,1-.38.63,1.6,1.6,0,0,1-.58.37,2.25,2.25,0,0,1-.74.12m0-4.1a1.3,1.3,0,0,0-.49.09.84.84,0,0,0-.38.26,1.17,1.17,0,0,0-.25.47,2,2,0,0,0-.1.68v.54a2,2,0,0,0,.1.68,1.17,1.17,0,0,0,.25.47.84.84,0,0,0,.38.26,1.3,1.3,0,0,0,.49.09,1.28,1.28,0,0,0,.48-.09.93.93,0,0,0,.39-.26,1.3,1.3,0,0,0,.25-.47,2.24,2.24,0,0,0,.09-.68v-.54a2.24,2.24,0,0,0-.09-.68,1.3,1.3,0,0,0-.25-.47.93.93,0,0,0-.39-.26,1.28,1.28,0,0,0-.48-.09"/><path class="cls-2" d="M91.63,115.74v2.71a2.79,2.79,0,0,1-.11.87,1.36,1.36,0,0,1-.33.59,1.12,1.12,0,0,1-.52.32,2.28,2.28,0,0,1-.72.1,2.17,2.17,0,0,1-.71-.1,1.15,1.15,0,0,1-.53-.32,1.6,1.6,0,0,1-.33-.59,3.12,3.12,0,0,1-.11-.87v-2.71h.62v2.63A2.93,2.93,0,0,0,89,119a1.05,1.05,0,0,0,.2.44.78.78,0,0,0,.33.24,1.61,1.61,0,0,0,.94,0,.76.76,0,0,0,.34-.24A1.19,1.19,0,0,0,91,119a2.93,2.93,0,0,0,.06-.65v-2.63Z"/><path class="cls-2" d="M97.5,115.74v2.71a3.12,3.12,0,0,1-.11.87,1.6,1.6,0,0,1-.33.59,1.15,1.15,0,0,1-.53.32,2.21,2.21,0,0,1-.71.1,2.28,2.28,0,0,1-.72-.1,1.2,1.2,0,0,1-.53-.32,1.45,1.45,0,0,1-.32-.59,2.77,2.77,0,0,1-.12-.87v-2.71h.63v2.63a2.93,2.93,0,0,0,.06.65,1.19,1.19,0,0,0,.19.44.76.76,0,0,0,.34.24,1.33,1.33,0,0,0,.47.07,1.37,1.37,0,0,0,.47-.07.78.78,0,0,0,.33-.24,1.2,1.2,0,0,0,.2-.44,2.93,2.93,0,0,0,.06-.65v-2.63Z"/><path class="cls-2" d="M99.2,115.74l1.76,3.05.15.28c.06.12.11.24.17.38v-3.71h.57v4.52h-.71l-1.76-3c0-.08-.1-.18-.16-.29s-.11-.24-.16-.37v3.7h-.58v-4.52Z"/><rect class="cls-2" x="102.88" y="115.74" width="0.62" height="4.53"/><polygon class="cls-2" points="104.82 115.74 106.14 119.48 107.48 115.74 108.12 115.74 106.41 120.26 105.83 120.26 104.14 115.74 104.82 115.74"/><polygon class="cls-2" points="111.58 115.74 111.58 116.27 109.38 116.27 109.38 117.68 111.45 117.68 111.45 118.21 109.38 118.21 109.38 119.73 111.63 119.73 111.63 120.26 108.76 120.26 108.76 115.74 111.58 115.74"/><path class="cls-2" d="M113.14,120.26h-.62v-4.52h1.64a1.91,1.91,0,0,1,.61.09,1.24,1.24,0,0,1,.45.26,1,1,0,0,1,.28.39,1.13,1.13,0,0,1,.1.49v.17a1.11,1.11,0,0,1-.2.67,1.12,1.12,0,0,1-.56.44l.9,2h-.67l-.82-1.89h-1.11Zm0-2.41H114a1.14,1.14,0,0,0,.75-.2.67.67,0,0,0,.22-.53V117a.67.67,0,0,0-.22-.53,1,1,0,0,0-.69-.19h-.93Z"/><path class="cls-2" d="M118,119.77a1.14,1.14,0,0,0,.73-.2.57.57,0,0,0,.24-.46V119a.76.76,0,0,0,0-.27.52.52,0,0,0-.17-.2,1.27,1.27,0,0,0-.31-.16,2.92,2.92,0,0,0-.46-.13,4.75,4.75,0,0,1-.6-.16,1.78,1.78,0,0,1-.48-.23,1,1,0,0,1-.31-.35,1,1,0,0,1-.12-.52v-.11a1.13,1.13,0,0,1,.09-.45,1.2,1.2,0,0,1,.29-.39,1.64,1.64,0,0,1,.49-.27,2,2,0,0,1,.68-.1,2.59,2.59,0,0,1,.76.1,2.07,2.07,0,0,1,.62.29l-.29.49a1.72,1.72,0,0,0-.51-.25,2,2,0,0,0-.57-.07,1.14,1.14,0,0,0-.68.18.57.57,0,0,0-.26.46v.1a.54.54,0,0,0,.07.27.61.61,0,0,0,.2.19,1.26,1.26,0,0,0,.33.14l.44.12a2.9,2.9,0,0,1,.7.22,1.39,1.39,0,0,1,.45.28.84.84,0,0,1,.25.35,1.42,1.42,0,0,1,.07.42v.12a1.13,1.13,0,0,1-.12.54,1.32,1.32,0,0,1-.34.4,1.5,1.5,0,0,1-.51.23,2.27,2.27,0,0,1-.65.08,2.52,2.52,0,0,1-1.57-.53l.31-.51.29.18.33.16a2.3,2.3,0,0,0,.35.1,1.2,1.2,0,0,0,.31,0"/><rect class="cls-2" x="120.44" y="115.74" width="0.62" height="4.53"/><polygon class="cls-2" points="123.06 120.26 123.06 116.27 121.67 116.27 121.67 115.74 125.06 115.74 125.06 116.27 123.68 116.27 123.68 120.26 123.06 120.26"/><polygon class="cls-2" points="127.44 118.44 127.44 120.26 126.82 120.26 126.82 118.44 125.26 115.74 125.95 115.74 127.14 117.85 128.29 115.74 128.99 115.74 127.44 118.44"/><polygon class="cls-2" points="134.41 115.74 134.41 116.27 132.23 116.27 132.23 117.78 134.28 117.78 134.28 118.32 132.23 118.32 132.23 120.26 131.61 120.26 131.61 115.74 134.41 115.74"/><path class="cls-2" d="M138.51,120.26h-.65l-.48-1.33h-1.73l-.48,1.33h-.63l1.68-4.52h.6Zm-2.67-1.86h1.35l-.37-1.06c0-.09-.07-.18-.09-.24a1.72,1.72,0,0,1-.07-.21c0-.06,0-.13-.07-.2s0-.16-.07-.26c0,.1-.07.19-.09.26l-.06.21c0,.06,0,.13-.07.2l-.08.24Z"/><path class="cls-2" d="M142.33,119.76a2,2,0,0,1-.74.45,3,3,0,0,1-.86.12,2.17,2.17,0,0,1-.74-.12,1.56,1.56,0,0,1-.57-.37,1.64,1.64,0,0,1-.37-.63,2.48,2.48,0,0,1-.14-.87v-.68a2.56,2.56,0,0,1,.14-.87,1.6,1.6,0,0,1,.37-.62,1.54,1.54,0,0,1,.58-.38,2.11,2.11,0,0,1,.73-.12,2.86,2.86,0,0,1,.82.11,2.11,2.11,0,0,1,.67.37l-.32.51a1.58,1.58,0,0,0-.58-.33,1.92,1.92,0,0,0-.59-.09,1.19,1.19,0,0,0-.47.09,1,1,0,0,0-.38.27,1.24,1.24,0,0,0-.25.47,2.22,2.22,0,0,0-.09.67v.52a2.22,2.22,0,0,0,.09.67,1.24,1.24,0,0,0,.25.47,1,1,0,0,0,.38.27,1.19,1.19,0,0,0,.47.09,2.44,2.44,0,0,0,.65-.1,1.59,1.59,0,0,0,.61-.38Z"/><path class="cls-2" d="M146.41,115.74v2.71a2.79,2.79,0,0,1-.11.87,1.36,1.36,0,0,1-.33.59,1.12,1.12,0,0,1-.52.32,2.64,2.64,0,0,1-1.44,0,1.17,1.17,0,0,1-.52-.32,1.47,1.47,0,0,1-.33-.59,2.79,2.79,0,0,1-.11-.87v-2.71h.62v2.63a2.93,2.93,0,0,0,.06.65,1.05,1.05,0,0,0,.2.44.73.73,0,0,0,.33.24,1.61,1.61,0,0,0,.94,0,.68.68,0,0,0,.33-.24,1.05,1.05,0,0,0,.2-.44,2.93,2.93,0,0,0,.06-.65v-2.63Z"/><polygon class="cls-2" points="148.01 115.74 148.01 119.73 150.18 119.73 150.18 120.26 147.39 120.26 147.39 115.74 148.01 115.74"/><polygon class="cls-2" points="151.41 120.26 151.41 116.27 150.03 116.27 150.03 115.74 153.42 115.74 153.42 116.27 152.03 116.27 152.03 120.26 151.41 120.26"/><polygon class="cls-2" points="155.8 118.44 155.8 120.26 155.18 120.26 155.18 118.44 153.62 115.74 154.31 115.74 155.5 117.85 156.65 115.74 157.34 115.74 155.8 118.44"/><path class="cls-2" d="M162.81,119.76a2.14,2.14,0,0,1-.74.45,3,3,0,0,1-.87.12,2.21,2.21,0,0,1-.74-.12,1.56,1.56,0,0,1-.57-.37,1.78,1.78,0,0,1-.37-.63,2.49,2.49,0,0,1-.13-.87v-.68a2.57,2.57,0,0,1,.13-.87,1.74,1.74,0,0,1,.37-.62,1.72,1.72,0,0,1,.58-.38,2.15,2.15,0,0,1,.73-.12,2.93,2.93,0,0,1,.83.11,2.22,2.22,0,0,1,.67.37l-.32.51a1.61,1.61,0,0,0-.59-.33,1.87,1.87,0,0,0-.59-.09,1.19,1.19,0,0,0-.47.09,1.1,1.1,0,0,0-.38.27,1.23,1.23,0,0,0-.24.47,2.22,2.22,0,0,0-.09.67v.52a2.22,2.22,0,0,0,.09.67,1.23,1.23,0,0,0,.24.47,1.1,1.1,0,0,0,.38.27,1.19,1.19,0,0,0,.47.09,2.51,2.51,0,0,0,.66-.1,1.67,1.67,0,0,0,.61-.38Z"/><path class="cls-2" d="M165.27,120.33a2.17,2.17,0,0,1-.74-.12,1.6,1.6,0,0,1-.58-.37,1.8,1.8,0,0,1-.38-.63,2.48,2.48,0,0,1-.14-.87v-.68a2.56,2.56,0,0,1,.14-.87,1.75,1.75,0,0,1,.38-.62,1.62,1.62,0,0,1,.58-.38,2.37,2.37,0,0,1,1.49,0,1.62,1.62,0,0,1,.58.38,1.75,1.75,0,0,1,.38.62,2.57,2.57,0,0,1,.13.87v.68a2.49,2.49,0,0,1-.13.87,1.8,1.8,0,0,1-.38.63,1.6,1.6,0,0,1-.58.37,2.27,2.27,0,0,1-.75.12m0-4.1a1.28,1.28,0,0,0-.48.09.93.93,0,0,0-.39.26,1.3,1.3,0,0,0-.25.47,2.24,2.24,0,0,0-.09.68v.54a2.24,2.24,0,0,0,.09.68,1.3,1.3,0,0,0,.25.47.93.93,0,0,0,.39.26,1.28,1.28,0,0,0,.48.09,1.3,1.3,0,0,0,.49-.09.84.84,0,0,0,.38-.26,1.31,1.31,0,0,0,.26-.47,2.24,2.24,0,0,0,.09-.68v-.54a2.24,2.24,0,0,0-.09-.68,1.31,1.31,0,0,0-.26-.47.84.84,0,0,0-.38-.26,1.3,1.3,0,0,0-.49-.09"/><path class="cls-2" d="M171.32,115.74v2.71a3.12,3.12,0,0,1-.11.87,1.47,1.47,0,0,1-.33.59,1.17,1.17,0,0,1-.52.32,2.64,2.64,0,0,1-1.44,0,1.12,1.12,0,0,1-.52-.32,1.36,1.36,0,0,1-.33-.59,2.79,2.79,0,0,1-.11-.87v-2.71h.62v2.63a2.93,2.93,0,0,0,.06.65,1.05,1.05,0,0,0,.2.44.68.68,0,0,0,.33.24,1.61,1.61,0,0,0,.94,0,.73.73,0,0,0,.33-.24,1.05,1.05,0,0,0,.2-.44,2.93,2.93,0,0,0,.06-.65v-2.63Z"/><path class="cls-2" d="M173,115.74l1.76,3.05.15.28c.06.12.11.24.17.38v-3.71h.58v4.52H175l-1.76-3a2.57,2.57,0,0,1-.15-.29,3.17,3.17,0,0,1-.17-.37v3.7h-.58v-4.52Z"/><path class="cls-2" d="M180,119.76a2,2,0,0,1-.74.45,2.93,2.93,0,0,1-.86.12,2.17,2.17,0,0,1-.74-.12,1.56,1.56,0,0,1-.57-.37,1.78,1.78,0,0,1-.37-.63,2.49,2.49,0,0,1-.13-.87v-.68a2.57,2.57,0,0,1,.13-.87,1.74,1.74,0,0,1,.37-.62,1.62,1.62,0,0,1,.58-.38,2.11,2.11,0,0,1,.73-.12,2.81,2.81,0,0,1,.82.11,2.27,2.27,0,0,1,.68.37l-.32.51a1.61,1.61,0,0,0-.59-.33,1.92,1.92,0,0,0-.59-.09,1.19,1.19,0,0,0-.47.09,1,1,0,0,0-.38.27,1.24,1.24,0,0,0-.25.47,2.24,2.24,0,0,0-.08.67v.52a2.24,2.24,0,0,0,.08.67,1.24,1.24,0,0,0,.25.47,1,1,0,0,0,.38.27,1.19,1.19,0,0,0,.47.09,2.51,2.51,0,0,0,.66-.1,1.56,1.56,0,0,0,.6-.38Z"/><rect class="cls-2" x="180.75" y="115.74" width="0.62" height="4.53"/><polygon class="cls-2" points="183.02 115.74 183.02 119.73 185.19 119.73 185.19 120.26 182.4 120.26 182.4 115.74 183.02 115.74"/><path class="cls-2" d="M68.05,107.93a4.76,4.76,0,0,1-2-.37,3.52,3.52,0,0,1-1.37-1,4.21,4.21,0,0,1-.79-1.55,7.68,7.68,0,0,1-.25-2v-2a7.64,7.64,0,0,1,.25-2,4.23,4.23,0,0,1,.79-1.57,3.73,3.73,0,0,1,1.37-1,5.48,5.48,0,0,1,4,0,3.81,3.81,0,0,1,1.37,1A4.07,4.07,0,0,1,72.18,99a7.23,7.23,0,0,1,.25,2v2a7.28,7.28,0,0,1-.25,2,4.05,4.05,0,0,1-.78,1.55,3.6,3.6,0,0,1-1.37,1,4.76,4.76,0,0,1-2,.37m0-9.87a1.8,1.8,0,0,0-1.66.81,4.45,4.45,0,0,0-.51,2.36v1.49a4.49,4.49,0,0,0,.51,2.37,2.12,2.12,0,0,0,3.32,0,4.59,4.59,0,0,0,.5-2.37v-1.49a4.55,4.55,0,0,0-.5-2.36,1.81,1.81,0,0,0-1.66-.81m8.67,2.88h2.35v2H76.72v9H74.39V94.89h2.33Z"/><path class="cls-2" d="M95.51,104.44v2H88.87V112H86.55v-5.54H79.89v-2Zm-13.7-8.62H93.59v2h-4.7v.15A1.87,1.87,0,0,0,89.22,99a3,3,0,0,0,1.12.86c.6.29,1.26.59,2,.89s1.43.6,2.13.87l-.9,1.81c-.67-.27-1.33-.54-2-.82l-1.85-.83a9,9,0,0,1-1.31-.69,2,2,0,0,1-.66-.57h0a2.12,2.12,0,0,1-.7.59,12.81,12.81,0,0,1-1.36.71c-.58.27-1.2.54-1.85.82s-1.31.56-2,.83l-.9-1.85q1-.41,2.13-.87c.72-.3,1.38-.6,2-.89A2.92,2.92,0,0,0,86.18,99a1.87,1.87,0,0,0,.33-1.11v-.15h-4.7Z"/><path class="cls-2" d="M103.74,96.5v2H99.45v6.92H100c.75,0,1.5,0,2.26-.06a20.23,20.23,0,0,0,2.29-.24l.24,2a17.51,17.51,0,0,1-2.38.26c-.84,0-1.64.06-2.41.06H97.16V96.5Zm4,4.2h1.5V94.89h2.22V112h-2.22V102.7h-1.5v8.42h-2.22V95.24h2.22Z"/><path class="cls-2" d="M119.54,96.5h3.69v2h-9.76v-2h3.76V94.67h2.31Zm-1.15,8.9a6,6,0,0,1-1.73-.23,3.72,3.72,0,0,1-1.26-.63,2.65,2.65,0,0,1-.79-.92,2.38,2.38,0,0,1-.28-1.14v-.59a2.34,2.34,0,0,1,.28-1.13,2.59,2.59,0,0,1,.79-.93,3.9,3.9,0,0,1,1.26-.62,6.55,6.55,0,0,1,3.44,0,4,4,0,0,1,1.28.62,2.8,2.8,0,0,1,.79.93,2.44,2.44,0,0,1,.27,1.13v.59a2.49,2.49,0,0,1-.27,1.14,2.87,2.87,0,0,1-.79.92,3.83,3.83,0,0,1-1.28.63,6,6,0,0,1-1.71.23m-2.44.93h10.87v5.84h-2.31v-3.89H116Zm2.44-5.54a2.16,2.16,0,0,0-1.4.4,1.06,1.06,0,0,0-.47.81v.37a1.09,1.09,0,0,0,.47.82,2.69,2.69,0,0,0,2.79,0,1.11,1.11,0,0,0,.48-.82V102a1.08,1.08,0,0,0-.48-.81,2.15,2.15,0,0,0-1.39-.4m8.43-1.63h2.24v2h-2.24v4.38h-2.31V94.89h2.31Z"/><path class="cls-2" d="M133.21,107.86v-5.67h2.25v5.67h1.64v-5.67h2.25v5.67h6.15v1.94H129.87v-1.94Zm7.46-2.1c.11-.57.2-1.12.26-1.65s.11-1.06.14-1.57.05-1,.06-1.55,0-1,0-1.59V98.32h-9.41v-2h11.69v2.47c0,1.37,0,2.65-.11,3.82a28,28,0,0,1-.39,3.45Z"/><path class="cls-2" d="M153.58,107.86v-5.67h2.26v5.67h1.64v-5.67h2.25v5.67h6.14v1.94H150.25v-1.94Zm7.47-2.1c.11-.57.2-1.12.26-1.65s.1-1.06.13-1.57.06-1,.07-1.55,0-1,0-1.59V98.32h-9.41v-2H163.8v2.47c0,1.37,0,2.65-.1,3.82a32.5,32.5,0,0,1-.39,3.45Z"/><path class="cls-2" d="M182.34,104.41v2H175.7V112h-2.33v-5.58h-6.66v-2Zm-7.78-4.26a1.88,1.88,0,0,1-.66.61,14.5,14.5,0,0,1-1.43.8c-.25.14-.54.28-.87.44l-1,.45c-.34.16-.67.31-1,.45l-.94.41-1-1.91c.65-.27,1.33-.57,2.05-.9s1.38-.66,2-1a3.32,3.32,0,0,0,1.23-1,2.53,2.53,0,0,0,.36-1.4V95.47h2.35v1.62a2.45,2.45,0,0,0,.37,1.4,3.16,3.16,0,0,0,1.23,1q.93.49,2,1t2,.9l-.94,1.87-.94-.4-1-.45-1-.46-.87-.43a13.57,13.57,0,0,1-1.38-.79,2.08,2.08,0,0,1-.64-.59Z"/><path class="cls-2" d="M183.76,107H186c.7,0,1.36,0,2,0v-1.26a5,5,0,0,1-1.37-.42,4,4,0,0,1-1-.68,2.45,2.45,0,0,1-.57-.85,2.48,2.48,0,0,1-.18-.93v-.66a2.44,2.44,0,0,1,.25-1.08,2.72,2.72,0,0,1,.78-1,4.15,4.15,0,0,1,1.31-.68,6.14,6.14,0,0,1,1.87-.25,6.23,6.23,0,0,1,1.87.25,4.1,4.1,0,0,1,1.32.68,2.72,2.72,0,0,1,.78,1,2.44,2.44,0,0,1,.25,1.08v.66a2.48,2.48,0,0,1-.18.93,2.45,2.45,0,0,1-.57.85,4,4,0,0,1-1,.68,5.1,5.1,0,0,1-1.35.42V107c.92,0,1.73-.06,2.43-.1s1.34-.1,1.92-.16l.16,1.94c-.52.07-1.13.12-1.82.16s-1.49.08-2.39.1-1.91,0-3,.06h-3.81ZM188,96.72V94.85h2.29v1.87H194v2h-9.89v-2Zm1.13,4.31a3.16,3.16,0,0,0-.92.12,1.82,1.82,0,0,0-.64.32,1.39,1.39,0,0,0-.37.45,1.14,1.14,0,0,0-.12.49v.22a1.07,1.07,0,0,0,.12.49,1.26,1.26,0,0,0,.37.44,1.54,1.54,0,0,0,.64.32,3.16,3.16,0,0,0,.92.12,2.27,2.27,0,0,0,1.56-.44,1.25,1.25,0,0,0,.5-.93v-.22a1.29,1.29,0,0,0-.5-.94,2.32,2.32,0,0,0-1.56-.44M197.83,112h-2.29V94.89h2.29Z"/><polygon class="cls-1" points="385 170 394.37 170 394.37 161.59 430.51 161.59 430.51 170 439.88 170 439.88 153.13 385 153.13 385 170"/><path class="cls-1" d="M405,100a35,35,0,0,0-34.95,33.18l-.05,1.59V170h9.38V134.4a25.63,25.63,0,0,1,51.25.58v4.19H394.22V135a10.78,10.78,0,0,1,21.24-2.63l.1.42H425l-.09-.63A20.14,20.14,0,0,0,384.86,135v12.66H440V135A35,35,0,0,0,405,100Z"/></g></g></g></svg>