<svg xmlns="http://www.w3.org/2000/svg" viewBox="0 0 90 80.15"><defs><style>.cls-1{fill:snow;}.cls-2{fill:#006937;}</style></defs><g id="레이어_2" data-name="레이어 2"><g id="AUFC_810_12_colum_grid_system" data-name="AUFC / 810 / 12 colum grid system"><path class="cls-1" d="M77.93,80.14H90V39.81l-1.19-5.72c-2.94-9.64-5.94-15.32-13.66-22.28A44.33,44.33,0,0,0,45.1,0h-.2C33.21.05,22.24,4.2,14.45,12.06,7.55,19,2.83,26.49.79,35.81l-.79,4V80.14H77.93Z"/><g id="header"><polygon class="cls-2" points="25 80.15 34.37 80.15 34.37 71.74 70.51 71.74 70.51 80.15 79.88 80.15 79.88 63.28 25 63.28 25 80.15"/><path class="cls-2" d="M45,10.15A35,35,0,0,0,10.05,43.33L10,44.92V80.15h9.38V44.55a25.63,25.63,0,0,1,51.25.57v4.2H34.22V45.1a10.78,10.78,0,0,1,21.24-2.63l.1.42H65l-.09-.63a20.14,20.14,0,0,0-40.08,2.86V57.78H80V45.15A35,35,0,0,0,45,10.15Z"/></g></g></g></svg>