<svg xmlns="http://www.w3.org/2000/svg" viewBox="0 0 70 70"><defs><style>.cls-1{fill:#006937;}</style></defs><g id="레이어_2" data-name="레이어 2"><g id="AUFC_810_12_colum_grid_system" data-name="AUFC / 810 / 12 colum grid system"><g id="header"><polygon class="cls-1" points="15 70 24.37 70 24.37 61.59 60.51 61.59 60.51 70 69.88 70 69.88 53.13 15 53.13 15 70"/><path class="cls-1" d="M35,0A35,35,0,0,0,.05,33.18l0,1.59V70H9.38V34.4A25.63,25.63,0,0,1,60.63,35v4.19H24.22V35a10.78,10.78,0,0,1,21.24-2.63l.1.42H55l-.09-.63A20.14,20.14,0,0,0,14.86,35V47.63H70V35A35,35,0,0,0,35,0Z"/></g></g></g></svg>