<svg xmlns="http://www.w3.org/2000/svg" viewBox="0 0 116 40"><defs><style>.cls-1{fill:#61a60e;}.cls-2{fill:#cfddbb;}</style></defs><g id="레이어_2" data-name="레이어 2"><g id="AUFC_810_12_colum_grid_system" data-name="AUFC / 810 / 12 colum grid system"><g id="footer"><rect class="cls-1" width="116" height="40" rx="6"/><path class="cls-2" d="M28,24.39v1.9h-15v-1.9h6.24v-3.7h2.38v3.7Zm-1.47-3.18a8.31,8.31,0,0,1-6.13-4.11,8.3,8.3,0,0,1-6.08,4.11l-1-2c3.74-.6,5.79-3.13,5.79-5.43V12.63h2.54v1.19c0,2.35,2,4.83,5.82,5.43Z"/><path class="cls-2" d="M38.5,20.78a6.27,6.27,0,0,1-3.87-3.25,6.6,6.6,0,0,1-4,3.52l-1.17-1.87a5.28,5.28,0,0,0,4-5.13V12.47H35.8v1.58a5,5,0,0,0,3.85,4.86ZM32,22.29H43.27v6h-2.4V24.17H32ZM43.27,11.72v9.85h-2.4V11.72Z"/><path class="cls-2" d="M54.25,22.36a34.43,34.43,0,0,0,6-.47l.24,1.92a37.08,37.08,0,0,1-7.24.49H51.87V13.19h7.51v1.88H54.25ZM65,11.72V28.3H62.64v-9h-4V17.42h4v-5.7Z"/><path class="cls-2" d="M87.71,24.41v1.92h-15V24.41H79v-3H74.28V12.74h2.36v2.57h7.09V12.74h2.34v8.63h-4.7v3ZM76.64,19.49h7.09V17.17H76.64Z"/><path class="cls-2" d="M98.13,13.42c0,5.06-1.71,9.19-7.6,12l-1.24-1.87c4.23-2,6.07-4.61,6.41-8.27H90.17V13.42Zm4.93-1.72V28.23h-2.39V11.7Z"/></g></g></g></svg>