<svg xmlns="http://www.w3.org/2000/svg" viewBox="0 0 320 49.74"><defs><style>.cls-1{fill:#10312b;}</style></defs><g id="레이어_2" data-name="레이어 2"><g id="AUFC_810_12_colum_grid_system" data-name="AUFC / 810 / 12 colum grid system"><g id="header"><path class="cls-1" d="M44.09,6.78l-5.55.84L38.36,49.2H35.23L8.38,12.12l.19,33.66,7.35.9v2.16H0V46.68l5.55-.84L5.79,8.46,5,7.38.3,6.78V4.62H11.58L35.71,38l-.12-30.3-7.42-.9V4.62H44.09Z"/><path class="cls-1" d="M54.89,32.82c.18,8.94,4.71,13.08,10.92,13.08A10.88,10.88,0,0,0,75,41.28l1.21.84a13.59,13.59,0,0,1-12.67,7.62C54.47,49.74,48,43.68,48,33.12,48,22.74,55.5,16.38,63.7,16.38c7.66,0,12.73,5.16,12.73,12.78A12.15,12.15,0,0,1,76,32.82Zm11.89-2.34c2.77,0,3.43-1.38,3.43-3.9,0-4.44-2.83-7.86-6.93-7.86-3.92,0-7.84,3.54-8.33,11.76Z"/><path class="cls-1" d="M129.87,19.32l-3.8.72-10,29.16h-2.72c-5.06-13.38-7.18-19.32-8.62-24.06L95.91,49.2H93.14L82.4,19.86l-3.62-.54v-2H94.4v2l-5.12.6L96.39,41.7,104,20l-4.88-.66v-2H113.7v2l-5,.72,7.84,21.48,6.51-21.42-5.36-.78v-2h12.18Z"/><path class="cls-1" d="M147.42,30.36c6.46,2.16,9,5.22,9,9.6,0,5.52-4.58,9.78-13.21,9.78a21,21,0,0,1-10.43-2.64V39.72h3.31l1.51,6.48a13.82,13.82,0,0,0,5.37,1c5.07,0,7.6-2,7.6-5.22,0-2.7-1.69-4.38-6.21-5.88L141.15,35c-5-1.8-8.2-4.44-8.2-9.06,0-5.34,4.34-9.6,12.06-9.6a17.5,17.5,0,0,1,9.59,2.7l-.24,6.84h-3L149.84,20a10.41,10.41,0,0,0-4.77-1.2c-4.1,0-6.39,1.92-6.39,4.86s1.57,4.26,6.15,5.76Z"/><path class="cls-1" d="M176.68,46.92v1.92H160V46.92l5.07-.66c.06-3.72.12-7.68.12-11.34v-30L160,4.44V2.58L170.89,0l.9.48-.24,9.42v25c0,3.66.06,7.62.12,11.34Z"/><path class="cls-1" d="M188.08,32.82c.18,8.94,4.71,13.08,10.92,13.08a10.88,10.88,0,0,0,9.23-4.62l1.2.84a13.56,13.56,0,0,1-12.66,7.62c-9.11,0-15.56-6.06-15.56-16.62,0-10.38,7.47-16.74,15.68-16.74,7.66,0,12.73,5.16,12.73,12.78a12.48,12.48,0,0,1-.43,3.66ZM200,30.48c2.78,0,3.44-1.38,3.44-3.9,0-4.44-2.83-7.86-6.93-7.86-3.92,0-7.85,3.54-8.33,11.76Z"/><path class="cls-1" d="M234.65,46c-1.69,2.4-4.4,3.78-8.08,3.78-5.07,0-7.91-2.58-7.91-8.1,0-1.8.06-3.36.06-5.82V20h-5.48V17.82l5.85-.66,2-9.18h4.34l-.3,9.3h8.5V20h-8.56V41.64c0,3.42,1.51,4.86,3.92,4.86,1.51,0,2.71-.6,4.4-1.86Z"/><path class="cls-1" d="M257.27,46c-1.69,2.4-4.41,3.78-8.09,3.78-5.06,0-7.9-2.58-7.9-8.1,0-1.8.06-3.36.06-5.82V20h-5.49V17.82l5.86-.66,2-9.18h4.34l-.3,9.3h8.5V20h-8.56V41.64c0,3.42,1.5,4.86,3.92,4.86,1.51,0,2.71-.6,4.4-1.86Z"/><path class="cls-1" d="M267.1,32.82c.18,8.94,4.7,13.08,10.92,13.08a10.9,10.9,0,0,0,9.23-4.62l1.2.84a13.56,13.56,0,0,1-12.66,7.62c-9.11,0-15.57-6.06-15.57-16.62,0-10.38,7.48-16.74,15.68-16.74,7.67,0,12.73,5.16,12.73,12.78a12.52,12.52,0,0,1-.42,3.66ZM279,30.48c2.78,0,3.44-1.38,3.44-3.9,0-4.44-2.84-7.86-6.94-7.86-3.92,0-7.84,3.54-8.32,11.76Z"/><path class="cls-1" d="M305.28,25.26c2-5.64,5.91-8.88,9.65-8.88,2.23,0,4.35.9,5.07,3-.06,2.76-1.21,4.56-3.86,4.56-1.81,0-3.08-1-4.4-2.34l-.79-.78c-2.65,2-4.4,4.8-5.67,9.06v5c0,3.12.06,7.8.12,11.16l5.61.84v1.92H294.06V46.92l4.65-.66c.12-3.42.18-8.22.18-11.34V31.08c0-3.78-.12-6.06-.24-8.82l-5.07-.48V20l10.19-3.54.91.6Z"/></g></g></g></svg>