<svg xmlns="http://www.w3.org/2000/svg" viewBox="0 0 180.83 35"><defs><style>.cls-1{fill:#cfddbb;}</style></defs><g id="레이어_2" data-name="레이어 2"><g id="AUFC_810_12_colum_grid_system" data-name="AUFC / 810 / 12 colum grid system"><g id="header"><polygon class="cls-1" points="7.5 35 12.19 35 12.19 30.8 30.25 30.8 30.25 35 34.94 35 34.94 26.57 7.5 26.57 7.5 35"/><path class="cls-1" d="M17.5,0A17.5,17.5,0,0,0,0,16.59H0V35H4.69V17.2a12.82,12.82,0,0,1,25.63.29v2.09H12.11v-2.1a5.39,5.39,0,0,1,10.62-1.32l.05.21h4.73l0-.31a10.07,10.07,0,0,0-20,1.42v6.33H35V17.5A17.52,17.52,0,0,0,17.5,0Z"/><path class="cls-1" d="M63.28,30.26h-.65l-.48-1.33H60.42l-.48,1.33H59.3L61,25.74h.6ZM60.61,28.4H62l-.38-1.06-.08-.24a1.72,1.72,0,0,1-.07-.21l-.07-.2-.08-.26-.08.26-.06.21c0,.06,0,.13-.07.2l-.08.24Z"/><path class="cls-1" d="M65.87,29a1.89,1.89,0,0,1-.1.63,1,1,0,0,1-.28.4.91.91,0,0,1-.41.22,2.18,2.18,0,0,1-.52.06,2.14,2.14,0,0,1-.54-.08,1.28,1.28,0,0,1-.51-.29l.29-.49a1.27,1.27,0,0,0,.38.22,1.23,1.23,0,0,0,.39.07.64.64,0,0,0,.52-.2,1.13,1.13,0,0,0,.16-.67V25.74h.62Z"/><path class="cls-1" d="M68.59,30.33a2.27,2.27,0,0,1-.75-.12,1.69,1.69,0,0,1-.58-.37,1.8,1.8,0,0,1-.38-.63,2.49,2.49,0,0,1-.13-.87v-.68a2.57,2.57,0,0,1,.13-.87,1.75,1.75,0,0,1,.38-.62,1.66,1.66,0,0,1,.59-.38,2.17,2.17,0,0,1,.74-.12,2.21,2.21,0,0,1,.74.12,1.62,1.62,0,0,1,1,1,2.56,2.56,0,0,1,.14.87v.68a2.48,2.48,0,0,1-.14.87,1.66,1.66,0,0,1-.38.63,1.6,1.6,0,0,1-.58.37,2.21,2.21,0,0,1-.74.12m0-4.1a1.3,1.3,0,0,0-.49.09.84.84,0,0,0-.38.26,1.17,1.17,0,0,0-.25.47,2.24,2.24,0,0,0-.09.68v.54a2.24,2.24,0,0,0,.09.68,1.17,1.17,0,0,0,.25.47.84.84,0,0,0,.38.26,1.3,1.3,0,0,0,.49.09,1.24,1.24,0,0,0,.48-.09.93.93,0,0,0,.39-.26,1.3,1.3,0,0,0,.25-.47,2.24,2.24,0,0,0,.09-.68v-.54a2.24,2.24,0,0,0-.09-.68,1.3,1.3,0,0,0-.25-.47.93.93,0,0,0-.39-.26,1.24,1.24,0,0,0-.48-.09"/><path class="cls-1" d="M74.64,25.74v2.71a2.77,2.77,0,0,1-.12.87,1.45,1.45,0,0,1-.32.59,1.2,1.2,0,0,1-.53.32,2.28,2.28,0,0,1-.72.1,2.21,2.21,0,0,1-.71-.1,1.15,1.15,0,0,1-.53-.32,1.6,1.6,0,0,1-.33-.59,3.12,3.12,0,0,1-.11-.87V25.74h.62v2.63A2.93,2.93,0,0,0,72,29a1.2,1.2,0,0,0,.2.44.78.78,0,0,0,.33.24,1.37,1.37,0,0,0,.47.07,1.33,1.33,0,0,0,.47-.07.76.76,0,0,0,.34-.24A1.19,1.19,0,0,0,74,29a2.93,2.93,0,0,0,.06-.65V25.74Z"/><path class="cls-1" d="M80.5,25.74v2.71a3.12,3.12,0,0,1-.11.87,1.6,1.6,0,0,1-.33.59,1.15,1.15,0,0,1-.53.32,2.17,2.17,0,0,1-.71.1,2.28,2.28,0,0,1-.72-.1,1.12,1.12,0,0,1-.52-.32,1.36,1.36,0,0,1-.33-.59,2.79,2.79,0,0,1-.11-.87V25.74h.62v2.63a2.93,2.93,0,0,0,.06.65,1.19,1.19,0,0,0,.19.44.76.76,0,0,0,.34.24,1.61,1.61,0,0,0,.94,0,.78.78,0,0,0,.33-.24,1.05,1.05,0,0,0,.2-.44,2.93,2.93,0,0,0,.06-.65V25.74Z"/><path class="cls-1" d="M82.2,25.74,84,28.79l.15.28c.06.12.11.24.17.38V25.74h.57v4.52h-.71l-1.76-3a2.57,2.57,0,0,1-.15-.29,3.17,3.17,0,0,1-.17-.37v3.7h-.58V25.74Z"/><rect class="cls-1" x="85.88" y="25.74" width="0.62" height="4.53"/><polygon class="cls-1" points="87.83 25.74 89.14 29.48 90.48 25.74 91.12 25.74 89.42 30.26 88.83 30.26 87.15 25.74 87.83 25.74"/><polygon class="cls-1" points="94.58 25.74 94.58 26.27 92.39 26.27 92.39 27.68 94.45 27.68 94.45 28.21 92.39 28.21 92.39 29.73 94.63 29.73 94.63 30.26 91.76 30.26 91.76 25.74 94.58 25.74"/><path class="cls-1" d="M96.14,30.26h-.62V25.74h1.64a1.91,1.91,0,0,1,.61.09,1.38,1.38,0,0,1,.46.26,1.21,1.21,0,0,1,.28.39,1.3,1.3,0,0,1,.09.49v.17a1.17,1.17,0,0,1-.19.67,1.15,1.15,0,0,1-.57.44l.9,2h-.67l-.82-1.89H96.14Zm0-2.41H97a1.14,1.14,0,0,0,.75-.2.67.67,0,0,0,.22-.53V27a.67.67,0,0,0-.22-.53,1,1,0,0,0-.69-.19h-.93Z"/><path class="cls-1" d="M101,29.77a1.14,1.14,0,0,0,.73-.2.57.57,0,0,0,.24-.46V29a.76.76,0,0,0,0-.27.52.52,0,0,0-.17-.2,1.27,1.27,0,0,0-.31-.16,2.92,2.92,0,0,0-.46-.13,5.25,5.25,0,0,1-.6-.16,1.58,1.58,0,0,1-.47-.23,1,1,0,0,1-.32-.35,1,1,0,0,1-.12-.52v-.11a1,1,0,0,1,.1-.45,1.17,1.17,0,0,1,.28-.39,1.64,1.64,0,0,1,.49-.27,2,2,0,0,1,.68-.1,2.59,2.59,0,0,1,.76.1,2.07,2.07,0,0,1,.62.29l-.29.49a1.72,1.72,0,0,0-.51-.25,2,2,0,0,0-.57-.07,1.14,1.14,0,0,0-.68.18.57.57,0,0,0-.26.46V27a.54.54,0,0,0,.07.27.73.73,0,0,0,.2.19,1.26,1.26,0,0,0,.33.14l.45.12a3.22,3.22,0,0,1,.7.22,1.64,1.64,0,0,1,.45.28.92.92,0,0,1,.24.35,1.16,1.16,0,0,1,.07.42v.12a1.13,1.13,0,0,1-.12.54,1.19,1.19,0,0,1-.34.4,1.5,1.5,0,0,1-.51.23,2.2,2.2,0,0,1-.64.08,2.52,2.52,0,0,1-1.58-.53l.31-.51.29.18.33.16a2.3,2.3,0,0,0,.35.1,1.2,1.2,0,0,0,.31,0"/><rect class="cls-1" x="103.44" y="25.74" width="0.62" height="4.53"/><polygon class="cls-1" points="106.06 30.26 106.06 26.27 104.68 26.27 104.68 25.74 108.06 25.74 108.06 26.27 106.68 26.27 106.68 30.26 106.06 30.26"/><polygon class="cls-1" points="110.44 28.44 110.44 30.26 109.82 30.26 109.82 28.44 108.26 25.74 108.95 25.74 110.14 27.85 111.3 25.74 111.99 25.74 110.44 28.44"/><polygon class="cls-1" points="117.41 25.74 117.41 26.27 115.23 26.27 115.23 27.78 117.28 27.78 117.28 28.32 115.23 28.32 115.23 30.26 114.61 30.26 114.61 25.74 117.41 25.74"/><path class="cls-1" d="M121.51,30.26h-.65l-.48-1.33h-1.73l-.48,1.33h-.63l1.68-4.52h.6Zm-2.67-1.86h1.36l-.38-1.06a2.07,2.07,0,0,0-.09-.24l-.07-.21-.06-.2c0-.07,0-.16-.08-.26a2.38,2.38,0,0,0-.08.26c0,.08,0,.14-.07.21l-.06.2c0,.06,0,.15-.09.24Z"/><path class="cls-1" d="M125.33,29.76a2,2,0,0,1-.74.45,3,3,0,0,1-.86.12,2.17,2.17,0,0,1-.74-.12,1.56,1.56,0,0,1-.57-.37,1.78,1.78,0,0,1-.37-.63,2.49,2.49,0,0,1-.13-.87v-.68a2.57,2.57,0,0,1,.13-.87,1.74,1.74,0,0,1,.37-.62,1.54,1.54,0,0,1,.58-.38,2.11,2.11,0,0,1,.73-.12,2.81,2.81,0,0,1,.82.11,2.27,2.27,0,0,1,.68.37l-.32.51a1.69,1.69,0,0,0-.59-.33,1.92,1.92,0,0,0-.59-.09,1.19,1.19,0,0,0-.47.09,1,1,0,0,0-.38.27,1.24,1.24,0,0,0-.25.47,2.22,2.22,0,0,0-.09.67v.52a2.22,2.22,0,0,0,.09.67,1.24,1.24,0,0,0,.25.47,1,1,0,0,0,.38.27,1.19,1.19,0,0,0,.47.09,2.38,2.38,0,0,0,.65-.1,1.52,1.52,0,0,0,.61-.38Z"/><path class="cls-1" d="M129.42,25.74v2.71a2.77,2.77,0,0,1-.12.87,1.45,1.45,0,0,1-.32.59,1.2,1.2,0,0,1-.53.32,2.28,2.28,0,0,1-.72.1,2.21,2.21,0,0,1-.71-.1,1.15,1.15,0,0,1-.53-.32,1.6,1.6,0,0,1-.33-.59,3.12,3.12,0,0,1-.11-.87V25.74h.62v2.63a2.93,2.93,0,0,0,.06.65,1.05,1.05,0,0,0,.2.44.78.78,0,0,0,.33.24,1.37,1.37,0,0,0,.47.07,1.33,1.33,0,0,0,.47-.07.76.76,0,0,0,.34-.24,1.19,1.19,0,0,0,.19-.44,2.93,2.93,0,0,0,.06-.65V25.74Z"/><polygon class="cls-1" points="131.02 25.74 131.02 29.73 133.18 29.73 133.18 30.26 130.4 30.26 130.4 25.74 131.02 25.74"/><polygon class="cls-1" points="134.41 30.26 134.41 26.27 133.03 26.27 133.03 25.74 136.42 25.74 136.42 26.27 135.04 26.27 135.04 30.26 134.41 30.26"/><polygon class="cls-1" points="138.8 28.44 138.8 30.26 138.18 30.26 138.18 28.44 136.62 25.74 137.31 25.74 138.5 27.85 139.65 25.74 140.34 25.74 138.8 28.44"/><path class="cls-1" d="M145.81,29.76a2.14,2.14,0,0,1-.74.45,3,3,0,0,1-.86.12,2.13,2.13,0,0,1-.74-.12,1.52,1.52,0,0,1-.58-.37,1.78,1.78,0,0,1-.37-.63,2.49,2.49,0,0,1-.13-.87v-.68a2.57,2.57,0,0,1,.13-.87,1.75,1.75,0,0,1,.38-.62,1.59,1.59,0,0,1,.57-.38,2.17,2.17,0,0,1,.74-.12,2.91,2.91,0,0,1,.82.11,2.22,2.22,0,0,1,.67.37l-.32.51a1.54,1.54,0,0,0-.59-.33,1.85,1.85,0,0,0-.58-.09,1.24,1.24,0,0,0-.48.09,1.1,1.1,0,0,0-.38.27,1.38,1.38,0,0,0-.24.47,2.22,2.22,0,0,0-.09.67v.52a2.22,2.22,0,0,0,.09.67,1.38,1.38,0,0,0,.24.47,1.1,1.1,0,0,0,.38.27,1.24,1.24,0,0,0,.48.09,2.5,2.5,0,0,0,.65-.1,1.59,1.59,0,0,0,.61-.38Z"/><path class="cls-1" d="M148.28,30.33a2.23,2.23,0,0,1-.75-.12,1.6,1.6,0,0,1-.58-.37,1.8,1.8,0,0,1-.38-.63,2.49,2.49,0,0,1-.13-.87v-.68a2.57,2.57,0,0,1,.13-.87,1.75,1.75,0,0,1,.38-.62,1.58,1.58,0,0,1,.59-.38,2.17,2.17,0,0,1,.74-.12,2.25,2.25,0,0,1,.74.12,1.62,1.62,0,0,1,.58.38,1.75,1.75,0,0,1,.38.62,2.56,2.56,0,0,1,.14.87v.68a2.48,2.48,0,0,1-.14.87,1.8,1.8,0,0,1-.38.63,1.6,1.6,0,0,1-.58.37,2.25,2.25,0,0,1-.74.12m0-4.1a1.3,1.3,0,0,0-.49.09.84.84,0,0,0-.38.26,1.17,1.17,0,0,0-.25.47,2,2,0,0,0-.1.68v.54a2,2,0,0,0,.1.68,1.17,1.17,0,0,0,.25.47.84.84,0,0,0,.38.26,1.3,1.3,0,0,0,.49.09,1.28,1.28,0,0,0,.48-.09.93.93,0,0,0,.39-.26,1.3,1.3,0,0,0,.25-.47,2.24,2.24,0,0,0,.09-.68v-.54a2.24,2.24,0,0,0-.09-.68,1.3,1.3,0,0,0-.25-.47.93.93,0,0,0-.39-.26,1.28,1.28,0,0,0-.48-.09"/><path class="cls-1" d="M154.32,25.74v2.71a2.79,2.79,0,0,1-.11.87,1.36,1.36,0,0,1-.33.59,1.12,1.12,0,0,1-.52.32,2.28,2.28,0,0,1-.72.1,2.17,2.17,0,0,1-.71-.1,1.15,1.15,0,0,1-.53-.32,1.47,1.47,0,0,1-.33-.59,3.12,3.12,0,0,1-.11-.87V25.74h.62v2.63a2.93,2.93,0,0,0,.06.65,1.05,1.05,0,0,0,.2.44.78.78,0,0,0,.33.24,1.61,1.61,0,0,0,.94,0,.76.76,0,0,0,.34-.24,1.19,1.19,0,0,0,.19-.44,2.93,2.93,0,0,0,.06-.65V25.74Z"/><path class="cls-1" d="M156,25.74l1.76,3.05c0,.07.1.17.15.28s.11.24.17.38V25.74h.58v4.52H158l-1.76-3c0-.08-.1-.18-.15-.29s-.11-.24-.17-.37v3.7h-.58V25.74Z"/><path class="cls-1" d="M163,29.76a2.09,2.09,0,0,1-.75.45,2.93,2.93,0,0,1-.86.12,2.17,2.17,0,0,1-.74-.12,1.56,1.56,0,0,1-.57-.37,1.78,1.78,0,0,1-.37-.63,2.49,2.49,0,0,1-.13-.87v-.68a2.57,2.57,0,0,1,.13-.87,1.74,1.74,0,0,1,.37-.62,1.72,1.72,0,0,1,.58-.38,2.15,2.15,0,0,1,.73-.12,2.93,2.93,0,0,1,.83.11,2.22,2.22,0,0,1,.67.37l-.32.51a1.61,1.61,0,0,0-.59-.33,1.92,1.92,0,0,0-.59-.09,1.19,1.19,0,0,0-.47.09,1.1,1.1,0,0,0-.38.27,1.39,1.39,0,0,0-.25.47,2.62,2.62,0,0,0-.08.67v.52a2.62,2.62,0,0,0,.08.67,1.39,1.39,0,0,0,.25.47,1.1,1.1,0,0,0,.38.27,1.19,1.19,0,0,0,.47.09,2.51,2.51,0,0,0,.66-.1,1.67,1.67,0,0,0,.61-.38Z"/><rect class="cls-1" x="163.75" y="25.74" width="0.62" height="4.53"/><polygon class="cls-1" points="166.03 25.74 166.03 29.73 168.19 29.73 168.19 30.26 165.4 30.26 165.4 25.74 166.03 25.74"/><path class="cls-1" d="M51.05,17.93a4.76,4.76,0,0,1-2-.37,3.52,3.52,0,0,1-1.37-1A4.21,4.21,0,0,1,46.91,15a7.68,7.68,0,0,1-.25-2V11a7.64,7.64,0,0,1,.25-2,4.23,4.23,0,0,1,.79-1.57,3.73,3.73,0,0,1,1.37-1,5.48,5.48,0,0,1,4,0,3.73,3.73,0,0,1,1.37,1A4.07,4.07,0,0,1,55.18,9a7.23,7.23,0,0,1,.25,2v2a7.28,7.28,0,0,1-.25,2,4.05,4.05,0,0,1-.78,1.55,3.52,3.52,0,0,1-1.37,1,4.76,4.76,0,0,1-2,.37m0-9.87a1.8,1.8,0,0,0-1.66.81,4.46,4.46,0,0,0-.5,2.36v1.49a4.5,4.5,0,0,0,.5,2.37,2.12,2.12,0,0,0,3.32,0,4.59,4.59,0,0,0,.5-2.37V11.23a4.55,4.55,0,0,0-.5-2.36,1.81,1.81,0,0,0-1.66-.81m8.68,2.88h2.34v2H59.73v9H57.39V4.89h2.34Z"/><path class="cls-1" d="M78.52,14.44v2H71.88V22H69.55V16.41H62.89v-2ZM64.81,5.82H76.59v2h-4.7v.15A1.81,1.81,0,0,0,72.23,9a3,3,0,0,0,1.11.86c.6.29,1.26.59,2,.89s1.43.6,2.12.87l-.9,1.81c-.67-.27-1.33-.54-2-.82l-1.85-.83a9,9,0,0,1-1.31-.69,1.91,1.91,0,0,1-.65-.57h0a2.12,2.12,0,0,1-.7.59,11.9,11.9,0,0,1-1.36.71c-.58.27-1.2.54-1.85.82s-1.31.56-2,.83L64,11.66q1-.4,2.13-.87c.72-.3,1.38-.6,2-.89A2.92,2.92,0,0,0,69.18,9a1.87,1.87,0,0,0,.33-1.11V7.78h-4.7Z"/><path class="cls-1" d="M86.74,6.5v2H82.45v6.92H83c.75,0,1.5,0,2.26-.06a20,20,0,0,0,2.29-.24l.24,2a17.51,17.51,0,0,1-2.38.26c-.83,0-1.64.06-2.41.06H80.16V6.5Zm4,4.2h1.51V4.89h2.21V22H92.25V12.7H90.74v8.42H88.52V5.24h2.22Z"/><path class="cls-1" d="M102.54,6.5h3.69V8.45H96.47V6.5h3.76V4.67h2.31Zm-1.15,8.9a6.09,6.09,0,0,1-1.73-.23,3.72,3.72,0,0,1-1.26-.63,2.76,2.76,0,0,1-.79-.92,2.49,2.49,0,0,1-.28-1.14v-.59a2.45,2.45,0,0,1,.28-1.13,2.69,2.69,0,0,1,.79-.93,3.9,3.9,0,0,1,1.26-.62A6.09,6.09,0,0,1,101.39,9a6,6,0,0,1,1.71.23,3.92,3.92,0,0,1,1.28.62,2.8,2.8,0,0,1,.79.93,2.44,2.44,0,0,1,.27,1.13v.59a2.49,2.49,0,0,1-.27,1.14,2.87,2.87,0,0,1-.79.92,3.74,3.74,0,0,1-1.28.63,6,6,0,0,1-1.71.23M99,16.33h10.88v5.84h-2.32V18.28H99Zm2.44-5.54a2.18,2.18,0,0,0-1.4.4,1.09,1.09,0,0,0-.47.81v.37a1.13,1.13,0,0,0,.47.82,2.18,2.18,0,0,0,1.4.39,2.15,2.15,0,0,0,1.39-.39,1.11,1.11,0,0,0,.48-.82V12a1.08,1.08,0,0,0-.48-.81,2.15,2.15,0,0,0-1.39-.4m8.44-1.63h2.23v2h-2.23v4.38h-2.32V4.89h2.32Z"/><path class="cls-1" d="M116.21,17.86V12.19h2.26v5.67h1.63V12.19h2.25v5.67h6.15V19.8H112.87V17.86Zm7.47-2.1c.11-.57.19-1.12.25-1.65s.11-1.06.14-1.57.05-1,.06-1.55,0-1.05,0-1.59V8.32h-9.41v-2h11.69V8.79c0,1.37,0,2.65-.1,3.82a30.09,30.09,0,0,1-.4,3.45Z"/><path class="cls-1" d="M136.59,17.86V12.19h2.25v5.67h1.64V12.19h2.25v5.67h6.15V19.8H133.25V17.86Zm7.46-2.1c.11-.57.2-1.12.26-1.65s.11-1.06.14-1.57.05-1,.06-1.55,0-1.05,0-1.59V8.32h-9.41v-2H146.8V8.79c0,1.37,0,2.65-.1,3.82a30.08,30.08,0,0,1-.39,3.45Z"/><path class="cls-1" d="M165.34,14.41v2H158.7V22h-2.33V16.37h-6.65v-2Zm-7.77-4.26a2.09,2.09,0,0,1-.66.61,16.15,16.15,0,0,1-1.44.8c-.25.14-.54.28-.87.44l-1,.45c-.33.16-.67.31-1,.45l-.94.41-.95-1.91q1-.4,2-.9t2-1a3.32,3.32,0,0,0,1.23-1,2.53,2.53,0,0,0,.37-1.4V5.47h2.34V7.09a2.53,2.53,0,0,0,.37,1.4,3.16,3.16,0,0,0,1.23,1q.93.49,2,1c.71.33,1.4.63,2,.9l-.93,1.87-.95-.4-1-.45-1-.46-.87-.43a13.57,13.57,0,0,1-1.38-.79,2.08,2.08,0,0,1-.64-.59Z"/><path class="cls-1" d="M166.76,17H169c.7,0,1.36,0,2,0V15.73a5,5,0,0,1-1.37-.42,4.2,4.2,0,0,1-1-.68,2.45,2.45,0,0,1-.57-.85,2.48,2.48,0,0,1-.18-.93v-.66a2.44,2.44,0,0,1,.25-1.08,3,3,0,0,1,.78-1,4.15,4.15,0,0,1,1.31-.68,7.12,7.12,0,0,1,3.74,0,4.1,4.1,0,0,1,1.32.68,2.72,2.72,0,0,1,.78,1,2.45,2.45,0,0,1,.26,1.08v.66a2.49,2.49,0,0,1-.19.93,2.45,2.45,0,0,1-.57.85,3.8,3.8,0,0,1-1,.68,4.87,4.87,0,0,1-1.35.42V17c.92,0,1.73-.06,2.43-.1s1.34-.1,1.92-.16l.16,1.94c-.52.07-1.13.12-1.82.16s-1.49.08-2.39.1-1.91,0-3,.06h-3.81ZM171,6.72V4.85h2.29V6.72H177v2h-9.89V6.72ZM172.16,11a3.18,3.18,0,0,0-.93.12,1.92,1.92,0,0,0-.64.32,1.39,1.39,0,0,0-.37.45,1.14,1.14,0,0,0-.12.49v.22a1.07,1.07,0,0,0,.12.49,1.26,1.26,0,0,0,.37.44,1.6,1.6,0,0,0,.64.32,3.18,3.18,0,0,0,.93.12,2.27,2.27,0,0,0,1.56-.44,1.24,1.24,0,0,0,.49-.93v-.22a1.27,1.27,0,0,0-.49-.94,2.32,2.32,0,0,0-1.56-.44M180.83,22h-2.29V4.89h2.29Z"/></g></g></g></svg>