<svg xmlns="http://www.w3.org/2000/svg" viewBox="0 0 186 36"><defs><style>.cls-1{fill:#999;}</style></defs><g id="레이어_2" data-name="레이어 2"><g id="AUFC_810_12_colum_grid_system" data-name="AUFC / 810 / 12 colum grid system"><g id="footer"><path class="cls-1" d="M52.51,23.77a4.86,4.86,0,0,1-2-.38,3.7,3.7,0,0,1-1.4-1.05,4.24,4.24,0,0,1-.82-1.61,7.58,7.58,0,0,1-.25-2V16.6a7.73,7.73,0,0,1,.25-2A4.16,4.16,0,0,1,49.07,13a3.83,3.83,0,0,1,1.4-1.06,5.81,5.81,0,0,1,4.08,0A3.91,3.91,0,0,1,56,13a4.29,4.29,0,0,1,.81,1.61,7.73,7.73,0,0,1,.26,2v2.1a7.56,7.56,0,0,1-.26,2A4.37,4.37,0,0,1,56,22.34a3.78,3.78,0,0,1-1.4,1.05,4.89,4.89,0,0,1-2,.38m0-10.15a1.88,1.88,0,0,0-1.71.83,4.61,4.61,0,0,0-.52,2.44v1.52a4.64,4.64,0,0,0,.52,2.44,1.88,1.88,0,0,0,1.71.83,1.85,1.85,0,0,0,1.7-.83,4.64,4.64,0,0,0,.52-2.44V16.89a4.61,4.61,0,0,0-.52-2.44,1.85,1.85,0,0,0-1.7-.83m8.92,3h2.42v2.08H61.43V27.9H59V10.36h2.4Z"/><path class="cls-1" d="M80.76,20.19v2H73.93V27.9h-2.4V22.21H64.68v-2ZM66.67,11.32H78.78v2H74v.15a1.9,1.9,0,0,0,.34,1.14,3.07,3.07,0,0,0,1.15.88c.62.3,1.3.61,2,.92s1.47.61,2.18.89l-.92,1.87c-.69-.28-1.37-.56-2-.85s-1.3-.57-1.9-.85a10.13,10.13,0,0,1-1.35-.71,2,2,0,0,1-.67-.59h0a2.13,2.13,0,0,1-.72.61,14.29,14.29,0,0,1-1.39.73l-1.91.85c-.67.29-1.34.57-2,.84l-.92-1.9c.72-.28,1.45-.57,2.19-.89s1.42-.62,2-.92a3.07,3.07,0,0,0,1.15-.88,2,2,0,0,0,.34-1.14v-.15H66.67Z"/><path class="cls-1" d="M89.22,12v2.05H84.8v7.12h.55c.77,0,1.54,0,2.32-.06A21.24,21.24,0,0,0,90,20.88l.25,2a18.55,18.55,0,0,1-2.45.27c-.86,0-1.69,0-2.48,0h-2.9V12Zm4.11,4.32h1.55v-6h2.28V27.9H94.88V18.39H93.33v8.66H91.05V10.72h2.28Z"/><path class="cls-1" d="M105.47,12h3.8v2h-10V12h3.87V10.13h2.37Zm-1.19,9.15a6,6,0,0,1-1.77-.24,3.85,3.85,0,0,1-1.3-.64,2.92,2.92,0,0,1-.81-.95,2.53,2.53,0,0,1-.29-1.17v-.61a2.53,2.53,0,0,1,.29-1.17,2.92,2.92,0,0,1,.81-1,4,4,0,0,1,1.3-.64,6.65,6.65,0,0,1,3.54,0,4.11,4.11,0,0,1,1.31.64,2.92,2.92,0,0,1,.81,1,2.52,2.52,0,0,1,.28,1.17v.61a2.52,2.52,0,0,1-.28,1.17,2.92,2.92,0,0,1-.81.95,3.91,3.91,0,0,1-1.31.64,6,6,0,0,1-1.77.24m-2.51,1H113v6h-2.37v-4h-8.82Zm2.51-5.7a2.21,2.21,0,0,0-1.43.41,1.11,1.11,0,0,0-.49.84v.38a1.11,1.11,0,0,0,.49.83,2.72,2.72,0,0,0,2.87,0,1.11,1.11,0,0,0,.49-.83v-.38a1.11,1.11,0,0,0-.49-.84,2.23,2.23,0,0,0-1.44-.41M113,14.75h2.3v2.08H113v4.51h-2.37v-11H113Z"/><path class="cls-1" d="M119.53,23.7V17.87h2.32V23.7h1.68V17.87h2.32V23.7h6.32v2H116.1v-2Zm7.68-2.15c.11-.6.2-1.17.26-1.71s.11-1.09.14-1.62.06-1.06.07-1.59,0-1.08,0-1.63V13.88H118V11.83h12v2.55c0,1.4,0,2.71-.11,3.92a29.42,29.42,0,0,1-.4,3.55Z"/><path class="cls-1" d="M140.49,23.7V17.87h2.32V23.7h1.68V17.87h2.32V23.7h6.32v2H137.06v-2Zm7.68-2.15c.11-.6.2-1.17.26-1.71s.11-1.09.14-1.62.06-1.06.07-1.59,0-1.08,0-1.63V13.88H139V11.83h12v2.55c0,1.4,0,2.71-.11,3.92a31.59,31.59,0,0,1-.4,3.55Z"/><path class="cls-1" d="M170.07,20.15v2h-6.83V27.9h-2.4V22.17H154v-2Zm-8-4.38a1.91,1.91,0,0,1-.68.62,16.47,16.47,0,0,1-1.47.83l-.9.45-1,.47-1,.46L156,19l-1-2c.67-.27,1.37-.58,2.11-.92s1.42-.68,2.06-1a3.35,3.35,0,0,0,1.27-1,2.57,2.57,0,0,0,.37-1.44V11h2.42v1.66a2.49,2.49,0,0,0,.38,1.44,3.24,3.24,0,0,0,1.26,1q1,.51,2.07,1c.73.34,1.43.65,2.1.92l-1,1.93-1-.42-1-.46-1-.47-.9-.44c-.61-.32-1.09-.59-1.42-.81a2.15,2.15,0,0,1-.65-.61Z"/><path class="cls-1" d="M171.53,22.83h2.33l2,0v-1.3a4.9,4.9,0,0,1-1.4-.44,3.77,3.77,0,0,1-1-.69,2.85,2.85,0,0,1-.59-.87,2.72,2.72,0,0,1-.18-1v-.68a2.51,2.51,0,0,1,.26-1.12,2.93,2.93,0,0,1,.8-1,4.29,4.29,0,0,1,1.35-.7,7.22,7.22,0,0,1,3.84,0,4.24,4.24,0,0,1,1.36.7,2.93,2.93,0,0,1,.8,1,2.51,2.51,0,0,1,.26,1.12v.68a2.72,2.72,0,0,1-.18,1,2.69,2.69,0,0,1-.59.87,3.77,3.77,0,0,1-1,.69,4.93,4.93,0,0,1-1.39.44v1.26c1,0,1.78-.06,2.5-.1s1.38-.1,2-.16l.17,2c-.54.06-1.16.11-1.87.16s-1.53.08-2.45.1-2,.05-3.14.06l-3.91,0Zm4.37-10.59V10.32h2.36v1.92h3.8v2H171.89v-2Zm1.18,4.44a3.4,3.4,0,0,0-1,.12,1.86,1.86,0,0,0-.66.33,1.32,1.32,0,0,0-.37.46,1.07,1.07,0,0,0-.13.5v.23a1,1,0,0,0,.13.51,1.39,1.39,0,0,0,.37.45,1.86,1.86,0,0,0,.66.33,3.4,3.4,0,0,0,1,.12,2.39,2.39,0,0,0,1.6-.45,1.29,1.29,0,0,0,.51-1v-.23a1.29,1.29,0,0,0-.51-1,2.39,2.39,0,0,0-1.6-.45M186,27.9h-2.36V10.36H186Z"/><polygon class="cls-1" points="7.71 36 12.54 36 12.54 31.68 31.12 31.68 31.12 36 35.94 36 35.94 27.33 7.71 27.33 7.71 36"/><path class="cls-1" d="M18,0A18,18,0,0,0,0,17.06l0,.82V36H4.82V17.69a13.18,13.18,0,0,1,26.36.3v2.15H12.46V18a5.55,5.55,0,0,1,10.93-1.36l.05.22H28.3l-.05-.32A10.36,10.36,0,0,0,7.64,18v6.51H36V18A18,18,0,0,0,18,0Z"/></g></g></g></svg>