<svg xmlns="http://www.w3.org/2000/svg" viewBox="0 0 439.37 85.04"><defs><style>.cls-1{fill:#61a60e;}.cls-2{fill:#006937;}</style></defs><g id="레이어_2" data-name="레이어 2"><g id="Signature_Vertical" data-name="Signature Vertical"><g id="레이어_2-2" data-name="레이어 2"><polygon class="cls-1" points="18.22 85.04 29.61 85.04 29.61 74.83 73.5 74.83 73.5 85.04 84.9 85.04 84.9 64.55 18.22 64.55 18.22 85.04"/><path class="cls-2" d="M42.52,0A42.52,42.52,0,0,0,.06,40.31H0V85H11.39V41.79a31.14,31.14,0,0,1,62.27.7v5.09H29.43V42.46a13.1,13.1,0,0,1,25.8-3.19l.13.51h11.5L66.74,39a24.47,24.47,0,0,0-48.69,3.47V57.86H85V42.52A42.56,42.56,0,0,0,42.52,0Z"/><path class="cls-2" d="M124,43.56a11.75,11.75,0,0,1-4.82-.89,8.71,8.71,0,0,1-3.31-2.5A10.09,10.09,0,0,1,114,36.39a18.18,18.18,0,0,1-.6-4.82V26.63a18.29,18.29,0,0,1,.6-4.8A10.15,10.15,0,0,1,115.91,18a8.79,8.79,0,0,1,3.31-2.49,13.47,13.47,0,0,1,9.63,0A8.74,8.74,0,0,1,132.17,18a10.15,10.15,0,0,1,1.92,3.81,18.29,18.29,0,0,1,.6,4.8v4.94a18.18,18.18,0,0,1-.6,4.82,10.09,10.09,0,0,1-1.92,3.78,8.66,8.66,0,0,1-3.32,2.5,11.7,11.7,0,0,1-4.81.89m0-24a4.41,4.41,0,0,0-4,1.95,11,11,0,0,0-1.22,5.76v3.6A11,11,0,0,0,120,36.66a5.15,5.15,0,0,0,8.07,0,11,11,0,0,0,1.23-5.76V27.3a11,11,0,0,0-1.23-5.76,4.4,4.4,0,0,0-4-1.95m21.08,7h5.7v4.9h-5.7V53.32h-5.66V11.88h5.66Z"/><path class="cls-2" d="M190.77,35.09v4.77H174.64V53.33H169V39.86H152.8V35.09ZM157.48,14.15h28.61v4.77h-11.4v.35a4.53,4.53,0,0,0,.8,2.7A6.94,6.94,0,0,0,178.2,24c1.46.72,3.07,1.44,4.82,2.18s3.48,1.45,5.17,2.1L186,32.73c-1.64-.65-3.24-1.32-4.82-2s-3.07-1.35-4.5-2a25.94,25.94,0,0,1-3.19-1.67,4.81,4.81,0,0,1-1.58-1.4h0a5.14,5.14,0,0,1-1.7,1.44,28,28,0,0,1-3.29,1.72q-2.14,1-4.5,2c-1.58.68-3.18,1.35-4.82,2l-2.18-4.5q2.54-1,5.17-2.1c1.75-.74,3.36-1.46,4.81-2.18A7,7,0,0,0,168.09,22a4.53,4.53,0,0,0,.8-2.7v-.35H157.48Z"/><path class="cls-2" d="M210.76,15.8v4.85H200.33V37.46h1.29c1.82,0,3.65-.05,5.49-.14a48.73,48.73,0,0,0,5.57-.58l.58,4.82a44.72,44.72,0,0,1-5.77.62c-2,.09-4,.13-5.87.13h-6.86V15.8ZM220.48,26h3.65V11.88h5.39V53.32h-5.39V30.86h-3.65V51.32h-5.4V12.72h5.4Z"/><path class="cls-2" d="M249.16,15.8h9v4.72H234.4V15.8h9.14V11.34h5.62Zm-2.82,21.61a14.35,14.35,0,0,1-4.18-.55,9.54,9.54,0,0,1-3.08-1.52,6.83,6.83,0,0,1-1.92-2.25,6,6,0,0,1-.66-2.76V28.9a6,6,0,0,1,.66-2.76,6.76,6.76,0,0,1,1.92-2.26,9.73,9.73,0,0,1,3.08-1.51,15.84,15.84,0,0,1,8.35,0,9.74,9.74,0,0,1,3.1,1.51,6.76,6.76,0,0,1,1.92,2.26,6,6,0,0,1,.66,2.76v1.43a6,6,0,0,1-.66,2.76,6.83,6.83,0,0,1-1.92,2.25,9.55,9.55,0,0,1-3.1,1.52,14.47,14.47,0,0,1-4.17.55m-5.92,2.28h26.43V53.86h-5.62V44.41H240.42Zm5.92-13.46a5.18,5.18,0,0,0-3.38,1,2.6,2.6,0,0,0-1.16,2v.89A2.63,2.63,0,0,0,243,32a6.45,6.45,0,0,0,6.77,0,2.63,2.63,0,0,0,1.16-2v-.89a2.6,2.6,0,0,0-1.16-2,5.19,5.19,0,0,0-3.39-1m20.51-4h5.43v4.9h-5.43V37.81h-5.62V11.88h5.62Z"/><path class="cls-2" d="M282.36,43.39V29.61h5.48V43.39h4V29.61h5.48V43.39h14.93v4.72h-38V43.39ZM300.5,38.3c.27-1.39.47-2.74.62-4s.26-2.56.34-3.81.12-2.5.15-3.77.05-2.54.05-3.85V20.21H278.79V15.35h28.39v6q0,5-.24,9.27A76.42,76.42,0,0,1,306,39Z"/><path class="cls-2" d="M331.87,43.39V29.61h5.48V43.39h4V29.61h5.48V43.39h14.93v4.72h-38V43.39ZM350,38.3c.26-1.39.47-2.74.62-4s.26-2.56.33-3.81.13-2.5.16-3.77.05-2.54.05-3.85V20.21H328.31V15.35h28.38v6q0,5-.24,9.27a76.42,76.42,0,0,1-1,8.38Z"/><path class="cls-2" d="M401.74,35v4.77H385.61V53.33h-5.67V39.77H363.77V35Zm-18.9-10.33a4.75,4.75,0,0,1-1.6,1.47c-.86.56-2,1.21-3.48,2-.62.32-1.33.67-2.11,1s-1.6.75-2.41,1.12l-2.46,1.09c-.81.36-1.58.68-2.29,1l-2.32-4.63c1.58-.66,3.23-1.39,5-2.19s3.37-1.6,4.88-2.4a8,8,0,0,0,3-2.48,6.11,6.11,0,0,0,.89-3.41V13.3h5.71v3.92a6,6,0,0,0,.89,3.41,7.86,7.86,0,0,0,3,2.48q2.28,1.2,4.88,2.4t5,2.19l-2.27,4.54c-.71-.3-1.48-.62-2.3-1s-1.63-.72-2.45-1.09-1.62-.74-2.41-1.12-1.49-.72-2.11-1a33,33,0,0,1-3.37-1.92,5,5,0,0,1-1.53-1.42Z"/><path class="cls-2" d="M405.19,41.33h5.5c1.71,0,3.32,0,4.84,0V38.21a10.89,10.89,0,0,1-3.32-1,9.18,9.18,0,0,1-2.34-1.65A6.07,6.07,0,0,1,408,31.22V29.61a5.94,5.94,0,0,1,.63-2.63,6.61,6.61,0,0,1,1.89-2.31A9.64,9.64,0,0,1,413.74,23a16.67,16.67,0,0,1,9.08,0,9.55,9.55,0,0,1,3.2,1.65,6.76,6.76,0,0,1,1.9,2.31,6.07,6.07,0,0,1,.62,2.63v1.61a6.19,6.19,0,0,1-.44,2.27,6.28,6.28,0,0,1-1.38,2,9.43,9.43,0,0,1-2.35,1.65,10.83,10.83,0,0,1-3.27,1v3q3.34-.09,5.9-.24c1.71-.11,3.27-.23,4.66-.38l.4,4.72c-1.28.15-2.75.28-4.43.38s-3.61.18-5.79.24-4.65.11-7.4.14-5.83,0-9.25,0Zm10.34-25V11.78h5.57v4.55h9v4.72H406V16.33Zm2.76,10.48a8,8,0,0,0-2.25.28,4.56,4.56,0,0,0-1.56.79,3.13,3.13,0,0,0-.89,1.09,2.73,2.73,0,0,0-.29,1.18v.53a2.73,2.73,0,0,0,.29,1.21,3.37,3.37,0,0,0,.89,1.07,4.74,4.74,0,0,0,1.56.78,8,8,0,0,0,2.25.28A5.63,5.63,0,0,0,422.08,33a3.07,3.07,0,0,0,1.2-2.28v-.53a3.05,3.05,0,0,0-1.2-2.27,5.57,5.57,0,0,0-3.79-1.07m21.08,26.52H433.8V11.88h5.57Z"/><path class="cls-2" d="M158.48,73.53h-1.59l-1.16-3.23h-4.21l-1.16,3.23h-1.54l4.09-11h1.46ZM152,69h3.29l-.91-2.58c-.34-.91-.43-1.2-.73-2.21-.31,1-.4,1.3-.72,2.21Z"/><path class="cls-2" d="M164.69,70.51c0,2.44-1.37,3.19-3.19,3.19a4,4,0,0,1-2.54-.9l.71-1.19a2.81,2.81,0,0,0,1.88.69c1.13,0,1.63-.6,1.63-2.11V62.53h1.51Z"/><path class="cls-2" d="M166.76,68.86V67.2c0-3.21,1.86-4.84,4.47-4.84S175.7,64,175.7,67.2v1.66c0,3.24-1.85,4.84-4.47,4.84S166.76,72.1,166.76,68.86Zm1.52-1.49V68.7c0,2.57,1.24,3.63,2.95,3.63s2.94-1.06,2.94-3.63V67.37c0-2.58-1.22-3.63-2.94-3.63S168.28,64.79,168.28,67.37Z"/><path class="cls-2" d="M185.85,62.53v6.59c0,3.33-1.48,4.58-4.09,4.58s-4.09-1.25-4.09-4.58V62.53h1.52v6.41c0,2.47.82,3.4,2.57,3.4s2.58-.93,2.58-3.4V62.53Z"/><path class="cls-2" d="M200.53,62.53v6.59c0,3.33-1.48,4.58-4.09,4.58s-4.09-1.25-4.09-4.58V62.53h1.51v6.41c0,2.47.82,3.4,2.58,3.4s2.58-.93,2.58-3.4V62.53Z"/><path class="cls-2" d="M204.58,62.53,208.85,70a12,12,0,0,1,.78,1.6v-9H211v11h-1.74L205,66.15a13.12,13.12,0,0,1-.78-1.62v9h-1.4v-11Z"/><path class="cls-2" d="M215,62.53v11h-1.51v-11Z"/><path class="cls-2" d="M218.1,62.53l3.19,9.1,3.27-9.1h1.56l-4.16,11h-1.42l-4.08-11Z"/><path class="cls-2" d="M234.45,62.53v1.3h-5.34v3.42h5v1.29h-5v3.7h5.45v1.29h-7v-11Z"/><path class="cls-2" d="M238.16,73.53h-1.51v-11h4c2.24,0,3.51,1.27,3.51,3v.39a2.82,2.82,0,0,1-1.85,2.72l2.18,4.88h-1.63l-2-4.59h-2.71Zm0-5.87h2.11c1.71,0,2.37-.69,2.37-1.77v-.31c0-1.07-.69-1.75-2.22-1.75h-2.26Z"/><path class="cls-2" d="M252.29,70.73v-.25c0-1-.63-1.45-2.42-1.83-2.07-.44-3.66-1.08-3.66-3.07v-.27c0-1.5,1.24-3,3.77-3a5.86,5.86,0,0,1,3.36,1l-.72,1.18a4.39,4.39,0,0,0-2.62-.78c-1.38,0-2.28.7-2.28,1.57v.25c0,1,.9,1.37,2.54,1.74,2.71.61,3.55,1.57,3.55,3.09v.28c0,2-1.66,3-3.92,3a6.14,6.14,0,0,1-3.83-1.3l.76-1.23a6,6,0,0,0,3.12,1.16C251.49,72.33,252.29,71.6,252.29,70.73Z"/><path class="cls-2" d="M257.26,62.53v11h-1.51v-11Z"/><path class="cls-2" d="M262,73.53v-9.7h-3.35v-1.3h8.22v1.3h-3.36v9.7Z"/><path class="cls-2" d="M272.62,69.11v4.42h-1.51V69.11l-3.78-6.58H269l2.88,5.14,2.81-5.14h1.68Z"/><path class="cls-2" d="M288.91,62.53v1.3h-5.29V67.5h5v1.3h-5v4.73h-1.51v-11Z"/><path class="cls-2" d="M298.81,73.53h-1.59l-1.16-3.23h-4.21l-1.16,3.23h-1.54l4.09-11h1.46ZM292.3,69h3.3l-.92-2.58c-.33-.91-.42-1.2-.73-2.21-.3,1-.39,1.3-.71,2.21Z"/><path class="cls-2" d="M308,72.3a5.31,5.31,0,0,1-3.89,1.4c-2.62,0-4.41-1.6-4.41-4.84V67.2c0-3.21,1.8-4.84,4.41-4.84a5.43,5.43,0,0,1,3.63,1.18L307,64.77a4.14,4.14,0,0,0-2.86-1c-1.66,0-2.88,1.11-2.88,3.63v1.27c0,2.51,1.22,3.63,2.88,3.63a4.19,4.19,0,0,0,3.07-1.16Z"/><path class="cls-2" d="M317.86,62.53v6.59c0,3.33-1.48,4.58-4.09,4.58s-4.09-1.25-4.09-4.58V62.53h1.51v6.41c0,2.47.83,3.4,2.58,3.4s2.58-.93,2.58-3.4V62.53Z"/><path class="cls-2" d="M321.68,62.53v9.71H327v1.29h-6.78v-11Z"/><path class="cls-2" d="M329.86,73.53v-9.7h-3.35v-1.3h8.22v1.3h-3.36v9.7Z"/><path class="cls-2" d="M340.44,69.11v4.42h-1.51V69.11l-3.78-6.58h1.68l2.88,5.14,2.81-5.14h1.68Z"/><path class="cls-2" d="M355.75,70.73v-.25c0-1-.62-1.45-2.41-1.83-2.07-.44-3.66-1.08-3.66-3.07v-.27c0-1.5,1.23-3,3.77-3a5.89,5.89,0,0,1,3.36,1l-.72,1.18a4.4,4.4,0,0,0-2.63-.78c-1.37,0-2.27.7-2.27,1.57v.25c0,1,.9,1.37,2.53,1.74,2.72.61,3.56,1.57,3.56,3.09v.28c0,2-1.66,3-3.92,3a6.14,6.14,0,0,1-3.83-1.3l.76-1.23a6,6,0,0,0,3.11,1.16C355,72.33,355.75,71.6,355.75,70.73Z"/><path class="cls-2" d="M366.07,62.53v1.3h-5.34v3.42h5v1.29h-5v3.7h5.45v1.29h-7v-11Z"/><path class="cls-2" d="M370,62.53,374.29,70a12,12,0,0,1,.78,1.6v-9h1.4v11h-1.74l-4.27-7.38a13.12,13.12,0,0,1-.78-1.62v9h-1.41v-11Z"/><path class="cls-2" d="M387.62,73.53H386l-1.16-3.23h-4.21l-1.16,3.23H378l4.09-11h1.46ZM381.11,69h3.3l-.92-2.58c-.33-.91-.42-1.2-.73-2.21-.3,1-.39,1.3-.71,2.21Z"/><path class="cls-2" d="M390.69,73.53v-9.7h-3.36v-1.3h8.23v1.3H392.2v9.7Z"/><path class="cls-2" d="M403.83,62.53v1.3h-5.34v3.42h5v1.29h-5v3.7h5.45v1.29h-7v-11Z"/></g></g></g></svg>