<svg xmlns="http://www.w3.org/2000/svg" viewBox="0 0 90 15"><defs><style>.cls-1{fill:#61a60e;}.cls-2{fill:#f1f1f1;}.cls-3{fill:#fff;}</style></defs><g id="레이어_2" data-name="레이어 2"><g id="AUFC_810_12_colum_grid_system" data-name="AUFC / 810 / 12 colum grid system"><g id="body_first_hierarchy" data-name="body / first hierarchy"><path class="cls-1" d="M26.9,8.06A4.62,4.62,0,0,1,24.21,5.6a4.81,4.81,0,0,1-2.84,2.78l-.71-1.06A4.11,4.11,0,0,0,23.5,3.39V2.23h1.36V3.5A3.76,3.76,0,0,0,27.6,7Zm3.17,3.11c0,1.39-1.48,2.21-3.91,2.21s-3.92-.82-3.92-2.21S23.74,9,26.16,9,30.07,9.79,30.07,11.17Zm-1.33,0c0-.73-.95-1.15-2.58-1.15s-2.59.42-2.59,1.15.95,1.15,2.59,1.15S28.74,11.92,28.74,11.17ZM31.6,4.54v1.1H29.94v3H28.6V1.62h1.34V4.54Z"/><path class="cls-1" d="M35.69,4.77A5.69,5.69,0,0,0,38,9.65l-.75,1a5.34,5.34,0,0,1-2.17-3.11A5.66,5.66,0,0,1,32.73,11l-.81-1a5.88,5.88,0,0,0,2.47-5.1V2.72h1.3Zm2.75-2.91H39.7v11H38.44v-6H36.71V5.75h1.73Zm3.67-.22V13.38H40.83V1.64Z"/><path class="cls-1" d="M45.25,9.27a22.9,22.9,0,0,0,3.45-.35l.14,1.14a22.16,22.16,0,0,1-4.15.35h-.77V3h1.33Zm8.13-7.63V13.38H52.11v-6h-1.4v5.38H49.45V1.87h1.26V6.3h1.4V1.64Z"/><path class="cls-1" d="M65.31,7.34V8.41H54.69V7.34h2.52V5.78A1.93,1.93,0,0,1,55.82,4c0-1.38,1.61-2.21,4.19-2.21s4.18.83,4.18,2.21A2,2,0,0,1,62.78,5.8V7.34ZM64,11.27c0,1.35-1.51,2.11-4.05,2.11s-4-.76-4-2.11,1.52-2.11,4-2.11S64,9.93,64,11.27ZM57.2,4c0,.76,1,1.18,2.81,1.18S62.8,4.8,62.8,4s-1-1.17-2.79-1.17S57.2,3.29,57.2,4Zm5.47,7.23c0-.7-1-1.08-2.69-1.08s-2.68.38-2.68,1.08,1,1.08,2.68,1.08S62.67,12,62.67,11.27ZM58.55,7.34h2.89V6.15a10.35,10.35,0,0,1-1.43.1,10.81,10.81,0,0,1-1.46-.1Z"/><path class="cls-1" d="M79.64,10.84V12H69V10.84h4.63V8.47H70.2V2.42h1.33v2h5.56v-2h1.33V8.47H75v2.37ZM71.53,7.4h5.56V5.47H71.53Z"/><path class="cls-1" d="M86.54,2.87c0,3.5-1.4,6.46-5.43,8.41l-.72-1.06C83.47,8.74,84.93,6.67,85.16,4H81V2.87ZM90,1.64V13.38H88.66V1.64Z"/><circle class="cls-2" cx="7.5" cy="7.5" r="7.5"/><line class="cls-3" x1="7.5" y1="4.73" x2="7.5" y2="10.27"/><line class="cls-3" x1="10.27" y1="7.5" x2="4.73" y2="7.5"/><path class="cls-1" d="M7.5,0A7.5,7.5,0,1,0,15,7.5,7.5,7.5,0,0,0,7.5,0Zm0,13A5.5,5.5,0,1,1,13,7.5,5.51,5.51,0,0,1,7.5,13Z"/><path class="cls-1" d="M10.27,6.5H8.5V4.73a1,1,0,1,0-2,0V6.5H4.73a1,1,0,0,0,0,2H6.5v1.77a1,1,0,0,0,2,0V8.5h1.77a1,1,0,0,0,0-2Z"/></g></g></g></svg>